<svg width="28" height="20" viewBox="0 0 28 20" fill="none" xmlns="http://www.w3.org/2000/svg">
<path d="M23.7727 14.5384C25.5555 12.303 27.8666 9.21285 27.8666 3.88733C27.8666 3.49285 27.6025 3.22986 27.2063 3.22986C26.8101 3.22986 26.546 3.49285 26.546 3.88733C26.546 8.29239 24.8952 10.9223 23.2444 13.0262C22.8482 11.777 22.5841 10.2648 22.5841 8.48963C22.5841 8.1609 22.32 7.83216 21.9238 7.83216C21.5936 7.83216 21.2635 8.09515 21.2635 8.48963C21.1974 9.60733 20.8673 10.8565 20.6031 10.988C20.339 10.988 20.0089 10.0676 19.9428 9.1471C19.9428 8.81837 19.6127 8.55538 19.2825 8.55538C18.9523 8.55538 18.6222 8.75262 18.6222 9.1471C18.4241 10.2648 17.8958 11.8427 17.3016 11.8427C17.0374 11.8427 16.9054 11.777 16.8393 11.6455C16.6412 11.4483 16.5752 10.988 16.5752 10.5935C16.5752 10.3306 16.6412 10.0676 16.6412 9.80457C16.6412 9.47584 16.3771 9.1471 16.047 9.1471C15.7168 9.1471 15.3866 9.34434 15.3206 9.67308C15.3206 9.73883 15.2546 10.0018 15.2546 10.3963C15.1225 11.514 14.7263 13.7494 13.3397 13.7494C12.8774 13.7494 12.6133 13.6179 12.4152 13.2892C12.085 12.7632 12.085 11.9085 12.4152 11.1195V11.0538C12.4812 10.988 12.4812 10.8565 12.5473 10.7908C13.0755 9.73883 13.6698 9.1471 14.6603 9.1471C15.0565 9.1471 15.3206 8.88411 15.3206 8.48963C15.3206 8.09515 15.0565 7.83216 14.6603 7.83216C11.887 7.83216 11.0946 10.5278 10.3022 13.0919C9.37775 16.2478 8.51933 18.3517 6.07616 18.3517C2.70854 18.3517 1.45394 14.0124 1.45394 11.1195C1.45394 5.46526 4.55743 1.91492 7.39679 1.91492C9.31171 1.91492 10.0381 3.4271 10.1041 3.49285C10.2362 3.82158 10.6323 3.95308 10.9625 3.82158C11.2927 3.69009 11.4247 3.29561 11.2927 2.96687C11.2266 2.83538 10.1701 0.599976 7.39679 0.599976C3.83108 0.599976 0.133301 4.5448 0.133301 11.1195C0.133301 17.8915 4.02917 19.6666 6.07616 19.6666C9.44378 19.6666 10.5663 16.708 11.4247 14.0781C11.887 14.6699 12.5473 15.0643 13.3397 15.0643C14.7923 15.0643 15.6508 14.0124 16.113 12.6974C16.4431 12.9604 16.8393 13.0919 17.3016 13.0919C18.226 13.0919 18.8863 12.303 19.2825 11.514C19.5466 11.9742 20.0089 12.303 20.6031 12.303C20.9993 12.303 21.3295 12.1057 21.5936 11.8427C21.7917 12.7632 22.0558 13.6179 22.2539 14.3411C21.3295 15.5246 20.6031 16.5108 20.6031 17.6942C20.6031 18.8119 21.4616 19.6666 22.5841 19.6666C23.7727 19.6666 24.565 18.6147 24.565 17.6942C24.565 16.8395 24.2349 15.9191 23.8387 14.8671C23.8387 14.7356 23.7727 14.6699 23.7727 14.5384ZM22.5841 18.3517C22.1219 18.3517 21.9238 18.023 21.9238 17.6942C21.9238 17.1025 22.2539 16.5108 22.7822 15.7876C23.0463 16.5765 23.2444 17.1683 23.2444 17.6942C23.2444 17.8915 23.0463 18.3517 22.5841 18.3517Z" fill="black"/>
</svg>
