<svg width="34" height="34" viewBox="0 0 34 34" fill="none" xmlns="http://www.w3.org/2000/svg">
<path d="M32.9201 4.92386C32.9034 4.59429 32.6314 4.33301 32.2983 4.33301H1.66846C1.33539 4.33301 1.06341 4.59429 1.04668 4.92386C1.0459 4.93456 1.0459 4.94506 1.0459 4.95576V28.6124C1.0459 28.9564 1.32488 29.2354 1.66846 29.2354H32.2983C32.6419 29.2354 32.9209 28.9564 32.9209 28.6124V4.95576C32.9209 4.94506 32.9209 4.93456 32.9201 4.92386ZM2.29102 5.57093H31.6758V8.44307H2.29102V5.57093ZM31.6758 27.9897H2.29102V9.68857H31.6758V27.9897Z" fill="#161617"/>
<path d="M11.6916 7.67267H6.71118C6.36722 7.67267 6.08862 7.39389 6.08862 7.05012C6.08862 6.70596 6.36722 6.42737 6.71118 6.42737H11.6916C12.0356 6.42737 12.3142 6.70596 12.3142 7.05012C12.3142 7.39389 12.0356 7.67267 11.6916 7.67267Z" fill="#161617"/>
<path d="M4.22212 7.67267C3.87835 7.67267 3.59937 7.39389 3.59937 7.05012C3.59937 6.70596 3.87776 6.42737 4.22173 6.42737H4.22212C4.56608 6.42737 4.84467 6.70596 4.84467 7.05012C4.84467 7.39389 4.56608 7.67267 4.22212 7.67267Z" fill="#161617"/>
<path d="M10.6118 20.5248H5.38232C5.03836 20.5248 4.75977 20.2462 4.75977 19.9021C4.75977 19.5581 5.03836 19.2793 5.38232 19.2793H10.6118C10.9558 19.2793 11.2344 19.5581 11.2344 19.9021C11.2344 20.2462 10.9558 20.5248 10.6118 20.5248Z" fill="#161617"/>
<path d="M10.6118 23.0276H5.38232C5.03836 23.0276 4.75977 22.7486 4.75977 22.4048C4.75977 22.0609 5.03836 21.7819 5.38232 21.7819H10.6118C10.9558 21.7819 11.2344 22.0609 11.2344 22.4048C11.2344 22.7486 10.9558 23.0276 10.6118 23.0276Z" fill="#161617"/>
<path d="M10.6118 25.5299H5.38232C5.03836 25.5299 4.75977 25.2513 4.75977 24.9073C4.75977 24.5633 5.03836 24.2845 5.38232 24.2845H10.6118C10.9558 24.2845 11.2344 24.5633 11.2344 24.9073C11.2344 25.2513 10.9558 25.5299 10.6118 25.5299Z" fill="#161617"/>
<path d="M7.99707 18.1301C6.34924 18.1301 5.00879 16.7894 5.00879 15.1412C5.00879 13.4928 6.34924 12.152 7.99707 12.152C9.64491 12.152 10.9854 13.4928 10.9854 15.1412C10.9854 16.7894 9.64491 18.1301 7.99707 18.1301ZM7.99707 13.3975C7.036 13.3975 6.25391 14.1796 6.25391 15.1412C6.25391 16.1025 7.036 16.8848 7.99707 16.8848C8.95815 16.8848 9.74024 16.1025 9.74024 15.1412C9.74024 14.1796 8.95834 13.3975 7.99707 13.3975Z" fill="#161617"/>
<path d="M19.5981 20.5248H14.3687C14.0247 20.5248 13.7461 20.2462 13.7461 19.9021C13.7461 19.5581 14.0247 19.2793 14.3687 19.2793H19.5981C19.9421 19.2793 20.2207 19.5581 20.2207 19.9021C20.2207 20.2462 19.9421 20.5248 19.5981 20.5248Z" fill="#161617"/>
<path d="M19.5981 23.0276H14.3687C14.0247 23.0276 13.7461 22.7486 13.7461 22.4048C13.7461 22.0609 14.0247 21.7819 14.3687 21.7819H19.5981C19.9421 21.7819 20.2207 22.0609 20.2207 22.4048C20.2207 22.7486 19.9421 23.0276 19.5981 23.0276Z" fill="#161617"/>
<path d="M19.5981 25.5299H14.3687C14.0247 25.5299 13.7461 25.2513 13.7461 24.9073C13.7461 24.5633 14.0247 24.2845 14.3687 24.2845H19.5981C19.9421 24.2845 20.2207 24.5633 20.2207 24.9073C20.2207 25.2513 19.9421 25.5299 19.5981 25.5299Z" fill="#161617"/>
<path d="M16.9834 18.1301C15.3356 18.1301 13.9951 16.7894 13.9951 15.1412C13.9951 13.4928 15.3356 12.152 16.9834 12.152C18.6312 12.152 19.9717 13.4928 19.9717 15.1412C19.9717 16.7894 18.6312 18.1301 16.9834 18.1301ZM16.9834 13.3975C16.0223 13.3975 15.2402 14.1796 15.2402 15.1412C15.2402 16.1025 16.0223 16.8848 16.9834 16.8848C17.9445 16.8848 18.7266 16.1025 18.7266 15.1412C18.7266 14.1796 17.9445 13.3975 16.9834 13.3975Z" fill="#161617"/>
<path d="M28.5898 20.5248H23.3603C23.0163 20.5248 22.7377 20.2462 22.7377 19.9021C22.7377 19.5581 23.0163 19.2793 23.3603 19.2793H28.5898C28.9335 19.2793 29.2123 19.5581 29.2123 19.9021C29.2123 20.2462 28.9335 20.5248 28.5898 20.5248Z" fill="#161617"/>
<path d="M28.5898 23.0276H23.3603C23.0163 23.0276 22.7377 22.7486 22.7377 22.4048C22.7377 22.0609 23.0163 21.7819 23.3603 21.7819H28.5898C28.9335 21.7819 29.2123 22.0609 29.2123 22.4048C29.2123 22.7486 28.9335 23.0276 28.5898 23.0276Z" fill="#161617"/>
<path d="M28.5898 25.5299H23.3603C23.0163 25.5299 22.7377 25.2513 22.7377 24.9073C22.7377 24.5633 23.0163 24.2845 23.3603 24.2845H28.5898C28.9335 24.2845 29.2123 24.5633 29.2123 24.9073C29.2123 25.2513 28.9335 25.5299 28.5898 25.5299Z" fill="#161617"/>
<path d="M25.975 18.1301C24.3272 18.1301 22.9868 16.7894 22.9868 15.1412C22.9868 13.4928 24.3272 12.152 25.975 12.152C27.6229 12.152 28.9633 13.4928 28.9633 15.1412C28.9633 16.7894 27.6229 18.1301 25.975 18.1301ZM25.975 13.3975C25.014 13.3975 24.2319 14.1796 24.2319 15.1412C24.2319 16.1025 25.014 16.8848 25.975 16.8848C26.9361 16.8848 27.7182 16.1025 27.7182 15.1412C27.7182 14.1796 26.9361 13.3975 25.975 13.3975Z" fill="#161617"/>
</svg>
