<svg width="25" height="24" viewBox="0 0 25 24" fill="none" xmlns="http://www.w3.org/2000/svg">
<path d="M12.1328 6C10.2948 6 8.79948 7.41663 8.79948 9.15789C8.79948 10.8992 10.2948 12.3158 12.1328 12.3158C13.9708 12.3158 15.4661 10.8992 15.4661 9.15789C15.4661 7.41663 13.9708 6 12.1328 6ZM12.1328 11.0526C11.0301 11.0526 10.1328 10.2025 10.1328 9.15789C10.1328 8.11326 11.0301 7.26316 12.1328 7.26316C13.2355 7.26316 14.1328 8.11326 14.1328 9.15789C14.1328 10.2025 13.2355 11.0526 12.1328 11.0526ZM18.1328 18V17.3684C18.1328 14.9312 16.0388 12.9474 13.4661 12.9474H10.7995C8.22615 12.9474 6.13281 14.9312 6.13281 17.3684V18H7.46615V17.3684C7.46615 15.6272 8.96148 14.2105 10.7995 14.2105H13.4661C15.3041 14.2105 16.7995 15.6272 16.7995 17.3684V18H18.1328Z" fill="#161617"/>
</svg>
