<svg width="25" height="24" viewBox="0 0 25 24" fill="none" xmlns="http://www.w3.org/2000/svg">
<path d="M11.0967 5C9.25868 5 7.76335 6.54542 7.76335 8.44498C7.76335 10.3445 9.25868 11.89 11.0967 11.89C12.9347 11.89 14.43 10.3445 14.43 8.44498C14.43 6.54542 12.9347 5 11.0967 5ZM11.0967 10.512C9.99401 10.512 9.09668 9.58457 9.09668 8.44498C9.09668 7.30538 9.99401 6.37799 11.0967 6.37799C12.1993 6.37799 13.0967 7.30538 13.0967 8.44498C13.0967 9.58457 12.1993 10.512 11.0967 10.512ZM17.0967 18.0909V17.4019C17.0967 14.7431 15.0027 12.5789 12.43 12.5789H9.76335C7.19001 12.5789 5.09668 14.7431 5.09668 17.4019V18.0909H6.43001V17.4019C6.43001 15.5024 7.92535 13.9569 9.76335 13.9569H12.43C14.268 13.9569 15.7633 15.5024 15.7633 17.4019V18.0909H17.0967Z" fill="#161617"/>
<path d="M18.0967 8L18.7702 10.0729H20.9498L19.1865 11.3541L19.86 13.4271L18.0967 12.1459L16.3333 13.4271L17.0069 11.3541L15.2435 10.0729H17.4231L18.0967 8Z" fill="#161617"/>
</svg>
