<svg width="31" height="31" viewBox="0 0 31 31" fill="none" xmlns="http://www.w3.org/2000/svg">
<path d="M15.6665 0.333496C11.0715 0.333496 7.33317 3.87507 7.33317 8.22823C7.33317 12.5814 11.0715 16.123 15.6665 16.123C20.2615 16.123 23.9998 12.5814 23.9998 8.22823C23.9998 3.87507 20.2615 0.333496 15.6665 0.333496ZM15.6665 12.9651C12.9098 12.9651 10.6665 10.8398 10.6665 8.22823C10.6665 5.61665 12.9098 3.49139 15.6665 3.49139C18.4232 3.49139 20.6665 5.61665 20.6665 8.22823C20.6665 10.8398 18.4232 12.9651 15.6665 12.9651ZM30.6665 30.3335V28.7545C30.6665 22.6614 25.4315 17.7019 18.9998 17.7019H12.3332C5.89984 17.7019 0.666504 22.6614 0.666504 28.7545V30.3335H3.99984V28.7545C3.99984 24.4014 7.73817 20.8598 12.3332 20.8598H18.9998C23.5948 20.8598 27.3332 24.4014 27.3332 28.7545V30.3335H30.6665Z" fill="white"/>
</svg>
