<svg width="18" height="18" viewBox="0 0 18 18" fill="none" xmlns="http://www.w3.org/2000/svg">
<path d="M15.3281 2.10938H12.1641V1.58203C12.1641 0.709699 11.4544 0 10.582 0H7.41797C6.54564 0 5.83594 0.709699 5.83594 1.58203V2.10938H2.67188C1.79954 2.10938 1.08984 2.81907 1.08984 3.69141V4.74609C1.08984 5.03733 1.32595 5.27344 1.61719 5.27344H2.18612L3.11379 16.5567C3.11389 16.5582 3.11404 16.5597 3.11418 16.5612C3.18878 17.3815 3.86613 18 4.6897 18H13.3103C14.1339 18 14.8112 17.3815 14.8858 16.5612C14.8859 16.5597 14.8861 16.5582 14.8862 16.5567L15.8139 5.27344H16.3828C16.674 5.27344 16.9102 5.03733 16.9102 4.74609V3.69141C16.9102 2.81907 16.2005 2.10938 15.3281 2.10938ZM6.89062 1.58203C6.89062 1.29125 7.12719 1.05469 7.41797 1.05469H10.582C10.8728 1.05469 11.1094 1.29125 11.1094 1.58203V2.10938H6.89062V1.58203ZM13.8353 16.4675C13.8097 16.74 13.5842 16.9453 13.3103 16.9453H4.6897C4.41577 16.9453 4.19034 16.74 4.16468 16.4675L3.24436 5.27344H14.7556L13.8353 16.4675ZM15.8555 4.21875H15.3281H2.67188H2.14453V3.69141C2.14453 3.40063 2.3811 3.16406 2.67188 3.16406H6.36328H11.6367H15.3281C15.6189 3.16406 15.8555 3.40063 15.8555 3.69141V4.21875Z" fill="white"/>
<path d="M9 6.32812C8.70877 6.32812 8.47266 6.56423 8.47266 6.85547V14.3086C8.47266 14.5998 8.70877 14.8359 9 14.8359C9.29123 14.8359 9.52734 14.5998 9.52734 14.3086V6.85547C9.52734 6.56423 9.29123 6.32812 9 6.32812Z" fill="white"/>
<path d="M12.1641 6.32812C11.8728 6.32812 11.6367 6.56423 11.6367 6.85547V14.3086C11.6367 14.5998 11.8728 14.8359 12.1641 14.8359C12.4553 14.8359 12.6914 14.5998 12.6914 14.3086V6.85547C12.6914 6.56423 12.4553 6.32812 12.1641 6.32812Z" fill="white"/>
<path d="M5.83594 6.32812C5.5447 6.32812 5.30859 6.56423 5.30859 6.85547V14.3086C5.30859 14.5998 5.5447 14.8359 5.83594 14.8359C6.12717 14.8359 6.36328 14.5998 6.36328 14.3086V6.85547C6.36328 6.56423 6.12717 6.32812 5.83594 6.32812Z" fill="white"/>
</svg>
