<svg width="34" height="34" viewBox="0 0 34 34" fill="none" xmlns="http://www.w3.org/2000/svg">
<path d="M17 0C7.61115 0 0 7.61115 0 17C0 26.3888 7.61115 33.9999 17 33.9999C26.3888 33.9999 33.9999 26.3888 33.9999 17C33.99 7.61534 26.3847 0.0100321 17 0ZM7.55778 5.88677C10.1945 3.64904 13.5417 2.42314 17 2.42862C20.444 2.42755 23.776 3.65218 26.3997 5.88328L5.87837 26.4046C0.676276 20.275 1.42818 11.0889 7.55778 5.88677ZM26.4422 28.1132C23.8055 30.351 20.4583 31.5769 17 31.5714C13.556 31.5724 10.224 30.3478 7.60026 28.1167L28.1217 7.59528C33.3237 13.725 32.5718 22.9111 26.4422 28.1132Z" fill="white"/>
</svg>
