<svg width="80" height="80" viewBox="0 0 80 80" fill="none" xmlns="http://www.w3.org/2000/svg">
<path d="M53.6251 52.0417H49.3751C48.9841 52.0417 48.6667 51.7244 48.6667 51.3334V48.5624C48.6667 47.8668 48.2686 47.3114 47.9357 46.9686C46.8137 45.814 46.3363 44.233 46.6239 42.6336C46.9809 40.6474 48.6157 39.014 50.6005 38.6627C52.0696 38.4049 53.5585 38.7959 54.6847 39.7408C55.811 40.6857 56.4584 42.0712 56.4584 43.5417C56.4584 44.8663 55.9356 46.1087 54.9879 47.0451C54.689 47.3398 54.3334 47.8214 54.3334 48.4405V51.3334C54.3334 51.7244 54.0161 52.0417 53.6251 52.0417ZM50.0834 50.625H52.9167V48.4405C52.9167 47.5749 53.2992 46.7221 53.9934 46.0364C54.6691 45.3692 55.0417 44.4838 55.0417 43.5417C55.0417 42.4919 54.5799 41.5031 53.7738 40.8259C52.9578 40.1417 51.9194 39.8697 50.847 40.0567C49.4346 40.3074 48.2715 41.4691 48.0179 42.8829C47.8125 44.0276 48.1525 45.1567 48.9529 45.9812C49.6924 46.7434 50.0834 47.6359 50.0834 48.5624V50.625Z" fill="#161617"/>
<path d="M59.2917 57H43.7083C43.3173 57 43 56.6827 43 56.2917V53.2926C43 52.223 43.8004 51.3163 44.8615 51.1846L49.2872 50.6307L53.625 50.625L58.1385 51.1846C59.1996 51.3163 60 52.223 60 53.2926V56.2917C60 56.6827 59.6827 57 59.2917 57ZM44.4167 55.5833H58.5833V53.2926C58.5833 52.937 58.317 52.6338 57.9628 52.5899L53.5372 52.036L49.375 52.0417L45.0372 52.5899C44.683 52.6338 44.4167 52.9356 44.4167 53.2926V55.5833Z" fill="#161617"/>
<path d="M39.4583 51.3333H29.5417C27.5895 51.3333 26 49.7438 26 47.7917V26.5417C26 24.5895 27.5895 23 29.5417 23H46.5417C48.4938 23 50.0833 24.5895 50.0833 26.5417V35.0417C50.0833 35.4327 49.766 35.75 49.375 35.75C48.984 35.75 48.6667 35.4327 48.6667 35.0417V26.5417C48.6667 25.3701 47.7133 24.4167 46.5417 24.4167H29.5417C28.3701 24.4167 27.4167 25.3701 27.4167 26.5417V47.7917C27.4167 48.9633 28.3701 49.9167 29.5417 49.9167H39.4583C39.8493 49.9167 40.1667 50.234 40.1667 50.625C40.1667 51.016 39.8493 51.3333 39.4583 51.3333Z" fill="#161617"/>
<path d="M43.7082 41.4167H32.3748C31.9838 41.4167 31.6665 41.0993 31.6665 40.7083C31.6665 40.3173 31.9838 40 32.3748 40H43.7082C44.0992 40 44.4165 40.3173 44.4165 40.7083C44.4165 41.0993 44.0992 41.4167 43.7082 41.4167Z" fill="#161617"/>
<path d="M42.2915 47.0833H32.3748C31.9838 47.0833 31.6665 46.766 31.6665 46.375C31.6665 45.984 31.9838 45.6666 32.3748 45.6666H42.2915C42.6825 45.6666 42.9998 45.984 42.9998 46.375C42.9998 46.766 42.6825 47.0833 42.2915 47.0833Z" fill="#161617"/>
<path d="M43.7082 35.75H32.3748C31.9838 35.75 31.6665 35.4327 31.6665 35.0417C31.6665 34.6507 31.9838 34.3334 32.3748 34.3334H43.7082C44.0992 34.3334 44.4165 34.6507 44.4165 35.0417C44.4165 35.4327 44.0992 35.75 43.7082 35.75Z" fill="#161617"/>
<path d="M43.7082 30.0833H32.3748C31.9838 30.0833 31.6665 29.766 31.6665 29.375C31.6665 28.984 31.9838 28.6666 32.3748 28.6666H43.7082C44.0992 28.6666 44.4165 28.984 44.4165 29.375C44.4165 29.766 44.0992 30.0833 43.7082 30.0833Z" fill="#161617"/>
</svg>
