<svg width="80" height="80" viewBox="0 0 80 80" fill="none" xmlns="http://www.w3.org/2000/svg">
<g clip-path="url(#clip0)">
<path d="M40.625 53.25C40.565 53.25 40.505 53.245 40.4463 53.2325C40.3413 53.2125 30 51.0763 30 39.4125V31.6875C30 31.3 30.2375 30.9538 30.5988 30.8138L40.2863 27.0638C40.5038 26.98 40.745 26.98 40.9625 27.0638L50.65 30.8138C51.0125 30.9538 51.25 31.3 51.25 31.6875V39.4125C51.25 40.1238 51.2113 40.7913 51.13 41.45C51.0675 41.9638 50.61 42.3238 50.0863 42.2675C49.5725 42.205 49.2063 41.7375 49.27 41.2238C49.3413 40.64 49.375 40.0475 49.375 39.4113V32.33L40.625 28.9438L31.875 32.33V39.4125C31.875 48.8563 39.31 51.04 40.6188 51.3513C41.175 51.2125 42.975 50.685 44.7775 49.3463C45.1963 49.0363 45.7813 49.1238 46.09 49.54C46.3975 49.9563 46.3113 50.5438 45.8963 50.8513C43.3788 52.72 40.9063 53.2125 40.8025 53.2313C40.7438 53.245 40.685 53.25 40.625 53.25Z" fill="black"/>
<g clip-path="url(#clip1)">
<path d="M57.8648 39.7697C57.6846 39.5895 57.3923 39.5895 57.2121 39.7697L49.7306 47.2512L46.7879 44.3085C46.6077 44.1282 46.3154 44.1282 46.1352 44.3085C45.9549 44.4887 45.9549 44.7809 46.1352 44.9612L49.4043 48.2303C49.5844 48.4105 49.8768 48.4105 50.057 48.2303L57.8648 40.4224C58.045 40.2422 58.045 39.9499 57.8648 39.7697Z" fill="black"/>
<path d="M57.9552 40.045C57.775 39.8648 57.3926 40.5895 57.2124 40.7697L49.7309 48.2513L46.7882 45.3085C46.6079 45.1283 45.6803 44.3197 45.5 44.5C45.3198 44.6802 44.9935 44.8197 45.1737 45L49.4045 49.2303C49.5847 49.4105 49.877 49.4106 50.0572 49.2303L57.8651 41.4225C58.0003 41.2873 58.1355 40.2253 57.9552 40.045Z" fill="black"/>
</g>
</g>
<defs>
<clipPath id="clip0">
<rect width="30" height="30" fill="white" transform="translate(30 27)"/>
</clipPath>
<clipPath id="clip1">
<rect width="12" height="12" fill="white" transform="translate(46 38)"/>
</clipPath>
</defs>
</svg>
