<svg width="32" height="32" viewBox="0 0 32 32" fill="none" xmlns="http://www.w3.org/2000/svg">
<path d="M15.0568 26.2761C15.0571 26.2764 15.0573 26.2766 15.0576 26.2768C15.0884 26.3076 15.1208 26.3368 15.1545 26.3644C15.17 26.3771 15.1863 26.3881 15.2021 26.4001C15.2211 26.4142 15.2396 26.4289 15.2593 26.4421C15.2783 26.4548 15.298 26.4658 15.3175 26.4774C15.3354 26.4881 15.3528 26.4993 15.3712 26.5091C15.3911 26.5198 15.4115 26.5287 15.4318 26.5383C15.451 26.5474 15.4698 26.5569 15.4895 26.5651C15.5091 26.5732 15.5293 26.5798 15.5493 26.5869C15.5703 26.5945 15.5911 26.6026 15.6126 26.6091C15.6326 26.6151 15.6529 26.6196 15.6731 26.6246C15.6951 26.6302 15.7168 26.6363 15.7391 26.6408C15.7626 26.6454 15.7862 26.6481 15.8098 26.6515C15.8292 26.6543 15.8484 26.658 15.8681 26.6599C15.9556 26.6686 16.0438 26.6686 16.1313 26.6599C16.151 26.658 16.1701 26.6543 16.1896 26.6515C16.2131 26.6481 16.2368 26.6454 16.2602 26.6408C16.2826 26.6363 16.3043 26.6302 16.3262 26.6246C16.3464 26.6196 16.3668 26.6151 16.3868 26.6091C16.4083 26.6026 16.4291 26.5945 16.4501 26.5869C16.4701 26.5798 16.4902 26.5732 16.5099 26.5651C16.5295 26.5569 16.5484 26.5474 16.5675 26.5383C16.5878 26.5287 16.6083 26.5198 16.6281 26.5091C16.6465 26.4993 16.664 26.4881 16.6818 26.4774C16.7013 26.4658 16.721 26.4548 16.74 26.4421C16.7597 26.4289 16.7783 26.4142 16.7972 26.4001C16.8131 26.3882 16.8294 26.3771 16.8448 26.3644C16.8785 26.3368 16.911 26.3076 16.9418 26.2768C16.942 26.2766 16.9423 26.2764 16.9425 26.2761L26.2758 16.9428C26.7965 16.4221 26.7965 15.5779 26.2758 15.0572C25.7551 14.5365 24.9109 14.5365 24.3902 15.0572L17.333 22.1144V1.33331C17.333 0.596938 16.736 0 15.9996 0C15.2633 0 14.6663 0.596938 14.6663 1.33331V22.1144L7.60915 15.0572C7.08846 14.5365 6.24421 14.5365 5.72352 15.0572C5.20284 15.5779 5.20284 16.4221 5.72352 16.9428L15.0568 26.2761Z" fill="#161617"/>
<path d="M25.3329 29.3333H6.66632C5.92995 29.3333 5.33301 29.9302 5.33301 30.6666C5.33301 31.4029 5.92995 31.9999 6.66632 31.9999H25.333C26.0694 31.9999 26.6663 31.403 26.6663 30.6666C26.6663 29.9303 26.0693 29.3333 25.3329 29.3333Z" fill="#161617"/>
</svg>
