<svg width="16" height="16" viewBox="0 0 16 16" fill="none" xmlns="http://www.w3.org/2000/svg">
<path d="M9.48655 3.51855H2.35059V4.67522H9.48655V3.51855Z" fill="#030104"/>
<path d="M12.9811 12.215C13.5342 11.2378 13.3738 9.99271 12.5692 9.18894C12.0932 8.71292 11.4602 8.4502 10.7848 8.4502C10.1093 8.4502 9.4755 8.71292 8.99948 9.18894C8.52346 9.66496 8.26074 10.2979 8.26074 10.9742C8.26074 11.6479 8.52346 12.2818 8.99948 12.7595C9.4755 13.2338 10.1085 13.4965 10.783 13.4965C11.2226 13.4965 11.6484 13.3847 12.0264 13.1714L14.8548 15.9998L15.8094 15.0442L12.9811 12.215ZM11.8469 12.0355C11.2816 12.6008 10.2897 12.6008 9.72435 12.0355C9.13908 11.4494 9.13908 10.4982 9.72435 9.91207C10.007 9.62941 10.3851 9.47333 10.7865 9.47333C11.188 9.47333 11.5643 9.62941 11.8478 9.91207C12.1313 10.1947 12.2874 10.5728 12.2874 10.9742C12.2874 11.3757 12.1305 11.752 11.8469 12.0355Z" fill="#030104"/>
<path d="M11.5593 14.1332H1.60971C1.4519 14.1332 1.32444 14.0049 1.32444 13.8488V1.42026C1.32444 1.26245 1.4519 1.13499 1.60971 1.13499H11.5593C11.7171 1.13499 11.8437 1.26245 11.8437 1.42026V7.76026C12.2556 7.85043 12.6397 8.02645 12.9796 8.2779V1.42026C12.9796 0.637295 12.3431 0 11.5593 0H1.60971C0.826748 0 0.189453 0.637295 0.189453 1.42026V13.8488C0.189453 14.6309 0.826748 15.2682 1.60971 15.2682H11.5593C12.1533 15.2682 12.4342 15.1277 12.6457 14.6092L12.1307 14.0942C11.9408 14.174 11.6408 14.1332 11.5593 14.1332Z" fill="#030104"/>
<path d="M9.48655 6.77881H2.35059V7.93548H9.48655V6.77881Z" fill="#030104"/>
</svg>
