<svg width="16" height="16" viewBox="0 0 16 16" fill="none" xmlns="http://www.w3.org/2000/svg">
<path d="M7.52891 13.1381C7.52903 13.1382 7.52916 13.1383 7.52928 13.1384C7.54469 13.1538 7.56091 13.1684 7.57775 13.1822C7.58547 13.1886 7.59363 13.1941 7.60156 13.2C7.61103 13.2071 7.62031 13.2145 7.63016 13.2211C7.63966 13.2274 7.6495 13.2329 7.65925 13.2387C7.66819 13.2441 7.67691 13.2497 7.68609 13.2546C7.69603 13.2599 7.70625 13.2644 7.71641 13.2692C7.72597 13.2737 7.73541 13.2785 7.74522 13.2825C7.75506 13.2866 7.76512 13.2899 7.77513 13.2935C7.78566 13.2972 7.79603 13.3013 7.80678 13.3045C7.81678 13.3076 7.82694 13.3098 7.83706 13.3123C7.84803 13.3151 7.85887 13.3182 7.87006 13.3204C7.88178 13.3227 7.89359 13.3241 7.90538 13.3258C7.91509 13.3271 7.92469 13.329 7.93453 13.33C7.97828 13.3343 8.02237 13.3343 8.06612 13.33C8.07597 13.329 8.08556 13.3272 8.09528 13.3258C8.10706 13.3241 8.11888 13.3227 8.13059 13.3204C8.14178 13.3182 8.15263 13.3151 8.16359 13.3123C8.17369 13.3098 8.18387 13.3076 8.19387 13.3045C8.20462 13.3013 8.21503 13.2972 8.22553 13.2935C8.23553 13.2899 8.24559 13.2866 8.25544 13.2825C8.26525 13.2785 8.27469 13.2737 8.28425 13.2692C8.29441 13.2644 8.30463 13.2599 8.31456 13.2546C8.32375 13.2497 8.33247 13.244 8.34141 13.2387C8.35116 13.2329 8.361 13.2274 8.3705 13.2211C8.38034 13.2145 8.38962 13.2071 8.39909 13.2C8.40703 13.1941 8.41519 13.1886 8.42291 13.1822C8.43975 13.1684 8.45597 13.1538 8.47137 13.1384C8.4715 13.1383 8.47162 13.1382 8.47175 13.1381L13.1384 8.47141C13.3988 8.21106 13.3988 7.78894 13.1384 7.52859C12.8781 7.26825 12.4559 7.26825 12.1956 7.52859L8.66697 11.0572V0.666656C8.66697 0.298469 8.3685 0 8.00031 0C7.63212 0 7.33366 0.298469 7.33366 0.666656V11.0572L3.80506 7.52859C3.54472 7.26825 3.12259 7.26825 2.86225 7.52859C2.60191 7.78894 2.60191 8.21106 2.86225 8.47141L7.52891 13.1381Z" fill="#161617"/>
<path d="M12.667 14.6665H3.33365C2.96546 14.6665 2.66699 14.965 2.66699 15.3332C2.66699 15.7013 2.96546 15.9998 3.33365 15.9998H12.667C13.0352 15.9998 13.3336 15.7014 13.3336 15.3332C13.3336 14.965 13.0351 14.6665 12.667 14.6665Z" fill="#161617"/>
</svg>
