<svg width="30" height="28" viewBox="0 0 30 28" fill="none" xmlns="http://www.w3.org/2000/svg">
<path d="M29.4973 21.0031C18.2262 2.12698 18.7616 3.02361 18.7412 2.98955C17.9883 1.58956 16.5914 0.754517 14.9999 0.754517C13.4084 0.754517 12.0114 1.58956 11.2586 2.98955C11.2386 3.02296 11.795 2.0911 0.502459 21.0031C-1.00053 23.8322 1.04882 27.2453 4.25472 27.2453H25.7451C28.9487 27.2454 31.0014 23.8343 29.4973 21.0031ZM25.7451 25.4808H4.25466C2.38888 25.4808 1.18999 23.5018 2.05115 21.8491C2.07085 21.8162 1.51784 22.7423 12.806 3.83783C13.7415 2.07664 16.2586 2.07746 17.1938 3.83783C28.465 22.7139 27.9282 21.815 27.9486 21.8491C28.8104 23.503 27.6094 25.4808 25.7451 25.4808Z" fill="white"/>
<path d="M14.1182 7.83533H15.8827V19.3049H14.1182V7.83533Z" fill="white"/>
<path d="M14.1182 21.0695H15.8827V22.834H14.1182V21.0695Z" fill="white"/>
</svg>
