<svg width="32" height="32" viewBox="0 0 32 32" fill="none" xmlns="http://www.w3.org/2000/svg">
<path fill-rule="evenodd" clip-rule="evenodd" d="M0.666016 7.80985C0.666016 6.0875 2.0366 4.66699 3.75692 4.66699H25.5751C27.2955 4.66699 28.666 6.0875 28.666 7.80985V14.667C28.666 15.0351 28.3675 15.3337 27.9993 15.3337C27.6312 15.3337 27.3327 15.0351 27.3327 14.667V7.80985C27.3327 6.79709 26.5326 6.00033 25.5751 6.00033H3.75692C2.7995 6.00033 1.99935 6.79709 1.99935 7.80985V20.1909C1.99935 21.2035 2.7995 22.0003 3.75692 22.0003H13.3327C13.7008 22.0003 13.9993 22.2989 13.9993 22.667C13.9993 23.0351 13.7008 23.3337 13.3327 23.3337H3.75692C2.0366 23.3337 0.666016 21.9131 0.666016 20.1909V7.80985Z" fill="black"/>
<path fill-rule="evenodd" clip-rule="evenodd" d="M0.666016 9.33366C0.666016 8.96547 0.964493 8.66699 1.33268 8.66699H27.9993C28.3675 8.66699 28.666 8.96547 28.666 9.33366C28.666 9.70185 28.3675 10.0003 27.9993 10.0003H1.33268C0.964493 10.0003 0.666016 9.70185 0.666016 9.33366Z" fill="black"/>
<path fill-rule="evenodd" clip-rule="evenodd" d="M3.33203 16.0006C3.33203 15.6325 3.63051 15.334 3.9987 15.334H6.66536C7.03355 15.334 7.33203 15.6325 7.33203 16.0006C7.33203 16.3688 7.03355 16.6673 6.66536 16.6673H3.9987C3.63051 16.6673 3.33203 16.3688 3.33203 16.0006Z" fill="black"/>
<path fill-rule="evenodd" clip-rule="evenodd" d="M3.33203 19.3337C3.33203 18.9655 3.63051 18.667 3.9987 18.667H9.33203C9.70022 18.667 9.9987 18.9655 9.9987 19.3337C9.9987 19.7018 9.70022 20.0003 9.33203 20.0003H3.9987C3.63051 20.0003 3.33203 19.7018 3.33203 19.3337Z" fill="black"/>
<path fill-rule="evenodd" clip-rule="evenodd" d="M23.9993 18.0003C20.6856 18.0003 17.9993 20.6866 17.9993 24.0003C17.9993 27.314 20.6856 30.0003 23.9993 30.0003C27.3131 30.0003 29.9993 27.314 29.9993 24.0003C29.9993 20.6866 27.3131 18.0003 23.9993 18.0003ZM16.666 24.0003C16.666 19.9502 19.9492 16.667 23.9993 16.667C28.0495 16.667 31.3327 19.9502 31.3327 24.0003C31.3327 28.0504 28.0495 31.3336 23.9993 31.3336C19.9492 31.3336 16.666 28.0504 16.666 24.0003Z" fill="black"/>
<path fill-rule="evenodd" clip-rule="evenodd" d="M26.1939 22.8622C26.4543 22.6019 26.8764 22.6019 27.1368 22.8622C27.3971 23.1226 27.3971 23.5447 27.1368 23.8051L24.4702 26.4718C24.2098 26.7321 23.7876 26.7321 23.5272 26.4718L21.5272 24.4718C21.267 24.2114 21.267 23.7893 21.5272 23.5289C21.7876 23.2686 22.2098 23.2686 22.4702 23.5289L23.9987 25.0575L26.1939 22.8622Z" fill="black"/>
</svg>
