<svg width="108" height="80" viewBox="0 0 108 80" fill="none" xmlns="http://www.w3.org/2000/svg">
    <defs>
        <linearGradient id="paint0_linear" x1="53.9432" y1="0" x2="53.9432" y2="47.9967"
            gradientUnits="userSpaceOnUse">
            <stop stop-color="#FFD12F" />
            <stop offset="1" stop-color="#FFC149" />
        </linearGradient>
    </defs>
    <path
        d="M25.3052 15.2487C25.3052 8.0604 25.3052 4.46625 27.5383 2.23312C29.7714 0 33.3656 0 40.5539 0H60.3241C64.7034 0 66.8931 0 68.684 1.05481C70.4749 2.10961 71.5367 4.02465 73.6602 7.85473L78.4908 16.5674C80.4905 20.1742 81.4904 21.9777 81.4923 23.946C81.4941 25.9144 80.4977 27.7197 78.5047 31.3303L73.6548 40.1168C71.5341 43.9588 70.4738 45.8797 68.6805 46.9382C66.8873 47.9967 64.6931 47.9967 60.3047 47.9967H40.5539C33.3656 47.9967 29.7714 47.9967 27.5383 45.7635C25.3052 43.5304 25.3052 39.9362 25.3052 32.7479V15.2487Z"
        fill="url(#paint0_linear)" />
    <path
        d="M64.8377 35.6631L57.3542 27.0917C61.3761 26.3664 64.1454 23.9268 64.1454 19.9378C64.1454 15.1576 60.1893 12.5862 54.8157 12.5862H39.1234V35.6631H43.0794V27.2895H52.8047L59.9586 35.6631H64.8377ZM43.0465 23.8939V16.0477H54.552C57.8487 16.0477 60.0904 17.1027 60.0904 19.9708C60.0904 22.8389 57.8487 23.8939 54.552 23.8939H43.0465Z"
        fill="#212121" />
    <path
        d="M14.8302 79.5863L10.8498 73.3687C12.9941 72.62 14.2653 71.0032 14.2653 68.9524C14.2653 67.4876 13.6618 66.3048 12.4677 65.4042C11.2607 64.5036 9.68138 64.0478 7.74253 64.0478H0V79.608H3.68509V73.8679H7.21609L10.7728 79.5863H14.8302ZM7.74253 66.7606C8.64134 66.7606 9.36038 66.9667 9.88682 67.3899C10.4133 67.8131 10.6701 68.3231 10.6701 68.9307C10.6701 69.5275 10.4133 70.0484 9.88682 70.4716C9.36038 70.8947 8.65418 71.1118 7.74253 71.1118H3.68509V66.7606H7.74253Z"
        fill="white" />
    <path
        d="M25.0617 79.8793C27.925 79.8793 30.1977 79.1631 31.8926 77.7199C33.5746 76.2768 34.4221 74.3562 34.4221 71.9364C34.4991 67.162 30.7113 63.8525 25.0617 63.8959C19.4121 63.8417 15.6371 67.162 15.7013 71.9364C15.7013 74.3562 16.5487 76.2768 18.2308 77.7199C19.9128 79.1631 22.1983 79.8793 25.0617 79.8793ZM25.0617 76.9387C23.4181 76.9387 22.1213 76.5155 21.1711 75.6583C20.2081 74.8011 19.7331 73.5641 19.7331 71.9473C19.7331 70.3196 20.221 69.0609 21.184 68.1603C22.147 67.2705 23.4438 66.8257 25.0617 66.8257C26.6667 66.8257 27.9635 67.2705 28.9265 68.1603C29.8895 69.0609 30.3646 70.3196 30.3646 71.9473C30.3646 73.5641 29.8895 74.8011 28.9265 75.6583C27.9635 76.5155 26.6795 76.9387 25.0617 76.9387Z"
        fill="white" />
    <path
        d="M49.109 73.8787L39.235 64.0478H36.5129V79.608H40.198V69.7662L50.0591 79.608H52.7941V64.0478H49.109V73.8787Z"
        fill="white" />
    <path
        d="M72.694 79.608L65.2725 64.0478H62.2551L54.3328 79.608H58.4673L59.8155 76.7H67.3012L68.5596 79.608H72.694ZM63.706 68.3339L66.2227 74.1717H60.9968L63.706 68.3339Z"
        fill="white" />
    <path
        d="M89.0887 79.5863L85.1083 73.3687C87.2526 72.62 88.5237 71.0032 88.5237 68.9524C88.5237 67.4876 87.9203 66.3048 86.7261 65.4042C85.5192 64.5036 83.9399 64.0478 82.001 64.0478H74.2585V79.608H77.9436V73.8679H81.4746L85.0313 79.5863H89.0887ZM82.001 66.7606C82.8998 66.7606 83.6189 66.9667 84.1453 67.3899C84.6717 67.8131 84.9285 68.3231 84.9285 68.9307C84.9285 69.5275 84.6717 70.0484 84.1453 70.4716C83.6189 70.8947 82.9127 71.1118 82.001 71.1118H77.9436V66.7606H82.001Z"
        fill="white" />
    <path
        d="M103.275 64.0478L98.7038 69.9833L94.0686 64.0478H89.3434L96.842 72.8696V79.608H100.527V72.9239L108 64.0478H103.275Z"
        fill="white" />
</svg>
