<svg width="40" height="40" viewBox="0 0 40 40" fill="none" xmlns="http://www.w3.org/2000/svg">
<path d="M25.5965 5.70825H14.404C13.599 5.70914 12.8272 6.02932 12.258 6.59854C11.6887 7.16776 11.3686 7.93953 11.3677 8.74453V31.2555C11.3686 32.0605 11.6887 32.8323 12.258 33.4015C12.8272 33.9707 13.599 34.2909 14.404 34.2918H25.5965C26.4015 34.2909 27.1732 33.9707 27.7425 33.4015C28.3117 32.8323 28.6319 32.0605 28.6328 31.2555V8.74453C28.6319 7.93953 28.3117 7.16776 27.7425 6.59854C27.1732 6.02932 26.4015 5.70914 25.5965 5.70825ZM23.44 6.77822V7.40798C23.44 7.64311 23.3466 7.8686 23.1804 8.03486C23.0141 8.20112 22.7886 8.29453 22.5535 8.29453H17.4457C17.2106 8.29453 16.9851 8.20112 16.8188 8.03486C16.6526 7.8686 16.5592 7.64311 16.5592 7.40798V6.77822H23.44ZM27.5628 31.2555C27.5622 31.7769 27.3549 32.2767 26.9862 32.6453C26.6176 33.0139 26.1178 33.2213 25.5965 33.2218H14.404C13.8826 33.2213 13.3828 33.0139 13.0142 32.6453C12.6456 32.2767 12.4382 31.7769 12.4376 31.2555V8.74453C12.4382 8.22321 12.6456 7.7234 13.0142 7.35477C13.3828 6.98614 13.8826 6.77879 14.404 6.77822H15.4898V7.40798C15.4902 7.92676 15.6965 8.42417 16.0633 8.791C16.4302 9.15783 16.9276 9.3641 17.4463 9.3645H22.5538C23.0725 9.36402 23.5699 9.15773 23.9367 8.79091C24.3035 8.4241 24.5098 7.92673 24.5103 7.40798V6.77822H25.5968C26.1181 6.77879 26.6179 6.98614 26.9865 7.35477C27.3552 7.7234 27.5625 8.22321 27.5631 8.74453L27.5628 31.2555Z" fill="black" stroke="black" stroke-width="0.5"/>
<path d="M23.9746 29.6486H16.0262C15.8843 29.6486 15.7482 29.7049 15.6479 29.8053C15.5476 29.9056 15.4912 30.0417 15.4912 30.1835C15.4912 30.3254 15.5476 30.4615 15.6479 30.5618C15.7482 30.6622 15.8843 30.7185 16.0262 30.7185H23.9746C24.1165 30.7185 24.2525 30.6622 24.3529 30.5618C24.4532 30.4615 24.5096 30.3254 24.5096 30.1835C24.5096 30.0417 24.4532 29.9056 24.3529 29.8053C24.2525 29.7049 24.1165 29.6486 23.9746 29.6486Z" fill="black"/>
</svg>
