<svg width="30" height="30" viewBox="0 0 30 30" fill="none" xmlns="http://www.w3.org/2000/svg">
<g clip-path="url(#clip0)">
<path d="M29.9999 8.12484C29.9999 7.25349 29.6576 6.46113 29.1011 5.87326C29.0841 5.85369 29.0663 5.83517 29.0479 5.81748C28.4536 5.2183 27.6302 4.84647 26.7216 4.84647H3.27831C1.47064 4.84647 0 6.31717 0 8.12484V21.8754C0 22.7451 0.341074 23.5362 0.895662 24.1237C0.897069 24.1253 0.898182 24.1271 0.899588 24.1288C0.92367 24.1568 0.949393 24.1824 0.976053 24.2066C1.56849 24.7917 2.38183 25.1538 3.27837 25.1538H26.7217C27.5809 25.1538 28.3635 24.8211 28.9488 24.2783C29.0094 24.2364 29.0663 24.1872 29.1166 24.1287C29.1432 24.0978 29.1663 24.0651 29.1879 24.0318C29.6929 23.4549 30.0001 22.7005 30.0001 21.8754V8.12484H29.9999ZM3.27831 6.60457H26.7216V6.60451C26.7382 6.60451 26.7546 6.60521 26.771 6.60574L15.5449 15.0538C15.2202 15.2919 14.7851 15.2919 14.4603 15.0538L3.23408 6.60568C3.24878 6.60527 3.26349 6.60457 3.27831 6.60457ZM1.75804 21.8754V8.12484C1.75804 7.9896 1.77603 7.85853 1.80931 7.73367L10.7698 14.4769L1.79332 22.2002C1.77047 22.0954 1.75804 21.9869 1.75804 21.8754ZM26.7216 23.3957H3.27831C3.22148 23.3957 3.16546 23.3923 3.11027 23.3863L12.2077 15.5588L13.4072 16.4615L13.4136 16.4663C13.8889 16.8172 14.4456 16.9925 15.0026 16.9925C15.5594 16.9925 16.1165 16.8171 16.5916 16.4663L17.8033 15.5545L26.9037 23.3844C26.844 23.3916 26.7833 23.3957 26.7216 23.3957ZM28.2419 21.8754C28.2419 21.9828 28.2306 22.0875 28.2093 22.1886L19.2412 14.4724L28.1916 7.73689C28.2243 7.86076 28.2419 7.99078 28.2419 8.12484V21.8754Z" fill="#161617"/>
</g>
<defs>
<clipPath id="clip0">
<rect width="30" height="30" fill="white"/>
</clipPath>
</defs>
</svg>
