<svg width="28" height="28" viewBox="0 0 28 28" fill="none" xmlns="http://www.w3.org/2000/svg">
<path d="M24.6522 6.6957H21.7304L20.1174 4.26092C19.5087 3.34787 18.4435 2.80005 17.3478 2.80005H10.6522C9.55652 2.80005 8.4913 3.34787 7.88261 4.26092L6.26957 6.6957H3.34783C1.4913 6.6957 0 8.18701 0 10.0435V21.8522C0 23.7087 1.4913 25.2 3.34783 25.2H24.6522C26.5087 25.2 28 23.7087 28 21.8522V10.0435C28 8.18701 26.5087 6.6957 24.6522 6.6957ZM14 22.4609C9.83043 22.4609 6.45217 19.0827 6.45217 14.9131C6.45217 10.7435 9.83043 7.3957 14 7.3957C18.1696 7.3957 21.5478 10.774 21.5478 14.9435C21.5478 19.0827 18.1696 22.4609 14 22.4609ZM24.2261 11.4131C24.1957 11.4131 24.1652 11.4131 24.1043 11.4131H22.887C22.3391 11.3827 21.913 10.9261 21.9435 10.3783C21.9739 9.86092 22.3696 9.46527 22.887 9.43483H24.1043C24.6522 9.4044 25.1087 9.83048 25.1391 10.3783C25.1696 10.9261 24.7739 11.3827 24.2261 11.4131Z" fill="black"/>
<path d="M13.9997 10.7434C11.6866 10.7434 9.79968 12.6304 9.79968 14.9434C9.79968 17.2565 11.6866 19.113 13.9997 19.113C16.3127 19.113 18.1997 17.226 18.1997 14.913C18.1997 12.5999 16.3127 10.7434 13.9997 10.7434Z" fill="black"/>
</svg>
