<svg width="36" height="31" viewBox="0 0 36 31" fill="none" xmlns="http://www.w3.org/2000/svg">
<path d="M0 10.1343C0 5.62406 0 3.36895 1.40115 1.9678C2.8023 0.56665 5.05741 0.56665 9.56764 0.56665H21.9722C24.72 0.56665 26.0939 0.56665 27.2176 1.22848C28.3413 1.8903 29.0074 3.09187 30.3398 5.49501L33.3707 10.9617C34.6254 13.2248 35.2528 14.3563 35.254 15.5913C35.2551 16.8263 34.6299 17.959 33.3794 20.2245L30.3364 25.7375C29.0058 28.1481 28.3405 29.3534 27.2154 30.0175C26.0902 30.6816 24.7135 30.6816 21.9601 30.6816H9.56765C5.05742 30.6816 2.8023 30.6816 1.40115 29.2805C0 27.8793 0 25.6242 0 21.114V10.1343Z" fill="#FFC700"/>
<path d="M24.8041 22.865L20.1087 17.4869C22.6322 17.0319 24.3697 15.5012 24.3697 12.9984C24.3697 9.99906 21.8876 8.38565 18.516 8.38565H8.67V22.865H11.1522V17.6111H17.2542L21.7428 22.865H24.8041ZM11.1315 15.4805V10.5575H18.3505C20.419 10.5575 21.8255 11.2195 21.8255 13.019C21.8255 14.8186 20.419 15.4805 18.3505 15.4805H11.1315Z" fill="#20303C"/>
</svg>
