<svg width="31" height="31" viewBox="0 0 31 31" fill="none" xmlns="http://www.w3.org/2000/svg">
<path d="M15.667 0.333344C11.072 0.333344 7.33366 3.87492 7.33366 8.22808C7.33366 12.5812 11.072 16.1228 15.667 16.1228C20.262 16.1228 24.0003 12.5812 24.0003 8.22808C24.0003 3.87492 20.262 0.333344 15.667 0.333344ZM15.667 12.9649C12.9103 12.9649 10.667 10.8397 10.667 8.22808C10.667 5.6165 12.9103 3.49124 15.667 3.49124C18.4237 3.49124 20.667 5.6165 20.667 8.22808C20.667 10.8397 18.4237 12.9649 15.667 12.9649ZM30.667 30.3333V28.7544C30.667 22.6612 25.432 17.7018 19.0003 17.7018H12.3337C5.90033 17.7018 0.666992 22.6612 0.666992 28.7544V30.3333H4.00033V28.7544C4.00033 24.4012 7.73866 20.8597 12.3337 20.8597H19.0003C23.5953 20.8597 27.3337 24.4012 27.3337 28.7544V30.3333H30.667Z" fill="white"/>
</svg>
