<svg width="14" height="17" viewBox="0 0 14 17" fill="none" xmlns="http://www.w3.org/2000/svg">
<path fill-rule="evenodd" clip-rule="evenodd" d="M2 1H12C12.5523 1 13 1.44772 13 2V12.5L14 11.5V2C14 0.895431 13.1046 0 12 0H2C0.895431 0 0 0.89543 0 2V15C0 16.1046 0.89543 17 2 17H8.5L9.5 16H2C1.44772 16 1 15.5523 1 15V2C1 1.44772 1.44772 1 2 1Z" fill="black"/>
<path d="M8.85 11.85H13.155L11.2525 13.7525L8.85 16.155V11.85Z" stroke="black" stroke-width="0.7"/>
<path d="M6.79417 10H7.23301V9.41801C8.2233 9.35566 9 8.8776 9 8.0254C9 7.28753 8.44078 6.91339 7.41942 6.70208L7.23301 6.66051V5.21594C7.7301 5.27136 8.07961 5.52425 8.1301 5.96074H8.93786C8.9068 5.17436 8.20388 4.65473 7.23301 4.58545V4H6.79417V4.58545C5.81553 4.65127 5.1165 5.16051 5.1165 5.93995C5.1165 6.64319 5.64854 7.03811 6.63495 7.24249L6.79417 7.27714V8.78753C6.16893 8.7321 5.87379 8.43072 5.80388 8.0254H5C5.02718 8.85681 5.80777 9.35219 6.79417 9.41801V10ZM5.93981 5.88106C5.93981 5.56236 6.23495 5.27483 6.79417 5.21594V6.57044C6.17282 6.42841 5.93981 6.1963 5.93981 5.88106ZM8.1767 8.09469C8.1767 8.46536 7.89709 8.74596 7.23301 8.79099V7.37067C7.95534 7.52309 8.1767 7.73441 8.1767 8.09469Z" fill="black"/>
</svg>
