<svg width="18" height="18" viewBox="0 0 18 18" fill="none" xmlns="http://www.w3.org/2000/svg">
<path fill-rule="evenodd" clip-rule="evenodd" d="M1 12V17H17V12H18V17C18 17.5523 17.5523 18 17 18H1C0.447716 18 0 17.5523 0 17V12H1Z" fill="#212121"/>
<path d="M8.64645 13.3536C8.84171 13.5488 9.15829 13.5488 9.35355 13.3536L12.5355 10.1716C12.7308 9.97631 12.7308 9.65973 12.5355 9.46447C12.3403 9.2692 12.0237 9.2692 11.8284 9.46447L9 12.2929L6.17157 9.46447C5.97631 9.2692 5.65973 9.2692 5.46447 9.46447C5.2692 9.65973 5.2692 9.97631 5.46447 10.1716L8.64645 13.3536ZM8.5 0V13H9.5V0L8.5 0Z" fill="#212121"/>
</svg>
