<svg width="24" height="24" viewBox="0 0 24 24" fill="none" xmlns="http://www.w3.org/2000/svg">
<path d="M12 6C10.162 6 8.66667 7.41663 8.66667 9.15789C8.66667 10.8992 10.162 12.3158 12 12.3158C13.838 12.3158 15.3333 10.8992 15.3333 9.15789C15.3333 7.41663 13.838 6 12 6ZM12 11.0526C10.8973 11.0526 10 10.2025 10 9.15789C10 8.11326 10.8973 7.26316 12 7.26316C13.1027 7.26316 14 8.11326 14 9.15789C14 10.2025 13.1027 11.0526 12 11.0526ZM18 18V17.3684C18 14.9312 15.906 12.9474 13.3333 12.9474H10.6667C8.09333 12.9474 6 14.9312 6 17.3684V18H7.33333V17.3684C7.33333 15.6272 8.82867 14.2105 10.6667 14.2105H13.3333C15.1713 14.2105 16.6667 15.6272 16.6667 17.3684V18H18Z" fill="#ADAEAF"/>
</svg>
