<svg width="24" height="24" viewBox="0 0 24 24" fill="none" xmlns="http://www.w3.org/2000/svg">
<path d="M10.7085 18.8849C12.0198 18.3403 11.7325 16.8388 11.0695 15.8897C10.4138 14.9172 9.50772 14.2482 8.59422 13.6024C7.94593 13.1668 7.34921 12.6222 6.87036 11.9998C6.66408 11.7431 6.24417 11.2685 6.67145 11.1752C7.1061 11.0818 7.85752 11.533 8.2406 11.7042C8.911 11.9998 9.57402 12.3421 10.1928 12.7467L10.9369 11.4241C9.78766 10.6228 8.31427 9.91485 6.94403 9.7048C6.16313 9.58032 5.33804 9.75147 5.07283 10.6461C4.83709 11.4163 5.2128 12.1943 5.64008 12.8011C6.64935 14.2248 8.2185 14.9094 9.38985 16.1386C9.64032 16.3954 9.94236 16.6988 10.0897 17.0566C10.2444 17.399 10.2076 17.4223 9.86133 17.4223C8.94783 17.4223 7.80596 16.6677 7.0619 16.1698L6.31784 17.4923C7.44498 18.2236 9.33091 19.3672 10.7085 18.8849ZM18.8784 6.7485C19.0405 6.57734 19.0405 6.29727 18.8784 6.1339L17.9207 5.12253C17.766 4.95916 17.5008 4.95916 17.3461 5.12253L16.5947 5.91606L18.127 7.53425L18.8784 6.7485ZM11.6294 11.1596V12.7778H13.1617L17.6924 7.99325L16.16 6.37507L11.6294 11.1596Z" fill="#292929"/>
</svg>
