<svg width="24" height="24" viewBox="0 0 24 24" fill="none" xmlns="http://www.w3.org/2000/svg">
<path d="M11 5C9.162 5 7.66667 6.54542 7.66667 8.44498C7.66667 10.3445 9.162 11.89 11 11.89C12.838 11.89 14.3333 10.3445 14.3333 8.44498C14.3333 6.54542 12.838 5 11 5ZM11 10.512C9.89733 10.512 9 9.58457 9 8.44498C9 7.30538 9.89733 6.37799 11 6.37799C12.1027 6.37799 13 7.30538 13 8.44498C13 9.58457 12.1027 10.512 11 10.512ZM17 18.0909V17.4019C17 14.7431 14.906 12.5789 12.3333 12.5789H9.66667C7.09333 12.5789 5 14.7431 5 17.4019V18.0909H6.33333V17.4019C6.33333 15.5024 7.82867 13.9569 9.66667 13.9569H12.3333C14.1713 13.9569 15.6667 15.5024 15.6667 17.4019V18.0909H17Z" fill="#ADAEAF"/>
<path d="M18 8L18.6735 10.0729H20.8532L19.0898 11.3541L19.7634 13.4271L18 12.1459L16.2366 13.4271L16.9102 11.3541L15.1468 10.0729H17.3265L18 8Z" fill="#ADAEAF"/>
</svg>
