<svg width="24" height="24" viewBox="0 0 24 24" fill="none" xmlns="http://www.w3.org/2000/svg">
<path d="M19.9 15.6C21.25 13.9 23 11.55 23 7.5C23 7.2 22.8 7 22.5 7C22.2 7 22 7.2 22 7.5C22 10.85 20.75 12.85 19.5 14.45C19.2 13.5 19 12.35 19 11C19 10.75 18.8 10.5 18.5 10.5C18.25 10.5 18 10.7 18 11C17.95 11.85 17.7 12.8 17.5 12.9C17.3 12.9 17.05 12.2 17 11.5C17 11.25 16.75 11.05 16.5 11.05C16.25 11.05 16 11.2 16 11.5C15.85 12.35 15.45 13.55 15 13.55C14.8 13.55 14.7 13.5 14.65 13.4C14.5 13.25 14.45 12.9 14.45 12.6C14.45 12.4 14.5 12.2 14.5 12C14.5 11.75 14.3 11.5 14.05 11.5C13.8 11.5 13.55 11.65 13.5 11.9C13.5 11.95 13.45 12.15 13.45 12.45C13.35 13.3 13.05 15 12 15C11.65 15 11.45 14.9 11.3 14.65C11.05 14.25 11.05 13.6 11.3 13V12.95C11.35 12.9 11.35 12.8 11.4 12.75C11.8 11.95 12.25 11.5 13 11.5C13.3 11.5 13.5 11.3 13.5 11C13.5 10.7 13.3 10.5 13 10.5C10.9 10.5 10.3 12.55 9.7 14.5C9 16.9 8.35 18.5 6.5 18.5C3.95 18.5 3 15.2 3 13C3 8.7 5.35 6 7.5 6C8.95 6 9.5 7.15 9.55 7.2C9.65 7.45 9.95 7.55 10.2 7.45C10.45 7.35 10.55 7.05 10.45 6.8C10.4 6.7 9.6 5 7.5 5C4.8 5 2 8 2 13C2 18.15 4.95 19.5 6.5 19.5C9.05 19.5 9.9 17.25 10.55 15.25C10.9 15.7 11.4 16 12 16C13.1 16 13.75 15.2 14.1 14.2C14.35 14.4 14.65 14.5 15 14.5C15.7 14.5 16.2 13.9 16.5 13.3C16.7 13.65 17.05 13.9 17.5 13.9C17.8 13.9 18.05 13.75 18.25 13.55C18.4 14.25 18.6 14.9 18.75 15.45C18.05 16.35 17.5 17.1 17.5 18C17.5 18.85 18.15 19.5 19 19.5C19.9 19.5 20.5 18.7 20.5 18C20.5 17.35 20.25 16.65 19.95 15.85C19.95 15.75 19.9 15.7 19.9 15.6ZM19 18.5C18.65 18.5 18.5 18.25 18.5 18C18.5 17.55 18.75 17.1 19.15 16.55C19.35 17.15 19.5 17.6 19.5 18C19.5 18.15 19.35 18.5 19 18.5Z" fill="#212121"/>
</svg>
