<svg width="24" height="24" viewBox="0 0 24 24" fill="none" xmlns="http://www.w3.org/2000/svg">
<path fill-rule="evenodd" clip-rule="evenodd" d="M7.35731 19.3109L8.02878 18.633L6.68585 17.2772L8.02878 15.9214L7.35731 15.2435L6.01439 16.5993L4.67146 15.2435L4 15.9214L5.34293 17.2772L4 18.633L4.67146 19.3109L6.01439 17.9551L7.35731 19.3109ZM15.5683 13.9458C16.9496 14.6624 17.6403 15.2919 17.6403 15.8536C17.3909 16.3185 16.7194 16.7155 15.6355 17.0254C14.5516 17.345 13.5444 17.5 12.6043 17.5L11.9137 17.3741L11.1942 17.2482C10.8681 17.2482 10.5516 17.3256 10.235 17.4806C9.93765 17.6355 9.7554 17.8583 9.7554 18.2069C9.7554 19.1463 10.4748 19.6208 11.8561 19.6208C13.4964 19.6208 15.223 19.2528 17.0264 18.5071C18.8393 17.7711 19.741 16.7349 19.741 15.4372C19.741 14.7109 19.4436 14.0911 18.8681 13.5681C18.2542 13.0161 17.458 12.5319 16.47 12.0767C15.2326 11.4957 14.3789 11.0018 13.8993 10.595C13.4197 10.2077 13.1894 9.76217 13.1894 9.26827C13.1894 8.45479 13.8705 7.72847 15.2326 7.0893C16.6043 6.44045 17.506 6.12087 17.9568 6.12087L18.5132 6.37266C18.801 6.55666 18.9928 6.65351 19.0983 6.65351C19.223 6.65351 19.4149 6.55666 19.6451 6.36298C19.8849 6.15961 20 5.92718 20 5.65602C20 5.04591 19.8273 4.6198 19.5204 4.37769C19.2038 4.1259 18.6859 4 17.976 4C16.8825 4 15.4532 4.57138 13.7074 5.70444C11.9616 6.83751 11.0887 8.2611 11.0887 9.98491C11.0887 10.6531 11.3957 11.2536 12.0192 11.7959C12.6331 12.3285 13.813 13.0548 15.5683 13.9458Z" fill="#8C93A0"/>
</svg>
