<svg width="24" height="24" viewBox="0 0 24 24" fill="none" xmlns="http://www.w3.org/2000/svg">
<path d="M14.9163 20H12.3078L11.2709 17.4749H6.52385L5.54365 20H3L7.62556 8.88341H10.1611L14.9163 20ZM10.5014 15.6019L8.86499 11.4768L7.26103 15.6019H10.5014Z" fill="#8C93A0"/>
<path d="M15.2241 6.63886L13.1584 6.29005C13.3906 5.51153 13.7903 4.93523 14.3573 4.56114C14.9244 4.18705 15.7669 4 16.8848 4C17.9001 4 18.6562 4.11374 19.153 4.34123C19.6499 4.56367 19.9982 4.84929 20.198 5.1981C20.4032 5.54186 20.5059 6.1763 20.5059 7.10142L20.4815 9.58863C20.4815 10.2964 20.5167 10.8196 20.5869 11.1583C20.6625 11.4919 20.8002 11.8509 21 12.2351H18.748C18.6886 12.0935 18.6157 11.8837 18.5293 11.6057C18.4915 11.4793 18.4644 11.3959 18.4482 11.3555C18.0594 11.7093 17.6436 11.9747 17.2007 12.1517C16.7579 12.3286 16.2853 12.4171 15.7831 12.4171C14.8974 12.4171 14.198 12.1921 13.685 11.7422C13.1773 11.2923 12.9235 10.7235 12.9235 10.036C12.9235 9.58104 13.0396 9.17662 13.2718 8.82275C13.5041 8.46382 13.8281 8.19084 14.2439 8.00379C14.6652 7.81169 15.27 7.64487 16.0585 7.50332C17.1224 7.31627 17.8596 7.14186 18.27 6.98009V6.76777C18.27 6.35829 18.162 6.06761 17.946 5.89573C17.73 5.7188 17.3222 5.63033 16.7228 5.63033C16.3177 5.63033 16.0018 5.70616 15.775 5.85782C15.5482 6.00442 15.3645 6.26477 15.2241 6.63886ZM18.27 8.36777C17.9784 8.45877 17.5167 8.56746 16.8848 8.69384C16.2529 8.82022 15.8398 8.94408 15.6454 9.0654C15.3483 9.26256 15.1998 9.5128 15.1998 9.81611C15.1998 10.1144 15.3186 10.3722 15.5563 10.5896C15.7939 10.807 16.0963 10.9156 16.4635 10.9156C16.874 10.9156 17.2655 10.7893 17.6382 10.5365C17.9136 10.3444 18.0945 10.1093 18.1809 9.83128C18.2403 9.64929 18.27 9.303 18.27 8.79242V8.36777Z" fill="#8C93A0"/>
</svg>
