<svg width="128" height="41" viewBox="0 0 128 41" fill="none" xmlns="http://www.w3.org/2000/svg">
<path d="M17.506 18.9457L12.8074 11.6063C15.3386 10.7225 16.8391 8.81403 16.8391 6.39319C16.8391 4.66403 16.1267 3.26788 14.7172 2.20476C13.2924 1.14164 11.4282 0.603679 9.13949 0.603679H0V18.9713H4.34997V12.1955H8.51807L12.7165 18.9457H17.506ZM9.13949 3.80584C10.2005 3.80584 11.0492 4.04921 11.6707 4.54875C12.2921 5.04829 12.5952 5.65029 12.5952 6.36758C12.5952 7.07205 12.2921 7.68687 11.6707 8.18641C11.0492 8.68595 10.2156 8.94212 9.13949 8.94212H4.34997V3.80584H9.13949Z" fill="black"/>
<path d="M29.5835 19.2915C32.9634 19.2915 35.6461 18.4461 37.6468 16.7426C39.6324 15.039 40.6327 12.7719 40.6327 9.91558C40.7236 4.27977 36.2524 0.373123 29.5835 0.424357C22.9145 0.360314 18.4584 4.27977 18.5342 9.91558C18.5342 12.7719 19.5346 15.039 21.5201 16.7426C23.5056 18.4461 26.2035 19.2915 29.5835 19.2915ZM29.5835 15.8204C27.6434 15.8204 26.1126 15.3208 24.991 14.3089C23.8542 13.2971 23.2934 11.8369 23.2934 9.92839C23.2934 8.00709 23.8694 6.52128 25.0061 5.45816C26.1429 4.40785 27.6737 3.8827 29.5835 3.8827C31.478 3.8827 33.0089 4.40785 34.1456 5.45816C35.2824 6.52128 35.8432 8.00709 35.8432 9.92839C35.8432 11.8369 35.2824 13.2971 34.1456 14.3089C33.0089 15.3208 31.4932 15.8204 29.5835 15.8204Z" fill="black"/>
<path d="M57.9695 12.2083L46.314 0.603679H43.1008V18.9713H47.4508V7.35384L59.0911 18.9713H62.3195V0.603679H57.9695V12.2083Z" fill="black"/>
<path d="M85.81 18.9713L77.0494 0.603679H73.4876L64.1359 18.9713H69.0163L70.6078 15.5386H79.4442L80.9295 18.9713H85.81ZM75.2003 5.6631L78.171 12.5542H72.0022L75.2003 5.6631Z" fill="black"/>
<path d="M105.163 18.9457L100.464 11.6063C102.995 10.7225 104.496 8.81403 104.496 6.39319C104.496 4.66403 103.783 3.26788 102.374 2.20476C100.949 1.14164 99.0848 0.603679 96.7962 0.603679H87.6567V18.9713H92.0066V12.1955H96.1747L100.373 18.9457H105.163ZM96.7962 3.80584C97.8571 3.80584 98.7059 4.04921 99.3273 4.54875C99.9487 5.04829 100.252 5.65029 100.252 6.36758C100.252 7.07205 99.9487 7.68687 99.3273 8.18641C98.7059 8.68595 97.8723 8.94212 96.7962 8.94212H92.0066V3.80584H96.7962Z" fill="black"/>
<path d="M121.908 0.603679L116.513 7.61002L111.041 0.603679H105.463L114.315 11.0171V18.9713H118.665V11.0812L127.486 0.603679H121.908Z" fill="black"/>
<path d="M27.5994 33.8475C27.7492 33.9645 27.9481 34.023 28.1962 34.023C28.463 34.023 28.7134 33.9809 28.9474 33.8966C29.1861 33.8124 29.4084 33.7024 29.6143 33.5667C29.8203 33.4263 30.0098 33.2718 30.183 33.1033C30.3562 32.9348 30.5106 32.7663 30.6464 32.5978C30.7868 32.4247 30.9085 32.2632 31.0114 32.1134C31.1191 31.959 31.2057 31.8302 31.2712 31.7273H31.6643C31.5988 31.8396 31.5076 31.9847 31.3905 32.1626C31.2782 32.3357 31.1425 32.5206 30.9834 32.7172C30.8289 32.9138 30.6534 33.1127 30.4568 33.3139C30.2602 33.5105 30.0426 33.6884 29.8039 33.8475C29.5699 34.0066 29.3195 34.1377 29.0527 34.2406C28.7859 34.3389 28.5028 34.3881 28.2032 34.3881C28.0722 34.3881 27.9435 34.374 27.8171 34.3459C27.6954 34.3132 27.576 34.264 27.459 34.1985C27.3046 34.5776 27.1548 34.9497 27.0097 35.3148C26.8599 35.6799 26.7195 36.0262 26.5885 36.3538C26.4528 36.6815 26.3287 36.9833 26.2164 37.2595C26.1041 37.5356 26.0058 37.7743 25.9215 37.9756C25.8373 38.1815 25.7718 38.343 25.725 38.46C25.6781 38.5817 25.6524 38.6449 25.6477 38.6496L24.9106 38.2845C25.1493 37.7228 25.3646 37.208 25.5565 36.74C25.7437 36.2719 25.9192 35.8343 26.083 35.4271C26.2421 35.0199 26.3942 34.6385 26.5393 34.2828C26.6797 33.9224 26.8225 33.5737 26.9676 33.2367C26.8927 33.129 26.8389 33.0237 26.8061 32.9208C26.7687 32.8178 26.7453 32.7336 26.7359 32.668C26.7266 32.5604 26.757 32.4715 26.8272 32.4013C26.8927 32.3264 26.9793 32.2889 27.0869 32.2889C27.1759 32.2889 27.2578 32.3193 27.3327 32.3802C27.4731 32.0432 27.5971 31.7483 27.7048 31.4956C27.8171 31.2382 27.9107 31.0229 27.9856 30.8497C28.0698 30.6485 28.1447 30.4729 28.2102 30.3232C28.6174 29.3637 28.9942 28.5353 29.3405 27.8379C29.6916 27.1358 30.0145 26.5414 30.3094 26.0547C30.6042 25.5632 30.8734 25.1677 31.1167 24.8682C31.3601 24.564 31.5801 24.3276 31.7767 24.1591C31.9779 23.9906 32.1581 23.8783 32.3173 23.8221C32.4764 23.7613 32.6191 23.7309 32.7455 23.7309C32.9515 23.7309 33.1246 23.7777 33.265 23.8713C33.4101 23.9602 33.492 24.1146 33.5108 24.3346C33.5295 24.5499 33.4897 24.8214 33.3914 25.149C33.2978 25.4766 33.1667 25.8253 32.9983 26.1951C32.8344 26.5601 32.6425 26.9299 32.4226 27.3043C32.2026 27.6788 31.9779 28.0228 31.7486 28.3363C31.3133 28.9261 30.9178 29.4152 30.5621 29.8036C30.2111 30.1921 29.9022 30.5057 29.6354 30.7444C29.3686 30.9831 29.1463 31.161 28.9685 31.278C28.7906 31.3903 28.6595 31.4675 28.5753 31.5096L27.5994 33.8475ZM33.0755 24.4399C33.0708 24.3604 33.0521 24.2925 33.0193 24.2363C32.9912 24.1755 32.9304 24.1451 32.8368 24.1451C32.7806 24.1451 32.7081 24.1591 32.6191 24.1872C32.5302 24.2106 32.4249 24.2644 32.3032 24.3487C32.1862 24.4329 32.0528 24.5569 31.903 24.7208C31.7533 24.8846 31.5848 25.1045 31.3976 25.3807C31.215 25.6568 31.0138 25.9985 30.7938 26.4057C30.5785 26.8129 30.3468 27.3043 30.0988 27.88C29.935 28.2451 29.7454 28.6897 29.5301 29.2139C29.3148 29.7334 29.0784 30.2974 28.821 30.9059C29.041 30.7514 29.2703 30.5595 29.509 30.3302C29.7524 30.0962 29.9958 29.8411 30.2392 29.5649C30.4872 29.2841 30.7306 28.9869 30.9693 28.6733C31.208 28.3597 31.435 28.0415 31.6503 27.7185C31.8656 27.3956 32.0622 27.075 32.24 26.7567C32.4226 26.4385 32.577 26.1366 32.7034 25.8511C32.8344 25.5609 32.9327 25.2964 32.9983 25.0577C33.0638 24.8144 33.0895 24.6084 33.0755 24.4399ZM36.1654 32.4364C36.1841 32.441 36.2028 32.4434 36.2215 32.4434C36.2403 32.4434 36.2613 32.4434 36.2847 32.4434C36.4158 32.4434 36.5351 32.4317 36.6428 32.4083C36.7504 32.3802 36.8487 32.3381 36.9376 32.2819C37.0312 32.2257 37.1202 32.1532 37.2044 32.0643C37.2887 31.9707 37.3706 31.8583 37.4501 31.7273L37.7029 31.9239C37.4782 32.2421 37.2465 32.4644 37.0078 32.5908C36.7691 32.7172 36.5164 32.7804 36.2496 32.7804C36.1513 32.7804 36.0647 32.771 35.9899 32.7523C35.7886 33.0893 35.5733 33.3771 35.344 33.6158C35.1146 33.8498 34.8806 34.0417 34.6419 34.1915C34.4032 34.3413 34.1669 34.4489 33.9328 34.5144C33.6988 34.5846 33.4812 34.6197 33.2799 34.6197C33.074 34.6197 32.8821 34.5823 32.7042 34.5074C32.5311 34.4372 32.3813 34.3342 32.2549 34.1985C32.1285 34.0628 32.0303 33.9013 31.9601 33.7141C31.8898 33.5269 31.8547 33.3163 31.8547 33.0822C31.8547 32.8482 31.8922 32.6095 31.9671 32.3661C32.042 32.1228 32.1426 31.8817 32.269 31.643C32.4 31.4043 32.5521 31.175 32.7253 30.955C32.8985 30.7304 33.0857 30.5221 33.2869 30.3302C33.4882 30.1383 33.6965 29.9651 33.9118 29.8107C34.1271 29.6562 34.3424 29.5298 34.5577 29.4316L34.7823 29.7264C34.5343 29.9043 34.2815 30.1289 34.0241 30.4004C33.7714 30.6719 33.5397 30.9691 33.3291 31.292C33.1231 31.6149 32.9523 31.9519 32.8166 32.303C32.6855 32.6493 32.62 32.9863 32.62 33.3139C32.62 33.6088 32.6855 33.8381 32.8166 34.0019C32.9476 34.1611 33.1465 34.2406 33.4133 34.2406C33.6192 34.2406 33.8228 34.1985 34.0241 34.1143C34.2254 34.03 34.4219 33.9154 34.6138 33.7703C34.8057 33.6252 34.9906 33.4543 35.1685 33.2578C35.3463 33.0565 35.5148 32.8435 35.6739 32.6189C35.5382 32.5393 35.4189 32.434 35.3159 32.303C35.2129 32.1672 35.1263 32.0151 35.0561 31.8466C34.9859 31.6735 34.9321 31.4886 34.8947 31.292C34.8619 31.0954 34.8455 30.8942 34.8455 30.6882C34.8455 30.4823 34.8712 30.2881 34.9227 30.1055C34.9742 29.923 35.0444 29.7639 35.1333 29.6281C35.227 29.4877 35.3346 29.3777 35.4563 29.2982C35.578 29.2186 35.7114 29.1788 35.8565 29.1788C35.9875 29.1788 36.1045 29.2139 36.2075 29.2841C36.3105 29.3496 36.3971 29.4433 36.4673 29.5649C36.5375 29.682 36.5913 29.8224 36.6287 29.9862C36.6662 30.15 36.6849 30.3255 36.6849 30.5127C36.6849 30.6531 36.6732 30.8076 36.6498 30.9761C36.6264 31.1446 36.5913 31.3154 36.5445 31.4886C36.5024 31.6571 36.4485 31.8256 36.383 31.9941C36.3222 32.1579 36.2496 32.3053 36.1654 32.4364ZM35.2106 30.6882C35.2106 30.824 35.2223 30.9714 35.2457 31.1305C35.2691 31.2897 35.3065 31.4441 35.358 31.5939C35.4095 31.7437 35.475 31.8841 35.5546 32.0151C35.6341 32.1415 35.7324 32.2421 35.8494 32.317C35.9337 32.1532 36.0039 31.987 36.0601 31.8185C36.1209 31.6454 36.1701 31.4792 36.2075 31.3201C36.2496 31.161 36.2777 31.0135 36.2917 30.8778C36.3105 30.7374 36.3198 30.6157 36.3198 30.5127C36.3198 30.3723 36.3081 30.2436 36.2847 30.1266C36.2613 30.0096 36.2286 29.909 36.1864 29.8247C36.149 29.7358 36.0998 29.6679 36.039 29.6211C35.9828 29.5696 35.9197 29.5439 35.8494 29.5439C35.7558 29.5439 35.6693 29.5766 35.5897 29.6422C35.5101 29.703 35.4423 29.7873 35.3861 29.8949C35.3299 29.9979 35.2855 30.1196 35.2527 30.26C35.2246 30.3957 35.2106 30.5385 35.2106 30.6882ZM42.8217 31.9239C42.7515 32.0268 42.6673 32.1672 42.569 32.3451C42.4754 32.5183 42.3654 32.7078 42.239 32.9138C42.1126 33.115 41.9722 33.3209 41.8178 33.5316C41.668 33.7422 41.5018 33.9317 41.3193 34.1002C41.1415 34.2687 40.9472 34.4068 40.7366 34.5144C40.526 34.6221 40.3013 34.6759 40.0626 34.6759C39.9316 34.6759 39.8075 34.6549 39.6905 34.6127C39.5735 34.5753 39.4706 34.5144 39.3816 34.4302C39.2927 34.3459 39.2225 34.243 39.171 34.1213C39.1195 33.9949 39.0938 33.8475 39.0938 33.679C39.0938 33.4497 39.1383 33.211 39.2272 32.9629C39.3208 32.7102 39.4284 32.4668 39.5501 32.2328C39.6718 31.9987 39.7935 31.7858 39.9152 31.5939C40.0369 31.3973 40.1258 31.2405 40.182 31.1235C40.2381 31.0065 40.2662 30.9059 40.2662 30.8216C40.2662 30.7608 40.2452 30.707 40.203 30.6602C40.1656 30.6133 40.1165 30.5689 40.0556 30.5268C39.9994 30.48 39.9386 30.4332 39.8731 30.3863C39.8122 30.3349 39.7607 30.274 39.7186 30.2038C39.6016 30.391 39.4823 30.5806 39.3606 30.7725C39.2529 30.9363 39.1359 31.1212 39.0095 31.3271C38.8832 31.5284 38.7615 31.7273 38.6445 31.9239L38.3917 31.7273L39.8941 29.3754L40.0977 29.4807C40.0884 29.5088 40.072 29.5532 40.0486 29.6141C40.0299 29.6749 40.0205 29.7405 40.0205 29.8107C40.0205 29.8621 40.0275 29.9136 40.0416 29.9651C40.0603 30.0119 40.0954 30.0564 40.1469 30.0985C40.3341 30.267 40.4815 30.3981 40.5892 30.4917C40.6968 30.5806 40.774 30.6531 40.8208 30.7093C40.8723 30.7608 40.9028 30.8052 40.9121 30.8427C40.9262 30.8754 40.9332 30.9199 40.9332 30.9761C40.9332 31.0322 40.9238 31.1001 40.9051 31.1797C40.8864 31.2592 40.8536 31.3552 40.8068 31.4675C40.7647 31.5798 40.7038 31.7132 40.6243 31.8677C40.5494 32.0175 40.4534 32.193 40.3364 32.3942C40.2662 32.5159 40.196 32.64 40.1258 32.7663C40.0603 32.888 39.9994 33.012 39.9433 33.1384C39.8918 33.2648 39.8497 33.3912 39.8169 33.5175C39.7841 33.6439 39.7678 33.7656 39.7678 33.8826C39.7678 33.9715 39.7795 34.0441 39.8029 34.1002C39.8309 34.1517 39.8661 34.1915 39.9082 34.2196C39.9503 34.2477 39.9948 34.2664 40.0416 34.2757C40.0931 34.2851 40.1422 34.2898 40.189 34.2898C40.3435 34.2898 40.4956 34.2453 40.6453 34.1564C40.7998 34.0628 40.9496 33.9434 41.0947 33.7983C41.2444 33.6533 41.3872 33.4894 41.5229 33.3069C41.6633 33.1197 41.7967 32.9301 41.9231 32.7382C42.0494 32.5463 42.1665 32.3638 42.2741 32.1906C42.3818 32.0128 42.4777 31.8583 42.5619 31.7273L42.8217 31.9239ZM54.5056 30.7023C54.5056 30.9035 54.4705 31.1095 54.4003 31.3201C54.3301 31.526 54.2412 31.7343 54.1335 31.9449C54.0259 32.1509 53.9112 32.3544 53.7895 32.5557C53.6678 32.757 53.5532 32.9512 53.4455 33.1384C53.3379 33.3256 53.2489 33.5058 53.1787 33.679C53.1085 33.8475 53.0734 34.0019 53.0734 34.1424C53.0734 34.25 53.0968 34.3225 53.1436 34.36C53.1904 34.3974 53.2419 34.4162 53.2981 34.4162C53.4759 34.4162 53.6748 34.3296 53.8948 34.1564C54.1148 33.9785 54.3371 33.7562 54.5618 33.4894C54.7911 33.2227 55.0181 32.9325 55.2428 32.6189C55.4674 32.3053 55.671 32.0081 55.8536 31.7273L56.1063 31.9239C56.0689 31.98 56.001 32.0923 55.9027 32.2608C55.8044 32.4247 55.6827 32.6142 55.5376 32.8295C55.3925 33.0401 55.2287 33.2624 55.0462 33.4965C54.8683 33.7258 54.6764 33.9388 54.4705 34.1353C54.2646 34.3272 54.0516 34.4864 53.8316 34.6127C53.6163 34.7391 53.3987 34.8023 53.1787 34.8023C53.0524 34.8023 52.9377 34.7812 52.8347 34.7391C52.7317 34.697 52.6428 34.6385 52.5679 34.5636C52.4977 34.4887 52.4416 34.4021 52.3994 34.3038C52.3573 34.2009 52.3363 34.0932 52.3363 33.9809C52.3363 33.7983 52.376 33.6018 52.4556 33.3912C52.5399 33.1759 52.6428 32.9559 52.7645 32.7312C52.8862 32.5066 53.0196 32.2819 53.1647 32.0572C53.3098 31.8279 53.4432 31.6103 53.5649 31.4043C53.6865 31.1984 53.7872 31.0088 53.8667 30.8357C53.951 30.6578 53.9931 30.5057 53.9931 30.3793C53.9931 30.2342 53.9533 30.1125 53.8738 30.0143C53.7989 29.916 53.6912 29.8668 53.5508 29.8668C53.401 29.8668 53.2279 29.93 53.0313 30.0564C52.8347 30.1781 52.6147 30.3583 52.3714 30.597C52.128 30.8357 51.8612 31.1305 51.571 31.4816C51.2855 31.8279 50.9743 32.2234 50.6373 32.668C50.4454 32.9255 50.2582 33.1735 50.0756 33.4122C49.9961 33.5152 49.9165 33.6205 49.8369 33.7281C49.7574 33.8358 49.6778 33.9434 49.5982 34.0511C49.5187 34.1541 49.4438 34.2523 49.3736 34.3459C49.3034 34.4442 49.2402 34.5285 49.184 34.5987L48.5662 34.3459L49.3876 33.2156C49.5046 33.0565 49.624 32.8857 49.7457 32.7031C49.8674 32.5206 49.9867 32.3334 50.1037 32.1415C50.2254 31.9449 50.3401 31.7483 50.4477 31.5518C50.5554 31.3552 50.656 31.1633 50.7496 30.9761C50.8853 30.6953 50.9789 30.4636 51.0304 30.281C51.0819 30.0938 51.1077 29.9441 51.1077 29.8317C51.1077 29.7054 51.0843 29.6234 51.0375 29.586C50.9906 29.5439 50.9251 29.5228 50.8409 29.5228C50.7519 29.5228 50.649 29.5696 50.532 29.6632C50.4196 29.7522 50.3026 29.8692 50.1809 30.0143C50.0593 30.1547 49.9352 30.3161 49.8089 30.4987C49.6872 30.6765 49.5702 30.8544 49.4578 31.0322C49.3455 31.2101 49.2402 31.3786 49.1419 31.5377C49.0436 31.6969 48.9617 31.8256 48.8962 31.9239L48.6434 31.7273C48.8821 31.3528 49.0974 31.0112 49.2893 30.7023C49.4859 30.3887 49.6731 30.1196 49.851 29.8949C50.0335 29.6703 50.209 29.4971 50.3775 29.3754C50.5507 29.249 50.7332 29.1858 50.9251 29.1858C51.0281 29.1858 51.1264 29.2069 51.22 29.249C51.3183 29.2911 51.4025 29.3543 51.4727 29.4386C51.5476 29.5181 51.6061 29.6164 51.6482 29.7334C51.6904 29.8504 51.7114 29.9862 51.7114 30.1406C51.7114 30.2623 51.6974 30.3887 51.6693 30.5197C51.8752 30.3185 52.0671 30.1523 52.245 30.0213C52.4228 29.8902 52.5867 29.7873 52.7364 29.7124C52.8862 29.6328 53.0243 29.5766 53.1506 29.5439C53.277 29.5111 53.3917 29.4947 53.4946 29.4947C53.5836 29.4947 53.6865 29.5111 53.8036 29.5439C53.9206 29.5766 54.0306 29.6375 54.1335 29.7264C54.2365 29.8153 54.3231 29.9394 54.3933 30.0985C54.4682 30.253 54.5056 30.4542 54.5056 30.7023ZM60.7548 32.4364C60.7735 32.441 60.7922 32.4434 60.8109 32.4434C60.8296 32.4434 60.8507 32.4434 60.8741 32.4434C61.0052 32.4434 61.1245 32.4317 61.2322 32.4083C61.3398 32.3802 61.4381 32.3381 61.527 32.2819C61.6206 32.2257 61.7096 32.1532 61.7938 32.0643C61.878 31.9707 61.96 31.8583 62.0395 31.7273L62.2923 31.9239C62.0676 32.2421 61.8359 32.4644 61.5972 32.5908C61.3585 32.7172 61.1058 32.7804 60.839 32.7804C60.7407 32.7804 60.6541 32.771 60.5792 32.7523C60.378 33.0893 60.1627 33.3771 59.9334 33.6158C59.704 33.8498 59.47 34.0417 59.2313 34.1915C58.9926 34.3413 58.7562 34.4489 58.5222 34.5144C58.2882 34.5846 58.0706 34.6197 57.8693 34.6197C57.6634 34.6197 57.4715 34.5823 57.2936 34.5074C57.1204 34.4372 56.9707 34.3342 56.8443 34.1985C56.7179 34.0628 56.6196 33.9013 56.5494 33.7141C56.4792 33.5269 56.4441 33.3163 56.4441 33.0822C56.4441 32.8482 56.4816 32.6095 56.5565 32.3661C56.6313 32.1228 56.732 31.8817 56.8583 31.643C56.9894 31.4043 57.1415 31.175 57.3147 30.955C57.4879 30.7304 57.6751 30.5221 57.8763 30.3302C58.0776 30.1383 58.2859 29.9651 58.5012 29.8107C58.7165 29.6562 58.9317 29.5298 59.147 29.4316L59.3717 29.7264C59.1236 29.9043 58.8709 30.1289 58.6135 30.4004C58.3607 30.6719 58.1291 30.9691 57.9184 31.292C57.7125 31.6149 57.5417 31.9519 57.4059 32.303C57.2749 32.6493 57.2094 32.9863 57.2094 33.3139C57.2094 33.6088 57.2749 33.8381 57.4059 34.0019C57.537 34.1611 57.7359 34.2406 58.0027 34.2406C58.2086 34.2406 58.4122 34.1985 58.6135 34.1143C58.8147 34.03 59.0113 33.9154 59.2032 33.7703C59.3951 33.6252 59.58 33.4543 59.7578 33.2578C59.9357 33.0565 60.1042 32.8435 60.2633 32.6189C60.1276 32.5393 60.0082 32.434 59.9053 32.303C59.8023 32.1672 59.7157 32.0151 59.6455 31.8466C59.5753 31.6735 59.5215 31.4886 59.484 31.292C59.4513 31.0954 59.4349 30.8942 59.4349 30.6882C59.4349 30.4823 59.4606 30.2881 59.5121 30.1055C59.5636 29.923 59.6338 29.7639 59.7227 29.6281C59.8163 29.4877 59.924 29.3777 60.0457 29.2982C60.1674 29.2186 60.3008 29.1788 60.4459 29.1788C60.5769 29.1788 60.6939 29.2139 60.7969 29.2841C60.8998 29.3496 60.9864 29.4433 61.0566 29.5649C61.1268 29.682 61.1807 29.8224 61.2181 29.9862C61.2556 30.15 61.2743 30.3255 61.2743 30.5127C61.2743 30.6531 61.2626 30.8076 61.2392 30.9761C61.2158 31.1446 61.1807 31.3154 61.1339 31.4886C61.0917 31.6571 61.0379 31.8256 60.9724 31.9941C60.9115 32.1579 60.839 32.3053 60.7548 32.4364ZM59.8 30.6882C59.8 30.824 59.8117 30.9714 59.8351 31.1305C59.8585 31.2897 59.8959 31.4441 59.9474 31.5939C59.9989 31.7437 60.0644 31.8841 60.144 32.0151C60.2235 32.1415 60.3218 32.2421 60.4388 32.317C60.5231 32.1532 60.5933 31.987 60.6494 31.8185C60.7103 31.6454 60.7594 31.4792 60.7969 31.3201C60.839 31.161 60.8671 31.0135 60.8811 30.8778C60.8998 30.7374 60.9092 30.6157 60.9092 30.5127C60.9092 30.3723 60.8975 30.2436 60.8741 30.1266C60.8507 30.0096 60.8179 29.909 60.7758 29.8247C60.7384 29.7358 60.6892 29.6679 60.6284 29.6211C60.5722 29.5696 60.509 29.5439 60.4388 29.5439C60.3452 29.5439 60.2586 29.5766 60.1791 29.6422C60.0995 29.703 60.0316 29.7873 59.9755 29.8949C59.9193 29.9979 59.8748 30.1196 59.8421 30.26C59.814 30.3957 59.8 30.5385 59.8 30.6882ZM64.4063 28.554C64.4531 28.4744 64.535 28.3363 64.652 28.1398C64.7737 27.9432 64.9141 27.7256 65.0732 27.4869C65.2371 27.2482 65.4126 27.0095 65.5998 26.7708C65.7917 26.5274 65.9789 26.3214 66.1614 26.1529L66.4774 26.3425C66.2761 26.6748 66.0702 27.0282 65.8595 27.4026C65.6489 27.7724 65.4407 28.1562 65.2347 28.554H67.5234L67.383 28.9191H65.0452C64.8345 29.3403 64.6356 29.7592 64.4484 30.1757C64.2659 30.5923 64.1044 30.9901 63.964 31.3692C63.8236 31.7483 63.7136 32.104 63.634 32.4364C63.5545 32.764 63.5147 33.0495 63.5147 33.2929C63.5147 33.5971 63.5849 33.8171 63.7253 33.9528C63.8657 34.0838 64.0389 34.1494 64.2448 34.1494C64.4274 34.1494 64.6146 34.0955 64.8065 33.9879C64.9984 33.8756 65.1856 33.7352 65.3681 33.5667C65.5553 33.3982 65.7308 33.2133 65.8947 33.012C66.0631 32.8108 66.2106 32.6212 66.3369 32.4434C66.468 32.2655 66.5756 32.1111 66.6599 31.98C66.7441 31.8443 66.7956 31.76 66.8143 31.7273L67.0741 31.9239C66.9103 32.1953 66.7254 32.4832 66.5195 32.7874C66.3135 33.0916 66.0842 33.3748 65.8315 33.6369C65.5834 33.8943 65.3119 34.1096 65.0171 34.2828C64.7222 34.4513 64.404 34.5355 64.0623 34.5355C63.8517 34.5355 63.6668 34.4981 63.5077 34.4232C63.3532 34.3483 63.2222 34.2453 63.1145 34.1143C63.0069 33.9785 62.9273 33.8194 62.8758 33.6369C62.8196 33.4543 62.7916 33.2554 62.7916 33.0401C62.7916 32.8997 62.815 32.7008 62.8618 32.4434C62.9039 32.186 62.9788 31.8817 63.0864 31.5307C63.1941 31.175 63.3368 30.7772 63.5147 30.3372C63.6972 29.8973 63.9266 29.4245 64.2027 28.9191H63.0373L63.1777 28.554H64.4063ZM73.3303 29.6773C73.2694 29.799 73.1828 29.9581 73.0705 30.1547C72.9629 30.3512 72.8458 30.5689 72.7195 30.8076C72.5931 31.0416 72.4644 31.2873 72.3333 31.5447C72.207 31.8022 72.09 32.0549 71.9823 32.303C71.8794 32.5463 71.7928 32.778 71.7226 32.998C71.657 33.2133 71.6243 33.3958 71.6243 33.5456C71.6243 33.6954 71.6524 33.7937 71.7085 33.8405C71.7694 33.8826 71.8466 33.9037 71.9402 33.9037C72.0759 33.9037 72.214 33.8639 72.3544 33.7843C72.4995 33.7047 72.6399 33.6018 72.7756 33.4754C72.9161 33.349 73.0518 33.2063 73.1828 33.0471C73.3139 32.888 73.4356 32.7289 73.5479 32.5697C73.6649 32.4059 73.7702 32.2515 73.8638 32.1064C73.9574 31.9566 74.037 31.8302 74.1025 31.7273L74.3553 31.9239C74.2757 32.0736 74.1821 32.2351 74.0744 32.4083C73.9668 32.5814 73.8474 32.757 73.7164 32.9348C73.59 33.108 73.452 33.2765 73.3022 33.4403C73.1524 33.6041 72.9933 33.7492 72.8248 33.8756C72.661 34.0019 72.4878 34.1026 72.3053 34.1775C72.1227 34.2523 71.9355 34.2898 71.7436 34.2898C71.4628 34.2898 71.2569 34.2055 71.1258 34.037C70.9948 33.8685 70.9292 33.6509 70.9292 33.3841C70.9292 33.3654 70.9292 33.3256 70.9292 33.2648C70.9339 33.1993 70.9409 33.1478 70.9503 33.1103C70.7163 33.4052 70.4916 33.6486 70.2763 33.8405C70.0657 34.0324 69.8598 34.1845 69.6585 34.2968C69.4619 34.4091 69.27 34.4864 69.0828 34.5285C68.9003 34.5753 68.7248 34.5987 68.5563 34.5987C68.3784 34.5987 68.2099 34.5683 68.0508 34.5074C67.8964 34.4513 67.7606 34.367 67.6436 34.2547C67.5219 34.1424 67.4283 34.0043 67.3628 33.8405C67.2926 33.6767 67.2575 33.4871 67.2575 33.2718C67.2575 33.005 67.3183 32.7008 67.44 32.3591C67.557 32.0128 67.7676 31.6407 68.0719 31.2429C68.3293 30.9012 68.5961 30.6133 68.8722 30.3793C69.153 30.1453 69.4268 29.9581 69.6936 29.8177C69.9651 29.6726 70.2225 29.5696 70.4659 29.5088C70.7093 29.4479 70.9269 29.4175 71.1188 29.4175C71.5494 29.4175 71.8747 29.4901 72.0946 29.6351C72.3146 29.7756 72.448 29.9932 72.4948 30.2881C72.5884 30.1711 72.6867 30.054 72.7897 29.937C72.8927 29.82 72.998 29.7007 73.1056 29.579L73.3303 29.6773ZM71.175 32.3451C71.2358 32.2468 71.3107 32.1228 71.3996 31.973C71.4885 31.8185 71.5821 31.6618 71.6804 31.5026C71.7787 31.3388 71.8747 31.182 71.9683 31.0322C72.0619 30.8825 72.1438 30.7561 72.214 30.6531C72.214 30.611 72.207 30.5431 72.1929 30.4495C72.1836 30.3559 72.1532 30.2623 72.1017 30.1687C72.0502 30.0704 71.9683 29.9862 71.856 29.916C71.7436 29.8458 71.5868 29.8107 71.3856 29.8107C71.2405 29.8107 71.0767 29.8341 70.8941 29.8809C70.7163 29.923 70.5244 29.9979 70.3184 30.1055C70.1172 30.2085 69.9089 30.3466 69.6936 30.5197C69.4783 30.6929 69.263 30.9082 69.0477 31.1656C68.7248 31.5541 68.4744 31.9449 68.2965 32.3381C68.1234 32.7265 68.0368 33.0776 68.0368 33.3912C68.0368 33.6579 68.0976 33.8639 68.2193 34.009C68.341 34.1541 68.5142 34.2266 68.7388 34.2266C68.9962 34.2266 69.2373 34.1704 69.4619 34.0581C69.6866 33.9411 69.8972 33.7913 70.0938 33.6088C70.2904 33.4263 70.4776 33.225 70.6554 33.005C70.8333 32.7804 71.0065 32.5604 71.175 32.3451ZM79.4741 31.9239C79.4039 32.0268 79.3197 32.1672 79.2214 32.3451C79.1278 32.5183 79.0178 32.7078 78.8914 32.9138C78.765 33.115 78.6246 33.3209 78.4702 33.5316C78.3204 33.7422 78.1542 33.9317 77.9717 34.1002C77.7938 34.2687 77.5996 34.4068 77.389 34.5144C77.1784 34.6221 76.9537 34.6759 76.715 34.6759C76.584 34.6759 76.4599 34.6549 76.3429 34.6127C76.2259 34.5753 76.123 34.5144 76.034 34.4302C75.9451 34.3459 75.8749 34.243 75.8234 34.1213C75.7719 33.9949 75.7462 33.8475 75.7462 33.679C75.7462 33.4497 75.7906 33.211 75.8796 32.9629C75.9732 32.7102 76.0808 32.4668 76.2025 32.2328C76.3242 31.9987 76.4459 31.7858 76.5676 31.5939C76.6893 31.3973 76.7782 31.2405 76.8344 31.1235C76.8905 31.0065 76.9186 30.9059 76.9186 30.8216C76.9186 30.7608 76.8976 30.707 76.8554 30.6602C76.818 30.6133 76.7688 30.5689 76.708 30.5268C76.6518 30.48 76.591 30.4332 76.5255 30.3863C76.4646 30.3349 76.4131 30.274 76.371 30.2038C76.254 30.391 76.1347 30.5806 76.013 30.7725C75.9053 30.9363 75.7883 31.1212 75.6619 31.3271C75.5356 31.5284 75.4139 31.7273 75.2969 31.9239L75.0441 31.7273L76.5465 29.3754L76.7501 29.4807C76.7408 29.5088 76.7244 29.5532 76.701 29.6141C76.6823 29.6749 76.6729 29.7405 76.6729 29.8107C76.6729 29.8621 76.6799 29.9136 76.694 29.9651C76.7127 30.0119 76.7478 30.0564 76.7993 30.0985C76.9865 30.267 77.1339 30.3981 77.2416 30.4917C77.3492 30.5806 77.4264 30.6531 77.4732 30.7093C77.5247 30.7608 77.5551 30.8052 77.5645 30.8427C77.5786 30.8754 77.5856 30.9199 77.5856 30.9761C77.5856 31.0322 77.5762 31.1001 77.5575 31.1797C77.5388 31.2592 77.506 31.3552 77.4592 31.4675C77.4171 31.5798 77.3562 31.7132 77.2767 31.8677C77.2018 32.0175 77.1058 32.193 76.9888 32.3942C76.9186 32.5159 76.8484 32.64 76.7782 32.7663C76.7127 32.888 76.6518 33.012 76.5957 33.1384C76.5442 33.2648 76.5021 33.3912 76.4693 33.5175C76.4365 33.6439 76.4202 33.7656 76.4202 33.8826C76.4202 33.9715 76.4319 34.0441 76.4553 34.1002C76.4833 34.1517 76.5184 34.1915 76.5606 34.2196C76.6027 34.2477 76.6472 34.2664 76.694 34.2757C76.7454 34.2851 76.7946 34.2898 76.8414 34.2898C76.9958 34.2898 77.148 34.2453 77.2977 34.1564C77.4522 34.0628 77.602 33.9434 77.747 33.7983C77.8968 33.6533 78.0396 33.4894 78.1753 33.3069C78.3157 33.1197 78.4491 32.9301 78.5755 32.7382C78.7018 32.5463 78.8189 32.3638 78.9265 32.1906C79.0341 32.0128 79.1301 31.8583 79.2143 31.7273L79.4741 31.9239ZM83.3012 28.1187C83.3012 28.2123 83.2778 28.3106 83.2309 28.4136C83.1841 28.5119 83.1233 28.6008 83.0484 28.6804C82.9782 28.7599 82.8986 28.8254 82.8097 28.8769C82.7208 28.9284 82.6319 28.9542 82.5429 28.9542C82.4634 28.9542 82.4025 28.9261 82.3604 28.8699C82.3183 28.8091 82.2972 28.7365 82.2972 28.6523C82.2972 28.5774 82.3113 28.4885 82.3393 28.3855C82.3674 28.2825 82.4095 28.1866 82.4657 28.0976C82.5219 28.004 82.5897 27.9245 82.6693 27.8589C82.7489 27.7934 82.8401 27.7607 82.9431 27.7607C83.0414 27.7607 83.1256 27.7981 83.1958 27.873C83.2661 27.9479 83.3012 28.0298 83.3012 28.1187ZM81.9883 29.6773C81.9275 29.799 81.8409 29.9604 81.7285 30.1617C81.6209 30.3583 81.5039 30.5759 81.3775 30.8146C81.2512 31.0486 81.1224 31.2967 80.9914 31.5588C80.8603 31.8162 80.741 32.0689 80.6333 32.317C80.5304 32.5604 80.4461 32.7897 80.3806 33.005C80.3151 33.2203 80.2823 33.4029 80.2823 33.5526C80.2823 33.6884 80.3104 33.782 80.3666 33.8334C80.4227 33.8802 80.5023 33.9037 80.6053 33.9037C80.7972 33.9037 80.9844 33.8405 81.1669 33.7141C81.3494 33.5877 81.5296 33.4239 81.7075 33.2227C81.89 33.0167 82.0679 32.7827 82.241 32.5206C82.4142 32.2585 82.5874 31.9941 82.7606 31.7273L83.0133 31.9239C82.8776 32.1672 82.7231 32.427 82.55 32.7031C82.3815 32.9793 82.1919 33.2367 81.9813 33.4754C81.7707 33.7094 81.539 33.9037 81.2863 34.0581C81.0335 34.2126 80.7574 34.2898 80.4578 34.2898C80.177 34.2898 79.9617 34.2055 79.8119 34.037C79.6622 33.8685 79.5873 33.6509 79.5873 33.3841C79.5873 33.0705 79.6598 32.7429 79.8049 32.4013C79.95 32.0596 80.1302 31.7226 80.3455 31.3903C80.5655 31.0533 80.8018 30.7304 81.0546 30.4215C81.312 30.1125 81.5484 29.8317 81.7637 29.579L81.9883 29.6773ZM84.2287 32.7453C84.2194 32.8014 84.2123 32.8576 84.2076 32.9138C84.203 32.9699 84.2006 33.0261 84.2006 33.0822C84.2006 33.2507 84.224 33.4122 84.2708 33.5667C84.3223 33.7164 84.3949 33.8498 84.4885 33.9668C84.5868 34.0792 84.7061 34.1681 84.8465 34.2336C84.9916 34.2991 85.1554 34.3319 85.338 34.3319C85.9511 34.3319 86.5432 34.1236 87.1142 33.7071C87.6852 33.2905 88.2538 32.6306 88.8202 31.7273L89.0589 31.9379C88.75 32.4527 88.4364 32.888 88.1181 33.2437C87.7998 33.5947 87.4816 33.8802 87.1633 34.1002C86.8497 34.3202 86.5408 34.4793 86.2366 34.5776C85.9324 34.6759 85.6422 34.7251 85.366 34.7251C85.1648 34.7251 84.9518 34.697 84.7272 34.6408C84.5025 34.5846 84.2942 34.491 84.1023 34.36C83.9151 34.2289 83.7607 34.0534 83.639 33.8334C83.5126 33.6135 83.4494 33.3397 83.4494 33.012C83.4494 32.661 83.5103 32.324 83.632 32.0011C83.749 31.6735 83.9034 31.3692 84.0953 31.0884C84.2872 30.8076 84.5072 30.5525 84.7553 30.3232C85.0033 30.0891 85.2537 29.8902 85.5065 29.7264C85.7639 29.5626 86.0143 29.4362 86.2577 29.3473C86.501 29.2537 86.7163 29.2069 86.9035 29.2069C87.0252 29.2069 87.1493 29.2256 87.2756 29.2631C87.402 29.3005 87.5143 29.359 87.6126 29.4386C87.7156 29.5181 87.7975 29.6234 87.8583 29.7545C87.9239 29.8855 87.9566 30.0423 87.9566 30.2249C87.9566 30.4729 87.8981 30.707 87.7811 30.9269C87.6688 31.1422 87.5167 31.3435 87.3248 31.5307C87.1329 31.7132 86.9106 31.8794 86.6578 32.0292C86.4051 32.1743 86.1406 32.2983 85.8645 32.4013C85.5884 32.5042 85.3099 32.5861 85.0291 32.647C84.7482 32.7078 84.4815 32.7406 84.2287 32.7453ZM84.2849 32.4434C84.5985 32.4106 84.8933 32.3451 85.1695 32.2468C85.4456 32.1485 85.6983 32.0292 85.9277 31.8888C86.157 31.7437 86.3606 31.5869 86.5385 31.4184C86.721 31.2499 86.8731 31.079 86.9948 30.9059C87.1165 30.7327 87.2101 30.5665 87.2756 30.4074C87.3412 30.2483 87.3739 30.1055 87.3739 29.9792C87.3739 29.8528 87.3388 29.7522 87.2686 29.6773C87.2031 29.6024 87.1235 29.5649 87.0299 29.5649C86.824 29.5649 86.5923 29.6398 86.3349 29.7896C86.0775 29.9347 85.82 30.1383 85.5626 30.4004C85.3052 30.6578 85.0618 30.962 84.8325 31.3131C84.6078 31.6641 84.4253 32.0409 84.2849 32.4434ZM92.0083 28.8348C91.9849 28.8769 91.9545 28.9237 91.9171 28.9752C91.8796 29.022 91.8422 29.0782 91.8047 29.1437C91.772 29.2046 91.7416 29.2771 91.7135 29.3613C91.6901 29.4456 91.6784 29.5462 91.6784 29.6632C91.6784 29.7615 91.7018 29.8949 91.7486 30.0634C91.8001 30.2319 91.8539 30.4261 91.9101 30.6461C91.9662 30.8614 92.0177 31.0978 92.0645 31.3552C92.116 31.6079 92.1417 31.87 92.1417 32.1415C92.1417 32.5393 92.0879 32.8904 91.9803 33.1946C91.8726 33.4988 91.7299 33.7586 91.552 33.9739C91.9171 33.7773 92.2751 33.4965 92.6261 33.1314C92.9772 32.7616 93.3305 32.2936 93.6863 31.7273L93.925 31.9379C93.7237 32.2702 93.4944 32.6002 93.2369 32.9278C92.9842 33.2507 92.7057 33.5433 92.4015 33.8054C92.0973 34.0628 91.7696 34.2711 91.4186 34.4302C91.0676 34.594 90.6955 34.6759 90.3023 34.6759C89.9513 34.6759 89.6564 34.5917 89.4178 34.4232C89.1744 34.2594 89.0246 34.0113 88.9684 33.679L89.2212 33.6298C89.2212 33.6579 89.2352 33.7047 89.2633 33.7703C89.2867 33.8311 89.3265 33.892 89.3826 33.9528C89.4388 34.0136 89.516 34.0675 89.6143 34.1143C89.7079 34.1611 89.8249 34.1845 89.9654 34.1845C90.1526 34.1845 90.3187 34.1424 90.4638 34.0581C90.6089 33.9692 90.7353 33.8545 90.8429 33.7141C90.9506 33.5737 91.0418 33.4146 91.1167 33.2367C91.1916 33.0542 91.2501 32.8669 91.2922 32.6751C91.339 32.4832 91.3718 32.2959 91.3905 32.1134C91.4093 31.9309 91.4186 31.7647 91.4186 31.6149C91.4186 31.4652 91.4116 31.299 91.3975 31.1165C91.3882 30.934 91.3765 30.7608 91.3624 30.597C91.3484 30.4285 91.3344 30.2834 91.3203 30.1617C91.311 30.0353 91.3063 29.9534 91.3063 29.916V29.9019C91.2454 29.9675 91.1729 30.0634 91.0886 30.1898C91.0044 30.3161 90.9131 30.4542 90.8148 30.604C90.7212 30.7538 90.6253 30.9059 90.527 31.0603C90.4334 31.2148 90.3468 31.3552 90.2672 31.4816C90.1924 31.6079 90.1292 31.7132 90.0777 31.7975C90.0309 31.877 90.0075 31.9192 90.0075 31.9239L89.7547 31.7273C89.7594 31.7226 89.8179 31.622 89.9303 31.4254C90.0426 31.2288 90.19 30.9808 90.3725 30.6812C90.5598 30.377 90.7704 30.0423 91.0044 29.6773C91.2384 29.3075 91.4795 28.9495 91.7275 28.6031L92.0083 28.8348Z" fill="black"/>
</svg>
