<svg width="24" height="24" viewBox="0 0 24 24" fill="none" xmlns="http://www.w3.org/2000/svg">
<path d="M20.993 13.7204C20.6297 13.7204 20.2898 13.7603 19.957 13.9197C19.6219 14.079 19.3359 14.3579 19.1484 14.679C18.7406 15.3868 18.8203 16.2634 19.3336 16.8915C19.418 16.9947 19.5187 17.0814 19.6078 17.1822C19.6172 17.1939 19.6594 17.2525 19.6266 17.2032C19.6383 17.222 19.65 17.2407 19.6617 17.2595C19.6758 17.2829 19.6875 17.3064 19.6992 17.3322C19.725 17.3861 19.6781 17.2572 19.7062 17.3532C19.7203 17.4001 19.732 17.4447 19.7414 17.4939C19.7508 17.5525 19.7414 17.4118 19.7414 17.5126C19.7414 17.5454 19.7414 17.5759 19.7414 17.6087C19.7414 17.6743 19.7414 17.6275 19.7438 17.6111C19.7391 17.6439 19.732 17.6743 19.725 17.7048C19.7203 17.7259 19.7133 17.747 19.7062 17.7657C19.6781 17.8618 19.725 17.7329 19.6992 17.7868C19.6781 17.8314 19.6523 17.8736 19.6242 17.9157C19.657 17.8665 19.5797 17.965 19.5703 17.9743C19.5422 18.0048 19.5117 18.0329 19.4813 18.0634C19.1039 18.4407 18.7289 18.8157 18.3516 19.1931C18.2273 19.3173 18.1031 19.4439 17.9789 19.5657C17.9602 19.5845 17.9391 19.6032 17.918 19.622C17.8664 19.6689 17.8969 19.6361 17.9086 19.629C17.8805 19.6478 17.8523 19.6642 17.8242 19.6806C17.8055 19.69 17.7844 19.7017 17.7656 19.7087C17.8289 19.6806 17.7422 19.7134 17.7281 19.7181C17.7023 19.7251 17.6766 19.7322 17.6508 19.7368C17.632 19.7415 17.5641 19.7439 17.6344 19.7415C17.5805 19.7439 17.5289 19.7439 17.475 19.7415C17.5453 19.7462 17.4352 19.7345 17.4117 19.7275C17.3813 19.7204 17.3508 19.7087 17.3203 19.6993C17.3766 19.7204 17.3016 19.69 17.2852 19.6806C17.2664 19.6689 17.2477 19.6572 17.2289 19.6478C17.1422 19.5986 17.2523 19.6712 17.2055 19.6337C17.1797 19.6126 17.1562 19.5892 17.1328 19.5681C17.0953 19.5306 17.0578 19.4931 17.0203 19.4556C16.8727 19.3103 16.7039 19.1814 16.5164 19.09C16.1461 18.9095 15.7477 18.8532 15.3422 18.9165C14.5922 19.029 13.943 19.622 13.7742 20.3626C13.732 20.5431 13.7203 20.7259 13.7203 20.9111C13.7203 20.972 13.7227 21.0353 13.7156 21.0962C13.725 21.0165 13.7086 21.1173 13.7062 21.129C13.7016 21.1501 13.6945 21.1689 13.6898 21.19C13.6898 21.1876 13.6547 21.2814 13.6734 21.2345C13.6898 21.197 13.6477 21.279 13.643 21.2884C13.6312 21.3072 13.5539 21.4056 13.6008 21.354C13.5656 21.3915 13.5305 21.4267 13.493 21.4618C13.5398 21.4197 13.5047 21.4548 13.4906 21.4618C13.4648 21.4782 13.4391 21.4947 13.4133 21.5111C13.3945 21.5204 13.3758 21.5298 13.3594 21.5392C13.425 21.5064 13.3383 21.5462 13.3266 21.5486C13.3008 21.5556 13.275 21.5626 13.2516 21.5697C13.2328 21.5743 13.1648 21.5837 13.2352 21.5743C13.2023 21.5767 13.1695 21.579 13.1367 21.579C13.1227 21.579 13.1086 21.579 13.0945 21.579C12.6023 21.579 12.1078 21.579 11.6156 21.579C11.3953 21.579 11.175 21.579 10.9547 21.579C10.8937 21.579 10.8328 21.5814 10.7719 21.5743C10.8445 21.5814 10.7156 21.5579 10.6945 21.5532C10.6687 21.5462 10.6453 21.5368 10.6195 21.5275C10.6359 21.5345 10.6734 21.5579 10.6195 21.5251C10.575 21.4993 10.5305 21.4759 10.4883 21.4431C10.5023 21.4548 10.5305 21.4853 10.4883 21.4407C10.4672 21.4197 10.4461 21.3962 10.4227 21.3751C10.357 21.3118 10.4508 21.4267 10.4016 21.3493C10.3898 21.3329 10.3781 21.3165 10.3687 21.2978C10.357 21.279 10.35 21.2603 10.3383 21.2439C10.2914 21.1642 10.3523 21.3025 10.3242 21.2134C10.3125 21.1736 10.3008 21.1337 10.2891 21.0915C10.2633 21.0001 10.2867 21.1548 10.2844 21.0587C10.2844 21.0353 10.282 21.0118 10.282 20.9907C10.2797 20.8407 10.2797 20.6931 10.2609 20.5431C10.207 20.1447 10.0289 19.7767 9.75234 19.4861C9.23203 18.94 8.37422 18.7267 7.66641 19.0103C7.45781 19.0947 7.27266 19.2025 7.09922 19.3478C6.99609 19.4345 6.90703 19.5353 6.80859 19.6243C6.73125 19.6947 6.83672 19.6079 6.78516 19.6407C6.76172 19.6548 6.73828 19.6712 6.71484 19.6829C6.69609 19.6923 6.675 19.704 6.65625 19.7111C6.71484 19.6853 6.64922 19.7111 6.63516 19.7157C6.58828 19.7298 6.54141 19.7415 6.49453 19.7486C6.56484 19.7392 6.49453 19.7462 6.47578 19.7462C6.43828 19.7486 6.40078 19.7462 6.36328 19.7439C6.43359 19.7486 6.32344 19.7368 6.3 19.7298C6.26953 19.7228 6.23906 19.7111 6.20859 19.7017C6.22266 19.7064 6.2625 19.7298 6.20391 19.697C6.18516 19.6876 6.16406 19.6759 6.14531 19.6665C6.14297 19.6642 6.05156 19.6032 6.10781 19.6454C6.07969 19.6243 6.05625 19.6009 6.03047 19.5751C5.71875 19.2728 5.41406 18.9587 5.10703 18.6517C4.92656 18.4712 4.74375 18.2884 4.56328 18.1079C4.52109 18.0657 4.48125 18.0259 4.43906 17.9837C4.34063 17.8853 4.30781 17.8267 4.275 17.7025C4.27031 17.6814 4.26563 17.6603 4.26094 17.6392C4.23984 17.5407 4.26094 17.6814 4.25859 17.6204C4.25625 17.5712 4.25625 17.5243 4.25859 17.4775C4.25391 17.5478 4.25859 17.4798 4.26328 17.4611C4.26797 17.4353 4.275 17.4095 4.28203 17.3837C4.28906 17.3626 4.29609 17.3415 4.30313 17.3228C4.27969 17.3884 4.31484 17.3017 4.32188 17.2876C4.33828 17.2595 4.35469 17.2314 4.37344 17.2032C4.36406 17.215 4.33359 17.2478 4.38047 17.1939C4.40156 17.1704 4.42266 17.147 4.44609 17.1236C4.48828 17.0814 4.53047 17.0415 4.57031 16.9993C4.84453 16.7157 5.03672 16.3525 5.09297 15.9587C5.20547 15.1806 4.84688 14.379 4.16016 13.9782C3.82969 13.7837 3.46406 13.7181 3.08438 13.7181C3.06094 13.7181 3.03516 13.7181 3.01172 13.7181C2.99531 13.7181 2.86406 13.7017 2.94141 13.7157C2.88984 13.7064 2.84063 13.6923 2.78906 13.6759C2.775 13.6712 2.73047 13.6478 2.78672 13.6759C2.75859 13.6618 2.73281 13.6478 2.70469 13.6314C2.68359 13.6173 2.6625 13.6032 2.64141 13.5892C2.59687 13.5564 2.69297 13.6454 2.62969 13.5775C2.61562 13.5634 2.59922 13.5493 2.58516 13.5353C2.5875 13.5376 2.51953 13.4626 2.55234 13.5025C2.58516 13.5423 2.52422 13.4626 2.52656 13.4626C2.51484 13.4462 2.50547 13.4275 2.49375 13.4087C2.49375 13.4111 2.44922 13.3197 2.47031 13.3665C2.48438 13.4017 2.44922 13.3032 2.44688 13.2915C2.44219 13.2704 2.4375 13.2517 2.43281 13.2306C2.40938 13.1345 2.43281 13.2728 2.42813 13.2118C2.42578 13.1837 2.42578 13.1556 2.42344 13.1298C2.42344 13.1157 2.42344 13.1017 2.42344 13.0876C2.42344 13.0079 2.42344 12.9306 2.42344 12.8509C2.42344 12.5814 2.42344 12.3118 2.42344 12.0423C2.42344 11.7634 2.42344 11.4868 2.42344 11.2079C2.42344 11.0626 2.41406 10.9103 2.42813 10.765C2.41875 10.8447 2.43516 10.7439 2.4375 10.7322C2.44219 10.7111 2.44922 10.6923 2.45391 10.6712C2.46094 10.6525 2.46797 10.6314 2.475 10.6126C2.44687 10.6853 2.48672 10.5939 2.49141 10.5845C2.50078 10.5657 2.5125 10.5493 2.52422 10.5306C2.52422 10.5329 2.58281 10.4532 2.55 10.4907C2.51719 10.5306 2.58516 10.4556 2.58281 10.4579C2.60391 10.4368 2.62734 10.4157 2.65078 10.3947C2.60156 10.4392 2.69766 10.3642 2.71641 10.3525C2.73984 10.3384 2.76094 10.329 2.78438 10.3173C2.72813 10.3454 2.77266 10.322 2.78672 10.3173C2.83828 10.3009 2.8875 10.2868 2.93906 10.2775C2.86875 10.2915 2.99297 10.2775 3.01406 10.2751C3.38438 10.2704 3.72891 10.2329 4.06641 10.0642C4.74141 9.72903 5.17266 8.95324 5.11172 8.20324C5.07891 7.78137 4.91719 7.40403 4.64531 7.08059C4.55625 6.97278 4.43906 6.88606 4.35469 6.77356C4.38984 6.82043 4.32656 6.72434 4.31719 6.70559C4.3125 6.69856 4.27266 6.60246 4.29844 6.67043C4.29141 6.64934 4.28438 6.63059 4.27734 6.60949C4.27031 6.5884 4.26563 6.56731 4.26094 6.54621C4.25859 6.53449 4.24922 6.43371 4.25391 6.5134C4.25156 6.45949 4.25156 6.40793 4.25391 6.35403C4.24922 6.42434 4.25391 6.35637 4.25859 6.33762C4.26328 6.31184 4.27031 6.28606 4.27734 6.26028C4.28438 6.23918 4.29141 6.21809 4.29844 6.19934C4.27734 6.26028 4.30078 6.19465 4.31016 6.17824C4.32188 6.15481 4.33828 6.13137 4.35234 6.10793C4.38047 6.05637 4.36875 6.08215 4.35703 6.09856C4.37812 6.07043 4.40391 6.04465 4.42734 6.02121C4.45781 5.9884 4.49063 5.95793 4.52344 5.92512C4.69453 5.75403 4.86797 5.58059 5.03906 5.40949C5.36719 5.08137 5.69062 4.7509 6.02109 4.42746C6.04922 4.40168 6.075 4.37356 6.10547 4.35012C6.05859 4.38528 6.11719 4.34543 6.12891 4.3384C6.15234 4.32434 6.17578 4.31262 6.20156 4.29856C6.26016 4.26574 6.22266 4.28918 6.20625 4.29387C6.23672 4.28215 6.26719 4.27278 6.29766 4.26574C6.32813 4.25871 6.36094 4.25168 6.39141 4.24699C6.375 4.24934 6.32812 4.24934 6.39375 4.24934C6.41953 4.24934 6.44766 4.24699 6.47344 4.24934C6.49219 4.24934 6.5625 4.25637 6.49219 4.24699C6.53906 4.25403 6.58594 4.26574 6.63281 4.27981C6.64922 4.28449 6.7125 4.31262 6.65391 4.28449C6.68437 4.29856 6.7125 4.31262 6.74063 4.32903C6.75938 4.34074 6.77813 4.35246 6.79688 4.36418C6.74062 4.32668 6.82734 4.38996 6.82969 4.39465C6.84375 4.40871 6.86016 4.42278 6.87422 4.43684C6.91875 4.48137 6.96328 4.52824 7.01016 4.57043C7.15547 4.70871 7.32422 4.83293 7.50703 4.91731C8.23125 5.25715 9.08906 5.12121 9.67734 4.57981C9.95625 4.32199 10.1602 3.96809 10.2352 3.59543C10.2703 3.41965 10.2797 3.24387 10.2797 3.06574C10.2797 3.04465 10.2797 3.02121 10.2797 3.00012C10.2797 2.97903 10.282 2.95559 10.282 2.93449C10.2844 2.83371 10.2727 2.97434 10.2844 2.91574C10.2937 2.86887 10.3078 2.82434 10.3219 2.77981C10.35 2.6884 10.3031 2.81496 10.3289 2.7634C10.3453 2.73059 10.3617 2.70012 10.3828 2.66965C10.3945 2.65324 10.4062 2.63449 10.418 2.61809C10.3758 2.67199 10.4203 2.61809 10.432 2.60637C10.4461 2.59231 10.5398 2.50793 10.4859 2.55012C10.5281 2.51731 10.5727 2.49621 10.6172 2.46809C10.6289 2.46106 10.6781 2.43996 10.6172 2.46574C10.6453 2.45403 10.6758 2.44465 10.7062 2.43528C10.7367 2.4259 10.7672 2.41887 10.8 2.41418C10.7836 2.41653 10.732 2.41887 10.8023 2.41418C10.8258 2.41418 10.8469 2.41184 10.8703 2.41184C10.8867 2.41184 10.9031 2.41184 10.9172 2.41184C11.1187 2.41184 11.3227 2.41184 11.5242 2.41184C12.0352 2.41184 12.5461 2.41184 13.057 2.41184C13.0781 2.41184 13.0992 2.41184 13.1227 2.41184C13.125 2.41184 13.1297 2.41184 13.132 2.41184C13.1484 2.41184 13.2773 2.42824 13.2 2.41418C13.2469 2.42356 13.2914 2.43528 13.3383 2.44934C13.357 2.45403 13.4156 2.48449 13.3547 2.45403C13.3734 2.4634 13.3922 2.47278 13.4086 2.48215C13.4367 2.49621 13.4602 2.51496 13.4859 2.53137C13.4977 2.5384 13.5328 2.57356 13.4883 2.53137C13.5047 2.54543 13.5188 2.55715 13.5328 2.57356C13.5398 2.58059 13.6102 2.65793 13.5867 2.62981C13.5539 2.58996 13.6148 2.66965 13.6125 2.66965C13.6242 2.68606 13.6336 2.70481 13.6453 2.72356C13.6453 2.72121 13.6898 2.81262 13.6687 2.76574C13.6477 2.71887 13.6852 2.81262 13.6852 2.81028C13.6922 2.83137 13.6969 2.85012 13.7016 2.87121C13.7016 2.86887 13.7203 2.96965 13.7133 2.91809C13.7063 2.86653 13.7156 2.96965 13.7156 2.96731C13.7156 2.98371 13.7156 2.99778 13.7156 3.01418C13.718 3.18762 13.7203 3.35403 13.7484 3.52746C13.8703 4.28449 14.4938 4.90793 15.2391 5.06496C15.6117 5.14231 16.0031 5.12121 16.357 4.97824C16.5703 4.89153 16.7578 4.77434 16.9313 4.62434C17.0297 4.53996 17.1117 4.43215 17.2148 4.35246C17.168 4.38762 17.2266 4.34778 17.2383 4.34074C17.2617 4.32668 17.2852 4.31496 17.3109 4.3009C17.3695 4.26809 17.332 4.29153 17.3156 4.29621C17.3461 4.28449 17.3766 4.27512 17.407 4.26809C17.4328 4.26106 17.5406 4.24934 17.4703 4.25403C17.5031 4.25168 17.5336 4.24934 17.5664 4.25168C17.5828 4.25168 17.6766 4.26106 17.6016 4.24934C17.6484 4.25637 17.6953 4.26809 17.7422 4.28215C17.7586 4.28684 17.8219 4.31496 17.7633 4.28684C17.782 4.29621 17.8031 4.30559 17.8219 4.31496C17.8453 4.32903 17.8688 4.34309 17.8922 4.35715C17.9438 4.38996 17.8359 4.30324 17.9156 4.37356C17.9344 4.38996 17.9508 4.40637 17.9672 4.42278C18.0773 4.53059 18.1852 4.64074 18.293 4.74856C18.6773 5.13293 19.0594 5.51496 19.4438 5.89934C19.4836 5.93918 19.5234 5.97668 19.5609 6.01653C19.5633 6.01887 19.5656 6.02121 19.568 6.02356C19.5773 6.03293 19.6547 6.13137 19.6219 6.08215C19.65 6.12434 19.6734 6.16653 19.6969 6.21106C19.7227 6.26496 19.6758 6.13606 19.7039 6.23215C19.7133 6.26262 19.7227 6.29309 19.7297 6.3259C19.7344 6.34699 19.7391 6.36809 19.7414 6.38918C19.7297 6.30949 19.7391 6.41262 19.7391 6.42434C19.7391 6.44778 19.732 6.56028 19.7414 6.48996C19.7344 6.54387 19.718 6.59543 19.7039 6.64699C19.6758 6.74309 19.7227 6.61418 19.6969 6.66809C19.6828 6.69856 19.6664 6.72668 19.65 6.75481C19.643 6.76653 19.6008 6.82512 19.6383 6.77824C19.6242 6.79699 19.6102 6.8134 19.5938 6.82981C19.575 6.84856 19.5562 6.86731 19.5375 6.88606C19.493 6.93059 19.4484 6.97278 19.4062 7.01965C18.8438 7.62199 18.7313 8.49621 19.0969 9.22981C19.2609 9.56028 19.5375 9.84856 19.8586 10.0314C20.1961 10.2212 20.5594 10.2775 20.9438 10.2775C20.9648 10.2775 20.9836 10.2775 21.0047 10.2775C21.0328 10.2775 21.0586 10.2798 21.0867 10.2822C21.0703 10.2798 21.0234 10.2681 21.0891 10.2845C21.1406 10.2962 21.1898 10.3103 21.2391 10.329C21.2227 10.322 21.1852 10.2986 21.2391 10.3314C21.2648 10.3478 21.293 10.3618 21.3188 10.3782C21.3281 10.3853 21.4031 10.4462 21.3469 10.397C21.3633 10.4111 21.3773 10.4228 21.3914 10.4392C21.4055 10.4532 21.4195 10.4697 21.4336 10.4837C21.4992 10.547 21.4055 10.4322 21.4547 10.5095C21.4805 10.5493 21.5039 10.5868 21.525 10.629C21.5508 10.6806 21.5039 10.5517 21.532 10.6454C21.5414 10.6759 21.5508 10.704 21.5602 10.7368C21.5648 10.7579 21.5695 10.779 21.5742 10.8001C21.5625 10.7298 21.5742 10.8001 21.5742 10.8189C21.5742 10.8353 21.5766 10.854 21.5766 10.8704C21.5766 10.8868 21.5766 10.9056 21.5766 10.922C21.5766 11.0017 21.5766 11.0814 21.5766 11.1634C21.5766 11.7118 21.5766 12.2603 21.5766 12.8064C21.5766 12.947 21.5859 13.0923 21.5719 13.2329C21.5789 13.1673 21.5742 13.2212 21.5695 13.2353C21.5602 13.2657 21.5555 13.2962 21.5461 13.3267C21.5391 13.3454 21.532 13.3665 21.525 13.3853C21.5484 13.3243 21.5297 13.3759 21.5227 13.3853C21.4969 13.4298 21.4734 13.4743 21.4406 13.5165C21.4805 13.465 21.4453 13.5072 21.4383 13.5165C21.4172 13.5376 21.3938 13.5587 21.3727 13.5822C21.3633 13.5915 21.3211 13.6243 21.3727 13.5845C21.3516 13.6009 21.3305 13.615 21.3094 13.6267C21.2906 13.6384 21.1781 13.6947 21.2414 13.6689C21.1922 13.6876 21.143 13.6993 21.0914 13.7134C21.0773 13.7181 21.0234 13.7228 21.0891 13.7157C21.0586 13.7181 21.0258 13.7181 20.993 13.7204C20.8102 13.7228 20.632 13.8798 20.6414 14.072C20.6508 14.2595 20.7961 14.4259 20.993 14.4236C21.5273 14.4142 21.9914 14.0954 22.193 13.6009C22.2797 13.3853 22.282 13.1603 22.282 12.9306C22.282 12.3822 22.282 11.8337 22.282 11.2853C22.282 11.147 22.2844 11.0064 22.282 10.8681C22.275 10.3337 21.9516 9.86731 21.4594 9.66809C21.2789 9.59543 21.0891 9.57903 20.8969 9.57903C20.8312 9.57903 20.768 9.57903 20.7023 9.57434C20.6789 9.57199 20.6555 9.56731 20.6297 9.56731C20.5734 9.56496 20.7117 9.58371 20.625 9.56496C20.5758 9.55324 20.5266 9.54621 20.4773 9.53215C20.4375 9.52043 20.4 9.50871 20.3625 9.49465C20.3602 9.49231 20.2781 9.46184 20.3297 9.48293C20.3813 9.50403 20.3039 9.46887 20.2992 9.46887C20.2219 9.43137 20.1492 9.38449 20.0766 9.33528C20.0039 9.2884 20.1305 9.38449 20.0672 9.32824C20.0555 9.31653 20.0414 9.30715 20.0273 9.29543C19.9945 9.26731 19.9641 9.23918 19.9359 9.20871C19.9055 9.17824 19.8797 9.14543 19.8516 9.11496C19.8398 9.1009 19.8164 9.0634 19.8609 9.12668C19.8469 9.10559 19.8305 9.08684 19.8164 9.06574C19.7695 8.99543 19.7273 8.92278 19.6922 8.84778C19.6852 8.83371 19.6781 8.81731 19.6711 8.8009C19.7062 8.87824 19.6805 8.82434 19.6734 8.80324C19.6594 8.75871 19.643 8.71653 19.6313 8.67199C19.6195 8.63215 19.6102 8.58996 19.6031 8.55012C19.6008 8.53371 19.5984 8.51731 19.5938 8.5009C19.5773 8.41887 19.5938 8.55949 19.5938 8.50559C19.5961 8.41653 19.582 8.32981 19.5891 8.2384C19.5891 8.22199 19.5914 8.20559 19.5938 8.18684C19.5984 8.10012 19.5773 8.26418 19.5938 8.17981C19.6008 8.14231 19.6078 8.10481 19.6172 8.06496C19.6266 8.02746 19.6359 7.98996 19.65 7.95246C19.657 7.92668 19.6688 7.90324 19.6758 7.87746C19.6992 7.80949 19.6453 7.93371 19.6828 7.8634C19.7203 7.79074 19.7578 7.71809 19.8047 7.65012C19.8211 7.62668 19.8375 7.60324 19.8539 7.58215C19.8445 7.59387 19.8094 7.63371 19.8516 7.58684C19.8844 7.54934 19.9172 7.51184 19.9523 7.47668C20.0719 7.35481 20.1938 7.23528 20.2805 7.08528C20.4023 6.86965 20.4656 6.61184 20.4469 6.36574C20.4188 6.01184 20.2594 5.72121 20.0133 5.47512C19.6383 5.10012 19.2656 4.72746 18.8906 4.35246C18.757 4.21887 18.6258 4.08528 18.4922 3.95403C18.1875 3.65168 17.782 3.51106 17.3555 3.57434C17.1 3.61184 16.8633 3.73371 16.6734 3.90949C16.6313 3.94934 16.5914 3.98918 16.5516 4.03137C16.5352 4.04778 16.5211 4.06184 16.5047 4.07824C16.4836 4.09934 16.4625 4.11809 16.4391 4.13684C16.425 4.14856 16.357 4.20246 16.4203 4.15324C16.3547 4.20246 16.2844 4.24934 16.2117 4.28684C16.1906 4.29856 16.0641 4.35246 16.1508 4.31965C16.1016 4.3384 16.0523 4.35715 16.0008 4.37121C15.9633 4.38293 15.9258 4.39231 15.8883 4.39934C15.8555 4.40637 15.7547 4.41574 15.8414 4.40871C15.7523 4.41574 15.6633 4.42043 15.5742 4.41574C15.5391 4.4134 15.443 4.39934 15.5297 4.4134C15.4875 4.40637 15.4477 4.39934 15.4055 4.38996C15.3656 4.38059 15.3234 4.36887 15.2836 4.35715C15.2672 4.35246 15.2508 4.34778 15.2367 4.34074C15.2273 4.3384 15.1336 4.3009 15.1852 4.32199C15.2391 4.34309 15.1617 4.31262 15.157 4.31028C15.143 4.30324 15.1266 4.29621 15.1125 4.28918C15.075 4.27043 15.0375 4.24934 15.0023 4.22824C14.9672 4.20715 14.932 4.18137 14.8969 4.15793C14.8805 4.14856 14.8477 4.11574 14.9086 4.16731C14.8898 4.1509 14.8687 4.13449 14.85 4.11809C14.7867 4.06184 14.7281 4.0009 14.6742 3.93528C14.6344 3.8884 14.6766 3.93762 14.6813 3.94699C14.6695 3.93059 14.6555 3.91184 14.6438 3.89543C14.618 3.85559 14.5922 3.81574 14.5688 3.77356C14.5477 3.73606 14.5289 3.69621 14.5102 3.65637C14.55 3.7384 14.4961 3.61418 14.4891 3.59074C14.4773 3.5509 14.4656 3.5134 14.4563 3.47356C14.4516 3.45012 14.4469 3.42903 14.4422 3.40559C14.4398 3.39153 14.4281 3.29778 14.4375 3.38684C14.4234 3.2509 14.4305 3.11496 14.4258 2.97668C14.4164 2.7259 14.3414 2.47746 14.1938 2.27356C13.9406 1.92434 13.5516 1.72278 13.1203 1.72043C12.6398 1.71809 12.1617 1.72043 11.6812 1.72043C11.1773 1.72043 10.582 1.64074 10.1461 1.94309C9.92812 2.09543 9.76875 2.29699 9.67031 2.54309C9.59531 2.7259 9.58125 2.92043 9.58125 3.11731C9.58125 3.18762 9.58125 3.25793 9.57422 3.32824C9.57187 3.34699 9.56953 3.36574 9.56719 3.38449C9.57656 3.30246 9.56953 3.36809 9.56484 3.38918C9.55312 3.4384 9.54375 3.48762 9.52969 3.53684C9.51797 3.57903 9.50156 3.62121 9.4875 3.6634C9.46641 3.72434 9.4875 3.6634 9.49219 3.65403C9.48281 3.67278 9.47344 3.69387 9.46406 3.71262C9.42422 3.79465 9.37266 3.86965 9.32109 3.94465C9.37266 3.86965 9.29531 3.97278 9.27891 3.99153C9.25312 4.01965 9.22734 4.04778 9.19922 4.07356C9.17109 4.09934 9.14297 4.12512 9.11484 4.14856C9.04922 4.20481 9.17812 4.10637 9.10547 4.15559C9.08437 4.16965 9.06328 4.18371 9.04219 4.19778C8.97891 4.23996 8.91328 4.27512 8.84531 4.30793C8.82891 4.31496 8.74922 4.34543 8.83594 4.31262C8.81953 4.31731 8.80547 4.32434 8.78906 4.33137C8.74219 4.34778 8.69297 4.36418 8.64375 4.3759C8.60625 4.38528 8.57109 4.39465 8.53359 4.39934C8.5125 4.40403 8.49141 4.40637 8.47031 4.40871C8.47969 4.40637 8.55234 4.40168 8.48906 4.40637C8.4 4.4134 8.31328 4.41574 8.22187 4.40871C8.20078 4.40637 8.17969 4.40403 8.15859 4.40403C8.24062 4.40871 8.19609 4.41106 8.175 4.40637C8.13281 4.39934 8.09062 4.38996 8.04844 4.38059C8.00625 4.36887 7.96406 4.35715 7.92422 4.34309C7.90781 4.3384 7.89141 4.33137 7.875 4.32434C7.8 4.29856 7.92656 4.35246 7.86094 4.31731C7.77891 4.27512 7.69922 4.23293 7.62422 4.18137C7.60781 4.16965 7.59375 4.16028 7.57969 4.14856C7.64766 4.20012 7.57031 4.13918 7.56094 4.13215C7.53047 4.10637 7.50234 4.07824 7.47187 4.05012C7.34531 3.9259 7.22344 3.80168 7.06641 3.71496C6.58359 3.45012 5.99297 3.52512 5.58047 3.88371C5.47031 3.97981 5.36953 4.08996 5.26641 4.19309C5.06484 4.39465 4.86328 4.59621 4.66172 4.79778C4.47187 4.98762 4.28203 5.17746 4.08984 5.36965C3.93516 5.52434 3.77578 5.67668 3.67969 5.87824C3.44766 6.37043 3.53672 6.94934 3.91172 7.34543C3.94922 7.38528 3.98906 7.42278 4.02656 7.46028C4.04766 7.48137 4.06641 7.50012 4.0875 7.52121C4.10156 7.53528 4.11328 7.54934 4.12734 7.5634C4.13906 7.57746 4.15313 7.59153 4.16484 7.60793C4.14141 7.57746 4.13906 7.57278 4.15313 7.59387C4.2 7.66653 4.25156 7.73684 4.29141 7.81653C4.29844 7.83293 4.30781 7.84934 4.31484 7.86574C4.35703 7.94543 4.29141 7.79543 4.32188 7.87981C4.33594 7.92199 4.35234 7.96184 4.36406 8.00403C4.37578 8.04621 4.38516 8.0884 4.39453 8.13059C4.39922 8.15168 4.40156 8.17278 4.40625 8.19387C4.41797 8.24543 4.39922 8.10481 4.40391 8.18918C4.40859 8.27356 4.41328 8.35793 4.40859 8.44231C4.40625 8.4634 4.40391 8.48449 4.40391 8.50559C4.40391 8.55715 4.42031 8.41887 4.40391 8.5009C4.39687 8.54309 4.38984 8.58293 4.37813 8.62512C4.36875 8.66262 4.35938 8.69778 4.34766 8.73528C4.34063 8.76106 4.28672 8.89231 4.32656 8.80559C4.29375 8.87824 4.25859 8.94856 4.21641 9.01653C4.19531 9.04934 4.17422 9.07981 4.15313 9.11028C4.10625 9.18059 4.20234 9.05403 4.14609 9.11965C4.12969 9.1384 4.11328 9.15949 4.09688 9.17824C4.04297 9.23918 3.97969 9.2884 3.92109 9.34465C3.88359 9.37981 3.98906 9.29778 3.92109 9.34465C3.90703 9.35403 3.89297 9.3634 3.87891 9.37512C3.83672 9.40324 3.79219 9.43137 3.74531 9.45481C3.72891 9.46184 3.71484 9.47121 3.69844 9.47824C3.69609 9.48059 3.61641 9.51574 3.66797 9.49231C3.71953 9.47121 3.63984 9.50168 3.63516 9.50403C3.61875 9.51106 3.60234 9.51574 3.58359 9.52043C3.54141 9.53449 3.49688 9.54621 3.45234 9.55559C3.42891 9.56028 3.40781 9.56496 3.38437 9.56965C3.29297 9.59074 3.42422 9.56965 3.35156 9.57434C3.21797 9.58371 3.08672 9.57668 2.95312 9.58371C2.42578 9.61184 1.97813 9.94231 1.79063 10.4345C1.71094 10.6454 1.71328 10.8681 1.71328 11.0884C1.71328 11.3556 1.71328 11.6204 1.71328 11.8876C1.71328 12.3142 1.69922 12.7431 1.71328 13.1697C1.73203 13.7017 2.06953 14.1611 2.56406 14.3486C2.74688 14.4165 2.93672 14.4259 3.12891 14.4259C3.19219 14.4259 3.25547 14.4259 3.32109 14.4329C3.3375 14.4353 3.43125 14.4493 3.33984 14.4329C3.35859 14.4353 3.37734 14.44 3.39609 14.4423C3.45 14.4517 3.50391 14.4657 3.55547 14.4822C3.59297 14.4939 3.63047 14.5126 3.67031 14.522C3.72188 14.5361 3.59531 14.4845 3.67266 14.522C3.68906 14.529 3.70312 14.5361 3.71953 14.5454C3.75938 14.5642 3.79688 14.5853 3.83203 14.6087C3.84609 14.6181 3.86016 14.6275 3.87656 14.6368C3.88359 14.6415 3.96797 14.7025 3.92344 14.6697C3.87891 14.6345 3.94453 14.6884 3.94688 14.6907C3.96094 14.7025 3.97266 14.7118 3.98438 14.7236C4.01484 14.7517 4.04531 14.7822 4.07578 14.8126C4.10391 14.8431 4.13203 14.8759 4.15781 14.9087C4.09922 14.8384 4.17656 14.9368 4.19063 14.9603C4.2375 15.0306 4.275 15.1056 4.3125 15.1806C4.34063 15.2368 4.31016 15.1759 4.30547 15.1665C4.31484 15.19 4.32422 15.2134 4.33125 15.2368C4.34531 15.2767 4.35703 15.3165 4.36641 15.3564C4.37813 15.3962 4.38516 15.4384 4.39219 15.4806C4.39453 15.4876 4.40156 15.5697 4.39688 15.5087C4.39219 15.4478 4.39922 15.5322 4.39922 15.5368C4.40625 15.6212 4.40625 15.7056 4.39922 15.79C4.39922 15.7947 4.39219 15.879 4.39688 15.8204C4.40156 15.7595 4.39219 15.8439 4.39219 15.8509C4.38516 15.8931 4.37578 15.9353 4.36406 15.9775C4.35469 16.015 4.34297 16.0525 4.32891 16.09C4.32188 16.1111 4.3125 16.1322 4.30547 16.1509C4.32656 16.0947 4.31484 16.1298 4.29844 16.165C4.26094 16.2423 4.21406 16.3173 4.16484 16.3876C4.15313 16.404 4.11328 16.4509 4.16016 16.3947C4.14844 16.4087 4.13672 16.4251 4.12266 16.4392C4.09453 16.472 4.06406 16.5025 4.03359 16.5353C3.90469 16.6665 3.77344 16.7954 3.68906 16.9642C3.57187 17.1986 3.52031 17.4587 3.55547 17.7189C3.6 18.047 3.75703 18.3095 3.98672 18.5392C4.15078 18.7032 4.31484 18.8673 4.47656 19.029C4.81875 19.3712 5.16094 19.7181 5.50547 20.0579C5.81719 20.3673 6.23672 20.5009 6.67031 20.4282C6.92578 20.3861 7.16016 20.2525 7.34531 20.0743C7.38281 20.0368 7.42031 19.9993 7.45781 19.9618C7.47891 19.9407 7.5 19.922 7.52109 19.9009C7.53984 19.8845 7.55859 19.8681 7.575 19.854C7.64297 19.7907 7.51875 19.8915 7.59375 19.8376C7.66641 19.7884 7.73906 19.7415 7.81641 19.7017C7.8375 19.6923 7.85625 19.6829 7.87734 19.6736C7.80937 19.7064 7.84922 19.6853 7.86797 19.6782C7.91719 19.6618 7.96641 19.6431 8.01797 19.629C8.06016 19.6173 8.10234 19.6079 8.14453 19.6009C8.16094 19.5986 8.17734 19.5962 8.19609 19.5915C8.10703 19.6056 8.16797 19.5939 8.19141 19.5939C8.28047 19.5892 8.36953 19.5868 8.45859 19.5939C8.475 19.5962 8.49141 19.5986 8.50781 19.5986C8.41875 19.5915 8.47734 19.5939 8.50078 19.5986C8.53828 19.6056 8.57578 19.6126 8.61094 19.622C8.65078 19.6314 8.69297 19.6431 8.73281 19.6572C8.75391 19.6642 8.77266 19.6712 8.79141 19.6782C8.87812 19.7064 8.74922 19.6548 8.8125 19.6853C8.88047 19.7181 8.94844 19.7509 9.01172 19.7931C9.04688 19.8165 9.08203 19.84 9.11484 19.8634C9.0375 19.8118 9.15 19.8939 9.17109 19.9126C9.22969 19.9665 9.28359 20.0275 9.33516 20.0884C9.27656 20.0157 9.35859 20.1259 9.37031 20.1423C9.39375 20.1798 9.41484 20.215 9.43594 20.2548C9.44766 20.2759 9.49687 20.4001 9.46641 20.3134C9.48281 20.3556 9.49687 20.3978 9.51094 20.44C9.525 20.4845 9.53672 20.529 9.54609 20.5736C9.55078 20.5923 9.55312 20.6111 9.55547 20.6275C9.57188 20.7072 9.55312 20.5689 9.55781 20.6462C9.56719 20.7845 9.56016 20.9228 9.56953 21.0611C9.58594 21.3118 9.66562 21.5532 9.81797 21.7548C10.0734 22.0947 10.4555 22.2822 10.8797 22.2845C11.0672 22.2845 11.2523 22.2845 11.4398 22.2845C11.9695 22.2845 12.4992 22.2845 13.0289 22.2845C13.3359 22.2845 13.6336 22.2236 13.8844 22.0337C14.0977 21.8743 14.25 21.6681 14.3414 21.4173C14.407 21.2392 14.4141 21.054 14.4141 20.8665C14.4141 20.7939 14.4164 20.7212 14.4234 20.6462C14.4281 20.5782 14.4234 20.6439 14.4211 20.6556C14.4258 20.6275 14.4305 20.6017 14.4352 20.5736C14.4445 20.529 14.4563 20.4845 14.4703 20.44C14.4844 20.3978 14.5008 20.3556 14.5148 20.3134C14.4844 20.3978 14.5336 20.2759 14.5453 20.2548C14.5641 20.2197 14.5828 20.1868 14.6039 20.154C14.618 20.1306 14.7047 20.0181 14.6461 20.0884C14.7 20.0228 14.7563 19.9595 14.8195 19.9032C14.8313 19.8915 14.8453 19.8798 14.857 19.8704C14.8594 19.8681 14.925 19.8165 14.8805 19.8493C14.8359 19.8845 14.9016 19.8353 14.9062 19.8329C14.9273 19.8189 14.9484 19.8048 14.9695 19.7907C15.0375 19.7486 15.1102 19.7157 15.1805 19.6782C15.2273 19.6548 15.1008 19.7064 15.1781 19.6806C15.1945 19.6759 15.2086 19.6689 15.225 19.6642C15.2719 19.6478 15.3211 19.6337 15.3703 19.622C15.4102 19.6126 15.4523 19.6056 15.4945 19.5962C15.5156 19.5915 15.5578 19.5939 15.4758 19.5986C15.4922 19.5986 15.5086 19.5939 15.525 19.5939C15.6188 19.5868 15.7102 19.5892 15.8039 19.5962C15.8227 19.5986 15.8695 19.6079 15.7875 19.5939C15.8086 19.5986 15.8297 19.6009 15.8508 19.6056C15.8883 19.6126 15.9258 19.622 15.9633 19.6314C16.0055 19.6431 16.0477 19.6572 16.0875 19.6712C16.0898 19.6736 16.1719 19.7064 16.1203 19.6829C16.0734 19.6618 16.1531 19.6993 16.1625 19.704C16.2398 19.7439 16.3125 19.7907 16.3852 19.84C16.4578 19.8892 16.357 19.8072 16.3922 19.847C16.4086 19.8634 16.4297 19.8775 16.4461 19.8939C16.4719 19.9173 16.4977 19.9431 16.5234 19.9689C16.6523 20.0978 16.7812 20.2267 16.9453 20.3087C17.4375 20.5548 18.0234 20.4775 18.4289 20.1025C18.5344 20.004 18.6328 19.8986 18.7359 19.7954C19.125 19.4064 19.5141 19.0173 19.9031 18.6282C20.0625 18.4689 20.2219 18.3118 20.3156 18.1009C20.5359 17.604 20.4328 17.0392 20.0555 16.6501C20.018 16.6126 19.9805 16.5751 19.9453 16.54C19.9219 16.5165 19.8984 16.4907 19.875 16.4673C19.8586 16.4509 19.8445 16.4275 19.8281 16.4134C19.8117 16.3947 19.8164 16.3993 19.8398 16.4298C19.8305 16.4181 19.8234 16.4064 19.8141 16.3947C19.7648 16.322 19.718 16.2493 19.6805 16.172C19.6781 16.1697 19.643 16.09 19.6641 16.1415C19.6875 16.1931 19.6547 16.1134 19.6523 16.1087C19.6359 16.0642 19.6219 16.0173 19.6102 15.9704C19.6008 15.9329 19.5914 15.8954 19.5844 15.8579C19.5797 15.8392 19.5727 15.7525 19.582 15.8509C19.5797 15.8345 19.5773 15.8181 19.5773 15.7993C19.5703 15.715 19.5703 15.6306 19.5773 15.5462C19.5797 15.5275 19.5914 15.4407 19.5773 15.5392C19.5797 15.5228 19.582 15.5064 19.5844 15.49C19.5914 15.4478 19.6008 15.4079 19.6102 15.3657C19.6195 15.3259 19.6336 15.2837 19.6453 15.2462C19.65 15.2298 19.657 15.2157 19.6617 15.1993C19.6875 15.1243 19.6336 15.2556 19.6641 15.19C19.6992 15.115 19.7391 15.04 19.7859 14.9697C19.7953 14.9556 19.8047 14.9415 19.8141 14.9275C19.8164 14.9228 19.8656 14.8572 19.8305 14.9017C19.7953 14.9462 19.8469 14.8806 19.8516 14.8782C19.8633 14.8665 19.8727 14.8525 19.8844 14.8407C19.9406 14.7775 20.0039 14.7212 20.0695 14.6673C19.9992 14.7259 20.093 14.6532 20.1117 14.6392C20.1445 14.6181 20.1773 14.597 20.2125 14.5782C20.25 14.5572 20.2898 14.5384 20.3297 14.5197C20.2453 14.5595 20.3766 14.5032 20.3953 14.4986C20.4375 14.4845 20.482 14.4728 20.5266 14.4634C20.55 14.4587 20.6578 14.4376 20.618 14.4447C20.5617 14.454 20.6531 14.4423 20.6555 14.44C20.6742 14.4376 20.693 14.4376 20.7141 14.4353C20.7469 14.4329 20.782 14.4329 20.8148 14.4329C20.8687 14.4329 20.9227 14.4329 20.9742 14.4329C21.157 14.4329 21.3352 14.2712 21.3258 14.0814C21.3352 13.8798 21.1898 13.7204 20.993 13.7204Z" fill="black"/>
<path d="M15.5906 12C15.5906 12.0985 15.5859 12.1969 15.5789 12.2953C15.5742 12.3492 15.5695 12.4031 15.5648 12.457C15.5624 12.4711 15.5554 12.5274 15.5648 12.4594C15.5601 12.4922 15.5554 12.5227 15.5507 12.5531C15.5179 12.75 15.471 12.9445 15.4078 13.1344C15.3796 13.2235 15.3468 13.3102 15.3117 13.3969C15.3375 13.3336 15.2953 13.4344 15.2859 13.4555C15.2625 13.507 15.2367 13.5586 15.2109 13.6078C15.1242 13.7766 15.0257 13.9406 14.9179 14.0953C14.9039 14.1164 14.8875 14.1375 14.8734 14.1563C14.864 14.1703 14.8218 14.2242 14.864 14.1703C14.8382 14.2031 14.8125 14.2336 14.7867 14.2664C14.721 14.3438 14.6531 14.4211 14.5828 14.4938C14.5195 14.5594 14.4539 14.6227 14.3835 14.6836C14.3484 14.7141 14.3156 14.7445 14.2804 14.7727C14.2617 14.7891 14.2406 14.8055 14.2218 14.8219C14.2101 14.8313 14.1375 14.8852 14.196 14.843C14.0484 14.9531 13.8937 15.0539 13.732 15.143C13.65 15.1875 13.5679 15.2297 13.4835 15.2695C13.4601 15.2813 13.4367 15.2906 13.4132 15.3024C13.3968 15.3094 13.3335 15.3352 13.3968 15.3094C13.3476 15.3281 13.3007 15.3469 13.2515 15.3656C13.064 15.4336 12.8718 15.4875 12.6773 15.525C12.6351 15.5344 12.5929 15.5414 12.5531 15.5485C12.5273 15.5531 12.5015 15.5578 12.4734 15.5602C12.4125 15.5695 12.5578 15.5531 12.4546 15.5625C12.3515 15.5719 12.2507 15.5813 12.1476 15.586C11.946 15.593 11.7468 15.5813 11.5453 15.5625C11.4421 15.5531 11.5898 15.5695 11.5265 15.5602C11.5007 15.5555 11.4726 15.5531 11.4468 15.5485C11.4046 15.5414 11.3625 15.5344 11.3226 15.525C11.2195 15.5039 11.1164 15.4805 11.0156 15.45C10.9242 15.4242 10.8351 15.3961 10.7484 15.3633C10.7039 15.3469 10.6617 15.3305 10.6171 15.3141C10.5609 15.2906 10.6921 15.3492 10.6007 15.307C10.5726 15.2953 10.5445 15.2813 10.5164 15.2695C10.3453 15.1899 10.1789 15.0961 10.0195 14.993C9.98198 14.9672 9.94214 14.9414 9.90464 14.9156C9.88823 14.9039 9.87183 14.8922 9.85542 14.8805C9.85776 14.8828 9.77808 14.8219 9.81792 14.8524C9.85776 14.8828 9.77808 14.8219 9.78042 14.8242C9.76401 14.8125 9.74761 14.7985 9.73354 14.7844C9.6937 14.7516 9.6562 14.7188 9.6187 14.6836C9.47573 14.5547 9.3398 14.4141 9.21558 14.2664C9.20151 14.25 9.1898 14.236 9.17573 14.2195C9.17808 14.2219 9.11479 14.1422 9.14761 14.182C9.17808 14.2219 9.11948 14.1422 9.11948 14.1445C9.10776 14.1281 9.09605 14.1117 9.08433 14.0953C9.02573 14.011 8.96948 13.9266 8.91792 13.8375C8.87104 13.7578 8.82651 13.6781 8.78433 13.5938C8.76558 13.5563 8.74683 13.5188 8.73042 13.4836C8.7187 13.4602 8.70933 13.4367 8.69761 13.4133C8.69058 13.3992 8.68589 13.3852 8.67886 13.3711C8.69292 13.4016 8.69292 13.4063 8.68355 13.3828C8.61323 13.2024 8.5523 13.0195 8.50776 12.832C8.48433 12.7383 8.46558 12.6469 8.45151 12.5508C8.44683 12.525 8.44214 12.4992 8.4398 12.4711C8.43042 12.4102 8.44683 12.5555 8.43745 12.4524C8.43276 12.3985 8.42573 12.3445 8.42339 12.2906C8.40933 12.0891 8.40933 11.8875 8.42573 11.686C8.43042 11.6367 8.43511 11.5899 8.4398 11.5406C8.44683 11.4703 8.44214 11.5242 8.4398 11.5383C8.44448 11.5125 8.44683 11.4844 8.45151 11.4586C8.46792 11.3602 8.48667 11.2594 8.51011 11.1633C8.55698 10.9711 8.61792 10.7813 8.69292 10.5985C8.66714 10.6641 8.71636 10.5445 8.72573 10.5258C8.74448 10.4836 8.76558 10.4414 8.78667 10.4016C8.83354 10.3102 8.88276 10.2211 8.93667 10.132C8.98354 10.0524 9.03511 9.97736 9.08901 9.90001C9.11245 9.8672 9.13589 9.83439 9.16167 9.80158C9.12183 9.85548 9.16167 9.80158 9.17339 9.78751C9.19214 9.76408 9.21089 9.74064 9.23198 9.7172C9.35386 9.57189 9.48511 9.43595 9.62573 9.31173C9.6937 9.2508 9.76401 9.1922 9.83667 9.13595C9.78276 9.17814 9.83667 9.13595 9.85073 9.12658C9.87183 9.11251 9.89292 9.09611 9.91167 9.08205C9.95386 9.05158 9.99604 9.02345 10.0382 8.99533C10.2023 8.88986 10.3734 8.79376 10.5515 8.71408C10.5726 8.7047 10.6734 8.66251 10.6101 8.6883C10.6593 8.66955 10.7062 8.6508 10.7554 8.63205C10.8492 8.59923 10.9429 8.56876 11.039 8.54064C11.1304 8.51486 11.2218 8.49376 11.3156 8.47501C11.3625 8.46564 11.4093 8.45626 11.4562 8.44923C11.4773 8.44689 11.4984 8.4422 11.5195 8.43986C11.6039 8.4258 11.475 8.4422 11.5523 8.43517C11.7585 8.41408 11.9648 8.4047 12.171 8.41173C12.2695 8.41642 12.3656 8.42345 12.4617 8.43517C12.532 8.4422 12.4781 8.43751 12.464 8.43517C12.4898 8.43986 12.5179 8.4422 12.5437 8.44689C12.6023 8.45626 12.6585 8.46564 12.7171 8.47736C12.907 8.5172 13.0945 8.57111 13.275 8.63673C13.3195 8.65314 13.3617 8.66955 13.4062 8.6883C13.3406 8.66251 13.4601 8.71173 13.4789 8.72111C13.5679 8.76095 13.6546 8.80548 13.7414 8.8547C13.821 8.89923 13.9007 8.94611 13.9781 8.99767C14.0156 9.02345 14.0554 9.04923 14.0929 9.07501C14.114 9.08908 14.1351 9.10548 14.1562 9.11955C14.1679 9.12892 14.2406 9.18283 14.182 9.1383C14.332 9.25314 14.4703 9.38205 14.6015 9.51564C14.6648 9.58126 14.7257 9.64923 14.7843 9.71955C14.8148 9.7547 14.8429 9.78986 14.871 9.82736C14.8312 9.7758 14.864 9.81798 14.871 9.8297C14.8898 9.85548 14.9062 9.87892 14.925 9.9047C15.0375 10.0641 15.1382 10.2305 15.225 10.4039C15.246 10.4461 15.2648 10.486 15.2859 10.5281C15.2953 10.5469 15.3445 10.6664 15.3187 10.6008C15.3585 10.6969 15.3937 10.7953 15.4242 10.8938C15.4828 11.0789 15.5296 11.2688 15.5601 11.4633C15.5648 11.4891 15.5695 11.5149 15.5718 11.543C15.5695 11.5289 15.5648 11.475 15.5718 11.5453C15.5765 11.5945 15.5812 11.6414 15.5859 11.6906C15.5859 11.7938 15.5906 11.8969 15.5906 12C15.5906 12.1828 15.7523 12.361 15.9421 12.3516C16.132 12.3422 16.2937 12.1969 16.2937 12C16.289 11.1211 16.0218 10.2399 15.5062 9.52501C14.9906 8.80783 14.2828 8.26642 13.4531 7.96173C11.7867 7.34767 9.82026 7.88439 8.69761 9.26017C8.13276 9.95158 7.79292 10.7836 7.72026 11.6742C7.64761 12.5555 7.86558 13.4649 8.32495 14.2195C8.76558 14.9461 9.42886 15.5485 10.2046 15.8977C11.0414 16.275 11.9648 16.3828 12.8671 16.2047C14.5734 15.8672 15.9656 14.4281 16.2351 12.7078C16.2726 12.4735 16.2937 12.2367 16.296 12C16.296 11.8172 16.1343 11.6391 15.9445 11.6485C15.75 11.6578 15.5906 11.8031 15.5906 12Z" fill="black"/>
</svg>
