<svg width="24" height="24" viewBox="0 0 24 24" fill="none" xmlns="http://www.w3.org/2000/svg">
<path d="M12 12.375C10.3458 12.375 9 11.0292 9 9.375C9 7.72083 10.3458 6.375 12 6.375C13.6542 6.375 15 7.72083 15 9.375C15 11.0292 13.6542 12.375 12 12.375ZM12 7.5C10.9662 7.5 10.125 8.34119 10.125 9.375C10.125 10.4088 10.9662 11.25 12 11.25C13.0338 11.25 13.875 10.4088 13.875 9.375C13.875 8.34119 13.0338 7.5 12 7.5Z" fill="black"/>
<path fill-rule="evenodd" clip-rule="evenodd" d="M6.27502 19.3455C6.7533 19.63 10.9775 22.125 11.996 22.125C12.1622 22.1133 12.4358 22.0854 13.1312 21.7899C13.4172 21.6683 13.5502 21.338 13.429 21.052C13.3074 20.766 12.9774 20.6327 12.691 20.7543C12.2206 20.9545 12.044 20.9919 12.011 20.9989C12.0067 20.9998 12.0049 21.0002 12.0051 21.0004C11.6005 20.9663 9.56763 19.9786 7.125 18.5413V17.4375C7.125 16.7838 7.37769 16.1711 7.83691 15.7119C8.29614 15.2531 8.909 15 9.5625 15H14.4375C14.8418 15 15.2252 15.0941 15.5771 15.2802C15.8522 15.4244 16.192 15.3197 16.3374 15.045C16.4821 14.77 16.377 14.4298 16.1023 14.2848C15.594 14.0167 15.0183 13.875 14.4375 13.875H9.5625C8.60834 13.875 7.71313 14.2449 7.0415 14.9165C6.36969 15.5881 5.99982 16.4835 6 17.4375V18.8621C6 19.0605 6.10455 19.244 6.27502 19.3455Z" fill="black"/>
<path d="M17.205 16.125C16.8934 16.125 16.6425 16.3759 16.6425 16.6875V17.0083C16.3825 17.1019 16.1439 17.2415 15.9372 17.4185L15.6567 17.2566C15.3868 17.1008 15.0442 17.1925 14.8884 17.4624L14.7009 17.7876C14.5451 18.0575 14.6368 18.4001 14.9067 18.5559L15.1821 18.7148C15.157 18.8482 15.1425 18.9849 15.1425 19.125C15.1425 19.2651 15.157 19.4018 15.1821 19.5352L14.9067 19.6941C14.6368 19.8499 14.5451 20.1925 14.7009 20.4624L14.8884 20.7876C15.0442 21.0575 15.3868 21.1492 15.6567 20.9934L15.9372 20.8315C16.1439 21.0085 16.3825 21.1481 16.6425 21.2417V21.5625C16.6425 21.8741 16.8934 22.125 17.205 22.125H17.58C17.8916 22.125 18.1425 21.8741 18.1425 21.5625V21.2417C18.4028 21.1481 18.6417 21.0086 18.8486 20.8315L19.1284 20.9934C19.3982 21.1492 19.7416 21.0575 19.8974 20.7876L20.0849 20.4624C20.2407 20.1925 20.1482 19.8499 19.8784 19.6941L19.603 19.5352C19.6281 19.4018 19.6425 19.2651 19.6425 19.125C19.6425 18.9849 19.6281 18.8482 19.603 18.7148L19.8784 18.5559C20.1482 18.4001 20.2407 18.0575 20.0849 17.7876L19.8974 17.4624C19.7416 17.1925 19.3982 17.1008 19.1284 17.2566L18.8486 17.4185C18.6417 17.2414 18.4028 17.1019 18.1425 17.0083V16.6875C18.1425 16.3759 17.8916 16.125 17.58 16.125H17.205V16.125ZM17.3925 18C18.0088 18 18.5175 18.5087 18.5175 19.125C18.5175 19.7413 18.0088 20.25 17.3925 20.25C16.7762 20.25 16.2675 19.7413 16.2675 19.125C16.2675 18.5087 16.7762 18 17.3925 18Z" fill="black"/>
<path fill-rule="evenodd" clip-rule="evenodd" d="M21.5999 15.8097C21.8603 14.9183 22 13.9755 22 13C22 7.47715 17.5228 3 12 3C6.47715 3 2 7.47715 2 13C2 13.9755 2.13967 14.9183 2.40011 15.8097C2.12565 16.0683 1.86164 16.3379 1.60878 16.6178C1.21435 15.4848 1 14.2674 1 13C1 6.92487 5.92487 2 12 2C18.0751 2 23 6.92487 23 13C23 14.2674 22.7856 15.4848 22.3912 16.6178C22.1384 16.3379 21.8743 16.0683 21.5999 15.8097Z" fill="black"/>
</svg>
