<svg width="24" height="24" viewBox="0 0 24 24" fill="none" xmlns="http://www.w3.org/2000/svg">
<path d="M2 7.95V10.8917V18.5583C2 19.2917 2.59583 19.8875 3.32917 19.8875H20.25C20.9833 19.8875 21.5792 19.2917 21.5792 18.5583V10.8917V7.95V7.82083C21.5792 7.0875 20.9833 6.49167 20.25 6.49167H20.1208H15.7417V5.41667C15.7417 4.63333 15.0792 4 14.2625 4H9.32083C8.50417 4 7.84167 4.6375 7.84167 5.41667V6.4875H3.4625H3.32917C2.59583 6.4875 2 7.08333 2 7.81667V7.95ZM20.2542 19.0583H3.32917C3.05417 19.0583 2.83333 18.8333 2.83333 18.5625V12.4167C3.11667 12.6 3.45833 12.7125 3.82083 12.7125H10.3375V13.5667C10.3375 14.3667 10.9917 15.0208 11.7917 15.0208C12.175 15.0208 12.55 14.8667 12.8208 14.5958C13.0958 14.3208 13.25 13.9542 13.25 13.5667V12.7125H19.7667C20.1292 12.7125 20.4708 12.6042 20.7542 12.4167V18.5583C20.75 18.8333 20.525 19.0583 20.2542 19.0583ZM11.1708 11.6125C11.1708 11.5708 11.175 11.5292 11.1833 11.4917C11.2083 11.3708 11.2667 11.2625 11.3542 11.1708C11.4042 11.1208 11.4583 11.0833 11.5208 11.0542C11.5292 11.05 11.5333 11.0458 11.5417 11.0417C11.6 11.0167 11.6667 11 11.7292 10.9958C11.7417 10.9958 11.7542 10.9917 11.7667 10.9917C11.7917 10.9917 11.8208 10.9917 11.8458 10.9958C11.8542 10.9958 11.8667 10.9958 11.875 11C11.9875 11.0208 12.0917 11.0708 12.1833 11.1583C12.3292 11.2917 12.4083 11.4833 12.4083 11.6792V12.7125V13.5667C12.4083 13.7333 12.3417 13.8875 12.225 14.0083C12.1125 14.1208 11.95 14.1875 11.7875 14.1875C11.4458 14.1875 11.1667 13.9083 11.1667 13.5667V12.7125V11.6125H11.1708ZM8.675 5.41667C8.675 5.09583 8.96667 4.83333 9.32083 4.83333H14.2583C14.6167 4.83333 14.9042 5.09583 14.9042 5.41667V6.4875H8.675V5.41667ZM7.84167 7.325H15.7417H20.1208C20.4667 7.325 20.75 7.60833 20.75 7.95417V10.8958C20.75 11.4417 20.3083 11.8833 19.7625 11.8833H13.2458V11.6833V11.6125C13.2458 10.9792 12.8333 10.4417 12.2667 10.2458C12.2625 10.2458 12.2583 10.2417 12.2542 10.2417C12.1792 10.2167 12.1 10.1958 12.0208 10.1833C11.9833 10.175 11.9458 10.175 11.9083 10.1708C11.8708 10.1667 11.8333 10.1583 11.7958 10.1583C11.7792 10.1583 11.7625 10.1625 11.7458 10.1625C11.7292 10.1625 11.7167 10.1583 11.7 10.1625C11.6625 10.1667 11.625 10.175 11.5875 10.1792C11.5542 10.1833 11.5167 10.1875 11.4833 10.1958C11.4208 10.2083 11.3583 10.2292 11.3 10.25C11.275 10.2583 11.25 10.2667 11.225 10.275C11.1583 10.3042 11.0958 10.3375 11.0333 10.375C11.0167 10.3833 11 10.3917 10.9833 10.4042C10.9083 10.4542 10.8333 10.5125 10.7708 10.5792C10.4958 10.8542 10.3417 11.2208 10.3417 11.6083V11.875H3.82083C3.275 11.875 2.83333 11.4333 2.83333 10.8875V7.94583C2.83333 7.6 3.11667 7.31667 3.4625 7.31667H7.84167V7.325Z" fill="black"/>
</svg>
