<svg width="24" height="24" viewBox="0 0 24 24" fill="none" xmlns="http://www.w3.org/2000/svg">
<path d="M4 20.3212C6.83333 21.4878 13.1 22.9212 15.5 19.3212C18.5 14.8212 13.5 15.8212 12.5 18.3212C11.5 20.8212 14 25.3212 21 18.8212" stroke="#212121" stroke-linecap="round"/>
<path d="M14.808 4.5259C15.8178 3.52141 17.4506 3.52566 18.4551 4.5354C19.4596 5.54514 19.4554 7.17801 18.4456 8.1825L14.9045 11.7053C14.8571 11.7524 14.7804 11.7522 14.7333 11.7048L11.2664 8.21987C11.2193 8.17247 11.2195 8.09581 11.2669 8.04866L14.808 4.5259Z" stroke="#212121"/>
<path d="M19.0052 7.82117C19.6073 8.1545 20.1491 9.42117 17.5 11.8212" stroke="#212121" stroke-linecap="round"/>
<path fill-rule="evenodd" clip-rule="evenodd" d="M10.4246 8.74579C10.1551 8.88351 9.90378 9.06841 9.68299 9.30036L4.71348 14.521C3.76037 15.5223 3.77983 17.101 4.75732 18.0785C5.72893 19.0501 7.29604 19.076 8.29923 18.1371L13.5615 13.2117C13.8013 12.9872 13.9919 12.7303 14.133 12.4542L13.3655 11.6867C13.281 11.9808 13.1184 12.2568 12.8782 12.4816L7.61588 17.407C7.00652 17.9773 6.05461 17.9616 5.46442 17.3714C4.87067 16.7777 4.85885 15.8187 5.4378 15.2105L10.4073 9.98983C10.6304 9.75543 10.9025 9.59644 11.192 9.51323L10.4246 8.74579Z" fill="#212121"/>
<path d="M5 17.8212L4.20707 18.8211" stroke="#212121" stroke-linecap="round"/>
</svg>
