<svg width="24" height="24" viewBox="0 0 24 24" fill="none" xmlns="http://www.w3.org/2000/svg">
<g clip-path="url(#clip0)">
<path d="M2 17.9083H11.6708L12.625 18.8625L11.8708 23.6125L14.0875 22.0458L15.725 24.4917L16.15 21.8333L16.65 24.5417L18.2333 22.0417L20.4875 23.5375L19.6417 18.9375L20.8667 17.7167L20.1167 16.9667C20.2958 16.6542 20.4292 16.325 20.525 15.9875H21.5875V14.3583V13.525V5H2.00417V17.9083H2ZM15.2375 22.2708L14.3 20.875L13 21.7917L13.4042 19.2458L13.9542 18.7C14.0208 18.7375 14.0875 18.7708 14.1542 18.8042C14.4083 18.9333 14.6708 19.0333 14.9333 19.1083V20.1667H15.575L15.2375 22.2708ZM17.9833 20.875L17.0833 22.3L16.6875 20.1667H17.3958V19.1083C17.7042 19.0208 17.9958 18.9042 18.2625 18.7583C18.3 18.7417 18.3375 18.7208 18.375 18.7L18.8333 19.1542L19.3125 21.7542L17.9833 20.875ZM20.75 15.1458H19.8458L19.7833 15.4833C19.6958 15.9375 19.5167 16.3792 19.2417 16.7875L19.0542 17.0708L19.6875 17.7042L19.4625 17.9292L19.1292 18.2625L18.5083 17.6292L18.2208 17.8167C18.1167 17.8833 18.0083 17.95 17.8833 18.0125C17.5875 18.175 17.2583 18.2917 16.9083 18.3583L16.5708 18.425V19.3208H16.5583H15.775V18.4208L15.4375 18.3583C15.1375 18.3 14.8375 18.2 14.5292 18.0458C14.3917 17.9792 14.2542 17.8958 14.1208 17.8125L13.8375 17.6375L13.2125 18.2625L12.6542 17.7042L13.2833 17.0708L13.0958 16.7875C12.8292 16.3875 12.6458 15.9458 12.5542 15.4792L12.4875 15.1417H11.5833V14.3458H12.4792L12.5458 14.0083C12.6375 13.5375 12.8208 13.0958 13.0875 12.7042L13.2792 12.4208L12.6458 11.7833L13.2042 11.2208L13.8375 11.8542L14.1208 11.6625C14.5292 11.3875 14.9708 11.2083 15.425 11.1208L15.7625 11.0583V10.1542H16.5583V11.0583L16.8958 11.1208C17.35 11.2083 17.8 11.3917 18.2 11.6625L18.4833 11.8542L19.1167 11.2167L19.6792 11.7792L19.0417 12.4125L19.2333 12.6958C19.5 13.0917 19.6875 13.5417 19.775 14L19.8375 14.3375H20.7417V15.1458H20.75ZM20.5208 13.5167C20.425 13.175 20.2917 12.85 20.1125 12.5375L20.7458 11.9042V13.5208H20.5208V13.5167ZM2.83333 5.83333H20.75V11.6708L19.125 10.0458L18.375 10.7958C18.0625 10.6167 17.7333 10.4833 17.3958 10.3875V9.325H14.9333V10.3875C14.5958 10.4792 14.2667 10.6167 13.9542 10.7958L13.2042 10.0458L12.4667 10.7875H5.06667V11.6208H11.6375L11.4708 11.7875L12.2167 12.5375C12.0417 12.8458 11.9042 13.175 11.8083 13.5167H10.75V13.8375H5.06667V14.6708H10.75V15.9792H11.8083C11.9042 16.3208 12.0417 16.65 12.2167 16.9583L12.1 17.075H2.83333V5.83333Z" fill="black"/>
<path d="M16.1664 12.2125C14.7664 12.2125 13.6289 13.35 13.6289 14.75C13.6289 16.15 14.7664 17.2875 16.1664 17.2875C17.5664 17.2875 18.7039 16.15 18.7039 14.75C18.7039 13.35 17.5622 12.2125 16.1664 12.2125ZM16.1664 16.4542C15.2289 16.4542 14.4622 15.6917 14.4622 14.75C14.4622 13.8125 15.2247 13.0459 16.1664 13.0459C17.1081 13.0459 17.8706 13.8084 17.8706 14.75C17.8706 15.6875 17.1039 16.4542 16.1664 16.4542Z" fill="black"/>
<path d="M18.5164 7.82086H5.06641V8.6542H18.5164V7.82086Z" fill="black"/>
</g>
<defs>
<clipPath id="clip0">
<rect width="24" height="24" fill="white"/>
</clipPath>
</defs>
</svg>
