<svg width="24" height="24" viewBox="0 0 24 24" fill="none" xmlns="http://www.w3.org/2000/svg">
<path fill-rule="evenodd" clip-rule="evenodd" d="M5 4.7H19C20.2703 4.7 21.3 5.72975 21.3 7V11.65C21.3 11.8433 21.4567 12 21.65 12C21.8433 12 22 11.8433 22 11.65V7C22 5.34315 20.6569 4 19 4H5C3.34315 4 2 5.34315 2 7V17C2 18.6569 3.34315 20 5 20H12.65C12.8433 20 13 19.8433 13 19.65C13 19.4567 12.8433 19.3 12.65 19.3H5C3.72974 19.3 2.7 18.2703 2.7 17V7C2.7 5.72975 3.72975 4.7 5 4.7Z" fill="#212121"/>
<rect x="5" y="8" width="17" height="0.7" rx="0.35" fill="#212121"/>
<path d="M17.5 17.619C17.0144 17.619 16.625 17.1905 16.625 16.6667C16.625 16.1381 17.0144 15.7143 17.5 15.7143C17.7321 15.7143 17.9546 15.8146 18.1187 15.9932C18.2828 16.1718 18.375 16.4141 18.375 16.6667C18.375 16.9193 18.2828 17.1615 18.1187 17.3401C17.9546 17.5187 17.7321 17.619 17.5 17.619ZM20.125 19.0476V14.2857H14.875V19.0476H20.125ZM20.125 13.3333C20.3571 13.3333 20.5796 13.4337 20.7437 13.6123C20.9078 13.7909 21 14.0331 21 14.2857V19.0476C21 19.3002 20.9078 19.5424 20.7437 19.7211C20.5796 19.8997 20.3571 20 20.125 20H14.875C14.3894 20 14 19.5714 14 19.0476V14.2857C14 13.7571 14.3894 13.3333 14.875 13.3333H15.3125V12.381C15.3125 11.7495 15.543 11.1439 15.9532 10.6974C16.3634 10.2508 16.9198 10 17.5 10C17.7873 10 18.0717 10.0616 18.3371 10.1812C18.6025 10.3009 18.8437 10.4763 19.0468 10.6974C19.2499 10.9185 19.4111 11.1809 19.521 11.4698C19.6309 11.7587 19.6875 12.0683 19.6875 12.381V13.3333H20.125ZM17.5 10.9524C17.1519 10.9524 16.8181 11.1029 16.5719 11.3708C16.3258 11.6387 16.1875 12.0021 16.1875 12.381V13.3333H18.8125V12.381C18.8125 12.0021 18.6742 11.6387 18.4281 11.3708C18.1819 11.1029 17.8481 10.9524 17.5 10.9524Z" fill="#212121"/>
</svg>
