<svg width="34" height="34" viewBox="0 0 34 34" fill="none" xmlns="http://www.w3.org/2000/svg">
<path fill-rule="evenodd" clip-rule="evenodd" d="M5.16377 1.0625H28.961C31.2146 1.0625 33.0625 2.91043 33.0625 5.1639V28.9611C33.0625 31.2146 31.2146 33.0625 28.961 33.0625H5.16377C2.91037 33.0625 1.0625 31.2146 1.0625 28.961V5.1639C1.0625 2.91043 2.91037 1.0625 5.16377 1.0625Z" fill="#FFC700"/>
<g clip-path="url(#clip0)">
<path d="M24.6323 22.7196L21.0198 19.0894C20.7364 18.8061 20.3645 18.6467 19.9573 18.6467C19.55 18.6467 19.1781 18.8061 18.8948 19.0894L14.3437 23.6582C14.1843 23.8176 13.8833 23.8176 13.7239 23.6582L12.3073 22.2415C12.0239 21.9582 11.6521 21.7988 11.2448 21.7988C10.8375 21.7988 10.4656 21.9582 10.1823 22.2415L9.34997 23.0738C9.01351 23.4103 8.83643 23.8353 8.83643 24.2957V25.8363C8.83643 27.1113 9.86351 28.1384 11.1385 28.1384H22.826C24.101 28.1384 25.1281 27.1113 25.1281 25.8363V23.9238C25.1458 23.4811 24.9687 23.0384 24.6323 22.7196Z" fill="#161617"/>
<path d="M7.6145 21.0728C7.31346 21.0728 7.08325 20.8426 7.08325 20.5416V8.85408C7.08325 7.57909 8.11034 6.552 9.38534 6.552H24.6145C25.8895 6.552 26.9166 7.57909 26.9166 8.85408V20.1874C26.9166 20.4885 26.6864 20.7187 26.3853 20.7187C26.0843 20.7187 25.8541 20.4885 25.8541 20.1874V8.85408C25.8541 8.16346 25.3051 7.6145 24.6145 7.6145H9.38534C8.69471 7.6145 8.14575 8.16346 8.14575 8.85408V20.5416C8.14575 20.8426 7.91554 21.0728 7.6145 21.0728Z" fill="#161617"/>
<path d="M14.4676 16.3625C15.2891 16.3625 15.9551 15.6965 15.9551 14.875C15.9551 14.0534 15.2891 13.3875 14.4676 13.3875C13.6461 13.3875 12.9801 14.0534 12.9801 14.875C12.9801 15.6965 13.6461 16.3625 14.4676 16.3625Z" fill="#161617"/>
</g>
<defs>
<clipPath id="clip0">
<rect width="22.6667" height="22.6667" fill="white" transform="translate(5.66663 5.66663)"/>
</clipPath>
</defs>
</svg>
