<svg width="34" height="34" viewBox="0 0 34 34" fill="none" xmlns="http://www.w3.org/2000/svg">
<path fill-rule="evenodd" clip-rule="evenodd" d="M5.16377 1.0625H28.961C31.2146 1.0625 33.0625 2.91043 33.0625 5.1639V28.9611C33.0625 31.2146 31.2146 33.0625 28.961 33.0625H5.16377C2.91037 33.0625 1.0625 31.2146 1.0625 28.961V5.1639C1.0625 2.91043 2.91037 1.0625 5.16377 1.0625Z" fill="#FFC700"/>
<path d="M19.7291 6.39584C19.6113 6.39418 19.4943 6.41594 19.385 6.45986C19.2757 6.50378 19.1762 6.56899 19.0923 6.6517C19.0085 6.73441 18.9419 6.83296 18.8964 6.94163C18.8509 7.05031 18.8275 7.16693 18.8275 7.28473C18.8275 7.40253 18.8509 7.51915 18.8964 7.62783C18.9419 7.7365 19.0085 7.83505 19.0923 7.91776C19.1762 8.00046 19.2757 8.06567 19.385 8.1096C19.4943 8.15352 19.6113 8.17528 19.7291 8.17362H24.1735C25.1738 8.17362 25.9513 8.95113 25.9513 9.9514V14.3958C25.9496 14.5136 25.9714 14.6306 26.0153 14.7399C26.0592 14.8492 26.1244 14.9487 26.2071 15.0325C26.2898 15.1164 26.3884 15.183 26.4971 15.2285C26.6057 15.274 26.7224 15.2974 26.8402 15.2974C26.958 15.2974 27.0746 15.274 27.1833 15.2285C27.2919 15.183 27.3905 15.1164 27.4732 15.0325C27.5559 14.9487 27.6211 14.8492 27.665 14.7399C27.709 14.6306 27.7307 14.5136 27.7291 14.3958V9.9514C27.7291 7.997 26.1279 6.39584 24.1735 6.39584H19.7291ZM9.95128 6.39584C7.99687 6.39584 6.39572 7.997 6.39572 9.9514V14.3958C6.39405 14.5136 6.41582 14.6306 6.45974 14.7399C6.50366 14.8492 6.56887 14.9487 6.65158 15.0325C6.73428 15.1164 6.83284 15.183 6.94151 15.2285C7.05018 15.274 7.16681 15.2974 7.28461 15.2974C7.40241 15.2974 7.51903 15.274 7.62771 15.2285C7.73638 15.183 7.83493 15.1164 7.91764 15.0325C8.00034 14.9487 8.06555 14.8492 8.10948 14.7399C8.1534 14.6306 8.17516 14.5136 8.1735 14.3958V9.9514C8.1735 8.95113 8.95101 8.17362 9.95128 8.17362H14.3957C14.5135 8.17528 14.6305 8.15352 14.7398 8.1096C14.8491 8.06567 14.9485 8.00046 15.0324 7.91776C15.1163 7.83505 15.1829 7.7365 15.2284 7.62783C15.2739 7.51915 15.2973 7.40253 15.2973 7.28473C15.2973 7.16693 15.2739 7.05031 15.2284 6.94163C15.1829 6.83296 15.1163 6.73441 15.0324 6.6517C14.9485 6.56899 14.8491 6.50378 14.7398 6.45986C14.6305 6.41594 14.5135 6.39418 14.3957 6.39584H9.95128ZM7.27246 18.8281C7.03671 18.8314 6.8119 18.9281 6.64748 19.0971C6.48306 19.2661 6.3925 19.4934 6.39572 19.7292V24.1736C6.39572 26.128 7.99687 27.7292 9.95128 27.7292H14.3957C14.5135 27.7308 14.6305 27.7091 14.7398 27.6652C14.8491 27.6212 14.9485 27.556 15.0324 27.4733C15.1163 27.3906 15.1829 27.2921 15.2284 27.1834C15.2739 27.0747 15.2973 26.9581 15.2973 26.8403C15.2973 26.7225 15.2739 26.6059 15.2284 26.4972C15.1829 26.3885 15.1163 26.29 15.0324 26.2073C14.9485 26.1245 14.8491 26.0593 14.7398 26.0154C14.6305 25.9715 14.5135 25.9497 14.3957 25.9514H9.95128C8.95101 25.9514 8.1735 25.1739 8.1735 24.1736V19.7292C8.17512 19.6104 8.15292 19.4925 8.10822 19.3825C8.06351 19.2724 7.9972 19.1724 7.9132 19.0884C7.82921 19.0044 7.72923 18.9381 7.61918 18.8934C7.50913 18.8487 7.39123 18.8265 7.27246 18.8281ZM26.828 18.8281C26.5923 18.8314 26.3675 18.9281 26.203 19.0971C26.0386 19.2661 25.9481 19.4934 25.9513 19.7292V24.1736C25.9513 25.1739 25.1738 25.9514 24.1735 25.9514H19.7291C19.6113 25.9497 19.4943 25.9715 19.385 26.0154C19.2757 26.0593 19.1762 26.1245 19.0923 26.2073C19.0085 26.29 18.9419 26.3885 18.8964 26.4972C18.8509 26.6059 18.8275 26.7225 18.8275 26.8403C18.8275 26.9581 18.8509 27.0747 18.8964 27.1834C18.9419 27.2921 19.0085 27.3906 19.0923 27.4733C19.1762 27.556 19.2757 27.6212 19.385 27.6652C19.4943 27.7091 19.6113 27.7308 19.7291 27.7292H24.1735C26.1279 27.7292 27.7291 26.128 27.7291 24.1736V19.7292C27.7307 19.6104 27.7085 19.4925 27.6638 19.3825C27.6191 19.2724 27.5528 19.1724 27.4688 19.0884C27.3848 19.0044 27.2848 18.9381 27.1747 18.8934C27.0647 18.8487 26.9468 18.8265 26.828 18.8281Z" fill="#161617"/>
</svg>
