<svg width="24" height="24" viewBox="0 0 24 24" fill="none" xmlns="http://www.w3.org/2000/svg">
<path fill-rule="evenodd" clip-rule="evenodd" d="M7.54523 10.3463L7.54537 10.3465L7.54523 10.3466L11.9995 13.096L16.4536 10.3465L11.9995 7.59668L7.54523 10.3463Z" fill="#0061FE"/>
<path fill-rule="evenodd" clip-rule="evenodd" d="M20.3662 0.75H3.6337C2.04928 0.75 0.75 2.04933 0.75 3.6338V20.3662C0.75 21.9507 2.04928 23.25 3.6337 23.25H20.3662C21.9507 23.25 23.25 21.9507 23.25 20.3662V3.6338C23.25 2.04933 21.9507 0.75 20.3662 0.75ZM16.4531 16.3264L12.0234 18.98L7.59375 16.3264V15.3547L8.9137 16.2217L12.0117 13.6504L15.119 16.2217L16.4531 15.3547V16.3264ZM19.5083 12.7914L15.0902 15.6736L11.9995 13.0961L8.90789 15.6736L4.49086 12.7914L7.54523 10.3466L7.54505 10.3465L7.54523 10.3464L4.49086 7.90031L8.90789 5.01914L11.9995 7.5968L15.0902 5.01914L19.5083 7.90031L16.4536 10.3466L19.5083 12.7914Z" fill="#0061FE"/>
</svg>
