<svg width="24" height="24" viewBox="0 0 24 24" fill="none" xmlns="http://www.w3.org/2000/svg">
<g clip-path="url(#clip0)">
<path d="M3.6337 0.75H20.3662C21.9507 0.75 23.25 2.04933 23.25 3.6338V20.3662C23.25 21.9507 21.9507 23.25 20.3662 23.25H3.6337C2.04928 23.25 0.75 21.9507 0.75 20.3662V3.6338C0.75 2.04933 2.04928 0.75 3.6337 0.75Z" fill="#F1F1F1"/>
<path d="M6.57144 16.5093L7.13554 17.4836C7.25275 17.6888 7.42125 17.8499 7.61906 17.9672L9.63371 14.48H5.6044C5.6044 14.7071 5.66301 14.9342 5.78023 15.1393L6.57144 16.5093Z" fill="#0066DA"/>
<path d="M12 10.3773L9.98534 6.89014C9.78754 7.00735 9.61904 7.16852 9.50182 7.37365L5.78022 13.8205C5.66521 14.0213 5.60455 14.2485 5.6044 14.4799H9.63369L12 10.3773Z" fill="#00AC47"/>
<path d="M16.3809 17.9672C16.5787 17.8499 16.7472 17.6888 16.8645 17.4836L17.0989 17.0807L18.2198 15.1393C18.337 14.9342 18.3956 14.7071 18.3956 14.48H14.366L15.2234 16.165L16.3809 17.9672Z" fill="#EA4335"/>
<path d="M12 10.3773L14.0147 6.89018C13.8169 6.77296 13.5897 6.71436 13.3553 6.71436H10.6447C10.4103 6.71436 10.1832 6.78029 9.98535 6.89018L12 10.3773Z" fill="#00832D"/>
<path d="M14.3663 14.48H9.6337L7.61905 17.9671C7.81685 18.0843 8.04396 18.1429 8.27839 18.1429H15.7216C15.956 18.1429 16.1831 18.077 16.3809 17.9671L14.3663 14.48Z" fill="#2684FC"/>
<path d="M16.359 10.5971L14.4982 7.37365C14.381 7.16852 14.2125 7.00735 14.0147 6.89014L12 10.3773L14.3663 14.4799H18.3883C18.3883 14.2528 18.3297 14.0257 18.2125 13.8205L16.359 10.5971Z" fill="#FFBA00"/>
</g>
<defs>
<clipPath id="clip0">
<rect width="24" height="24" fill="white"/>
</clipPath>
</defs>
</svg>
