<svg width="24" height="24" viewBox="0 0 24 24" fill="none" xmlns="http://www.w3.org/2000/svg">
<g clip-path="url(#clip0)">
<path d="M19.8796 3.25687C20.2198 3.60182 20.5928 3.9206 20.8939 4.29684C21.6555 5.24838 21.5071 6.58171 20.5812 7.36826C20.3653 7.55171 20.1383 7.72211 19.8917 7.91813C18.8652 6.60133 17.8551 5.30561 16.8399 4.00319C17.8412 3.08395 18.5966 2.77044 19.8796 3.25687ZM16.1216 4.55333C17.1353 5.85225 18.1432 7.14361 19.1652 8.45318L10.432 15.2694C10.1134 15.5146 5.87281 15.835 5.79566 15.8411C5.83643 15.7029 5.86943 15.5789 5.90945 15.4573C7.20497 11.5187 7.07922 11.5749 7.59007 11.1804L16.1216 4.55333ZM7.46806 12.6095C7.28834 13.0835 7.11413 13.5288 6.95535 13.9794C6.93496 14.0373 6.97802 14.1354 7.02024 14.1945C7.20625 14.4547 7.39668 14.7124 7.59936 14.9596C7.6549 15.0274 7.76159 15.1002 7.83957 15.0949C8.30755 15.0625 8.774 15.0081 9.29718 14.9554C8.66214 14.1409 8.06343 13.3731 7.46806 12.6095ZM5.03708 21.0875C6.39245 20.8953 7.94103 21.2223 8.93166 20.2068C9.57017 19.5523 3.79211 19.0721 2.89113 18.2024C1.81655 17.1652 5.27586 16.8446 4.82257 16.9265C4.39382 17.1535 2.88043 17.6795 3.44771 17.9142C4.53031 18.3621 7.83356 18.3648 9.27345 19.3427C9.99135 19.8303 9.87689 20.5791 9.07394 20.925C7.82782 21.462 5.57354 21.297 5.03695 21.0907C5.03538 21.0901 5.03541 21.0877 5.03708 21.0875Z" fill="#6C25C6"/>
</g>
<defs>
<clipPath id="clip0">
<rect width="24" height="24" fill="white"/>
</clipPath>
</defs>
</svg>
