<svg width="24" height="24" viewBox="0 0 24 24" fill="none" xmlns="http://www.w3.org/2000/svg">
<path d="M3.90001 11.37L12.63 20.1C12.3102 20.3668 11.9023 20.5047 11.4861 20.4867C11.07 20.4686 10.6756 20.296 10.38 20.0025L3.99751 13.635C3.6998 13.3386 3.5245 12.9412 3.50643 12.5215C3.48837 12.1019 3.62887 11.6908 3.90001 11.37ZM8.55751 7.14747C8.13563 6.72612 7.56376 6.48945 6.96751 6.48945C6.37125 6.48945 5.79938 6.72612 5.37751 7.14747L4.11751 8.40747C3.97782 8.54799 3.89941 8.73808 3.89941 8.93622C3.89941 9.13436 3.97782 9.32445 4.11751 9.46497L14.535 19.8825C14.6755 20.0222 14.8656 20.1006 15.0638 20.1006C15.2619 20.1006 15.452 20.0222 15.5925 19.8825L16.8525 18.6225C17.2739 18.2006 17.5105 17.6287 17.5105 17.0325C17.5105 16.4362 17.2739 15.8643 16.8525 15.4425L8.55751 7.14747ZM19.8075 4.19997C19.572 3.96391 19.2892 3.78038 18.9776 3.66146C18.6661 3.54253 18.3329 3.4909 18 3.50997C17.6695 3.52255 17.3454 3.6053 17.0493 3.75271C16.7532 3.90012 16.4918 4.10882 16.2825 4.36497L12.4725 8.95497L15.03 11.5125L19.62 7.70247C19.8771 7.49625 20.0875 7.23791 20.2375 6.94445C20.3874 6.651 20.4735 6.3291 20.49 5.99997C20.508 5.66829 20.4558 5.33655 20.3369 5.02639C20.2181 4.71623 20.0351 4.43463 19.8 4.19997H19.8075Z" fill="#494949"/>
</svg>
