<svg width="24" height="24" viewBox="0 0 24 24" fill="none" xmlns="http://www.w3.org/2000/svg">
<path d="M19.4902 19.3397C19.606 19.2225 19.6976 19.0835 19.7595 18.9308C19.8215 18.7781 19.8526 18.6146 19.8511 18.4499L19.8344 7.95674H3.85964L3.87643 18.4499C3.8774 18.7835 4.01038 19.1032 4.24631 19.3391C4.48224 19.5751 4.80195 19.7081 5.1356 19.709H18.592C18.9283 19.7089 19.2511 19.5762 19.4902 19.3397ZM13.9498 16.3512H16.4682V13.8329H17.3076V16.771C17.3082 16.8262 17.2977 16.8811 17.2768 16.9322C17.2559 16.9834 17.225 17.0299 17.1859 17.069C17.1468 17.1081 17.1003 17.139 17.0492 17.1598C16.998 17.1807 16.9432 17.1912 16.8879 17.1907H13.9498V16.3512ZM3.85125 5.85812V7.11729H19.826V5.85812C19.825 5.52446 19.692 5.20475 19.4561 4.96882C19.2202 4.73289 18.9004 4.59992 18.5668 4.59894H17.3076V2.92004H16.4682V4.59894H7.23423V2.92004H6.39478V4.59894H5.11042C4.77407 4.59902 4.45132 4.73174 4.21221 4.9683C4.09636 5.0855 4.00483 5.22446 3.94288 5.37716C3.88093 5.52987 3.84979 5.69333 3.85125 5.85812Z" fill="#494949"/>
</svg>
