<svg width="24" height="24" viewBox="0 0 24 24" fill="none" xmlns="http://www.w3.org/2000/svg">
<path d="M18.0759 6.41447C17.9678 6.14955 17.7833 5.92283 17.5458 5.76323C17.3083 5.60364 17.0287 5.5184 16.7426 5.5184C16.4565 5.5184 16.1769 5.60364 15.9394 5.76323C15.7019 5.92283 15.5174 6.14955 15.4093 6.41447L14.6094 8.34772L15.8093 11.1809L16.7493 8.91436L17.9159 11.7476H16.036L16.9359 13.8742H18.8092L19.5958 15.7474C19.684 15.9488 19.8298 16.1196 20.0148 16.2382C20.1999 16.3568 20.416 16.418 20.6358 16.414C20.783 16.4177 20.9294 16.3914 21.0661 16.3368C21.2028 16.2821 21.327 16.2002 21.4311 16.0961C21.5352 15.992 21.6171 15.8678 21.6718 15.7311C21.7264 15.5944 21.7527 15.448 21.7491 15.3008C21.7491 14.9541 18.2092 6.73445 18.0759 6.41447ZM11.0228 5.01453C10.8602 4.63388 10.5893 4.30938 10.2438 4.08132C9.89838 3.85326 9.49354 3.73169 9.07959 3.73169C8.66564 3.73169 8.26081 3.85326 7.91534 4.08132C7.56988 4.30938 7.29901 4.63388 7.13634 5.01453C1.62991 18.034 1.7499 17.5473 1.7499 18.054C1.74441 18.27 1.7829 18.4848 1.86304 18.6854C1.94317 18.8861 2.06328 19.0683 2.21605 19.2211C2.36882 19.3739 2.55106 19.494 2.7517 19.5741C2.95234 19.6542 3.16719 19.6927 3.38317 19.6872C3.70995 19.6913 4.0305 19.5977 4.30369 19.4183C4.57688 19.239 4.79026 18.9821 4.91644 18.6806L6.06972 15.9141H12.0695L13.2294 18.6939C13.3565 18.9924 13.5695 19.2462 13.8414 19.4231C14.1133 19.6 14.4317 19.692 14.756 19.6872C14.9742 19.6964 15.1919 19.6607 15.3957 19.5822C15.5995 19.5038 15.785 19.3842 15.9407 19.2311C16.0963 19.0779 16.2188 18.8944 16.3006 18.6919C16.3824 18.4894 16.4216 18.2723 16.4159 18.054C16.4159 17.5473 16.5293 18.0073 11.0228 5.01453ZM7.36967 12.7942L9.08293 8.67437L10.7962 12.7942H7.36967Z" fill="#494949"/>
</svg>
