<svg width="24" height="24" viewBox="0 0 24 24" fill="none" xmlns="http://www.w3.org/2000/svg">
<path d="M20.5379 10.6088C19.0856 10.7061 17.001 12.1445 15.9517 12.617C15.2899 12.9846 14.5631 13.2205 13.8115 13.3118C13.1722 13.3118 13.075 12.8602 13.207 11.8526C13.2417 11.6302 13.5405 9.62206 12.0048 9.71239C11.31 9.75408 10.1982 10.4073 7.23799 13.2563L8.40539 10.3239C8.59669 9.8385 8.62685 9.30447 8.4914 8.80064C8.35595 8.29681 8.06207 7.84989 7.65316 7.52588C7.24425 7.20187 6.74198 7.01794 6.22053 7.00125C5.69907 6.98456 5.18608 7.13599 4.75728 7.43319L3.20771 8.46856C3.10751 8.53405 3.03689 8.63612 3.01092 8.75297C2.98496 8.86982 3.0057 8.99219 3.06873 9.09395L3.55515 9.85136C3.62064 9.95156 3.7227 10.0222 3.83955 10.0482C3.9564 10.0741 4.07877 10.0534 4.18054 9.99034L5.8135 8.93413C5.92601 8.86667 6.05671 8.83587 6.1875 8.84601C6.31829 8.85614 6.4427 8.9067 6.54347 8.99068C6.64425 9.07466 6.71641 9.18791 6.74997 9.31473C6.78352 9.44155 6.7768 9.57566 6.73073 9.69849L3.95123 16.6473C3.87677 16.8396 3.87036 17.0516 3.93305 17.248C3.99574 17.4445 4.12376 17.6136 4.29584 17.7272C4.46792 17.8408 4.6737 17.8922 4.879 17.8727C5.08429 17.8532 5.27674 17.7641 5.42437 17.6201C6.6126 16.4318 9.78124 13.3744 11.3656 12.1097C11.2895 12.5213 11.3023 12.9443 11.4029 13.3506C11.5036 13.7568 11.6899 14.1369 11.9493 14.4653C12.1885 14.7064 12.4767 14.8931 12.7944 15.013C13.1121 15.1329 13.4519 15.1831 13.7907 15.1602C14.7984 15.0874 15.7791 14.8008 16.6675 14.3194C17.5986 13.9025 19.447 12.5544 20.5657 12.4641C20.6807 12.4588 20.7893 12.4098 20.8693 12.3272C20.9494 12.2445 20.9949 12.1344 20.9966 12.0194V11.116C21.0046 11.0516 20.9986 10.9863 20.9791 10.9244C20.9595 10.8625 20.9269 10.8056 20.8834 10.7574C20.8398 10.7093 20.7865 10.6711 20.7269 10.6454C20.6672 10.6198 20.6028 10.6073 20.5379 10.6088Z" fill="#494949"/>
</svg>
