<svg width="12" height="13" viewBox="0 0 12 13" fill="none" xmlns="http://www.w3.org/2000/svg">
<path d="M10 9.19337C9.49333 9.19337 9.04 9.38925 8.69333 9.69613L3.94 6.98644C3.97333 6.83626 4 6.68609 4 6.52938C4 6.37268 3.97333 6.2225 3.94 6.07233L8.64 3.38875C9 3.71522 9.47333 3.91763 10 3.91763C11.1067 3.91763 12 3.04269 12 1.95881C12 0.874937 11.1067 0 10 0C8.89333 0 8 0.874937 8 1.95881C8 2.11552 8.02667 2.2657 8.06 2.41587L3.36 5.09945C3 4.77298 2.52667 4.57057 2 4.57057C0.893333 4.57057 0 5.44551 0 6.52938C0 7.61326 0.893333 8.4882 2 8.4882C2.52667 8.4882 3 8.28579 3.36 7.95932L8.10667 10.669C8.07333 10.8061 8.05333 10.9498 8.05333 11.0999C8.05333 12.1512 8.92667 13 10 13C11.0733 13 11.9467 12.1512 11.9467 11.0999C11.9467 10.0487 11.0733 9.19337 10 9.19337ZM10 1.30588C10.3667 1.30588 10.6667 1.5997 10.6667 1.95881C10.6667 2.31793 10.3667 2.61175 10 2.61175C9.63333 2.61175 9.33333 2.31793 9.33333 1.95881C9.33333 1.5997 9.63333 1.30588 10 1.30588ZM2 7.18232C1.63333 7.18232 1.33333 6.8885 1.33333 6.52938C1.33333 6.17027 1.63333 5.87644 2 5.87644C2.36667 5.87644 2.66667 6.17027 2.66667 6.52938C2.66667 6.8885 2.36667 7.18232 2 7.18232ZM10 11.7529C9.63333 11.7529 9.33333 11.4591 9.33333 11.0999C9.33333 10.7408 9.63333 10.447 10 10.447C10.3667 10.447 10.6667 10.7408 10.6667 11.0999C10.6667 11.4591 10.3667 11.7529 10 11.7529Z" fill="#161617"/>
</svg>
