<svg width="27" height="26" viewBox="0 0 27 26" fill="none" xmlns="http://www.w3.org/2000/svg">
<path d="M4.61457 12.3175L14.0721 21.775C13.7256 22.0641 13.2837 22.2135 12.8329 22.194C12.3821 22.1744 11.9548 21.9874 11.6346 21.6694L4.7202 14.7713C4.39769 14.4503 4.20777 14.0197 4.1882 13.565C4.16863 13.1104 4.32084 12.6651 4.61457 12.3175ZM9.6602 7.74315C9.20317 7.28669 8.58364 7.0303 7.9377 7.0303C7.29176 7.0303 6.67223 7.28669 6.2152 7.74315L4.8502 9.10815C4.69887 9.26038 4.61393 9.46631 4.61393 9.68096C4.61393 9.89561 4.69887 10.1015 4.8502 10.2538L16.1358 21.5394C16.2881 21.6907 16.494 21.7757 16.7086 21.7757C16.9233 21.7757 17.1292 21.6907 17.2814 21.5394L18.6464 20.1744C19.1029 19.7174 19.3593 19.0978 19.3593 18.4519C19.3593 17.806 19.1029 17.1864 18.6464 16.7294L9.6602 7.74315ZM21.8477 4.55003C21.5925 4.2943 21.2862 4.09547 20.9487 3.96664C20.6112 3.8378 20.2502 3.78187 19.8896 3.80253C19.5315 3.81616 19.1804 3.9058 18.8596 4.06549C18.5388 4.22519 18.2557 4.45128 18.0289 4.72878L13.9014 9.70128L16.6721 12.4719L21.6446 8.3444C21.923 8.121 22.151 7.84113 22.3135 7.52322C22.4759 7.20531 22.5692 6.85659 22.5871 6.50003C22.6066 6.14071 22.5501 5.78132 22.4213 5.44532C22.2925 5.10931 22.0943 4.80425 21.8396 4.55003H21.8477Z" fill="#161617"/>
</svg>
