<svg width="27" height="26" viewBox="0 0 27 26" fill="none" xmlns="http://www.w3.org/2000/svg">
<g clip-path="url(#clip0)">
<path d="M21.9258 3.52825C22.2944 3.90194 22.6984 4.24728 23.0247 4.65488C23.8498 5.68572 23.689 7.13015 22.686 7.98225C22.452 8.18098 22.2061 8.36559 21.9389 8.57794C20.8269 7.15141 19.7327 5.74772 18.6328 4.33676C19.7176 3.34092 20.5359 3.00128 21.9258 3.52825ZM17.8547 4.93275C18.9529 6.33991 20.0447 7.73888 21.1519 9.15758L11.691 16.5418C11.3458 16.8075 6.75182 17.1546 6.66825 17.1612C6.71242 17.0114 6.74817 16.8771 6.79152 16.7453C8.195 12.4786 8.05878 12.5394 8.61219 12.112L17.8547 4.93275ZM8.48002 13.6603C8.28532 14.1738 8.09659 14.6561 7.92458 15.1443C7.90249 15.2071 7.94914 15.3133 7.99488 15.3773C8.19639 15.6592 8.40269 15.9384 8.62225 16.2062C8.68242 16.2796 8.79801 16.3586 8.88248 16.3527C9.38947 16.3177 9.89479 16.2587 10.4616 16.2016C9.77361 15.3193 9.125 14.4875 8.48002 13.6603ZM5.84645 22.8448C7.31478 22.6365 8.9924 22.9908 10.0656 21.8907C10.7573 21.1816 4.49774 20.6614 3.52167 19.7193C2.35754 18.5956 6.10513 18.2483 5.61407 18.337C5.14959 18.5829 3.51009 19.1527 4.12464 19.407C5.29745 19.8923 8.87598 19.8952 10.4359 20.9546C11.2136 21.4828 11.0896 22.2939 10.2197 22.6688C8.86975 23.2504 6.42762 23.0717 5.84632 22.8482C5.84462 22.8476 5.84465 22.845 5.84645 22.8448Z" fill="#161617"/>
</g>
<defs>
<clipPath id="clip0">
<rect width="26" height="26" fill="white" transform="translate(0.389648)"/>
</clipPath>
</defs>
</svg>
