<svg width="24" height="24" viewBox="0 0 24 24" fill="none" xmlns="http://www.w3.org/2000/svg">
<path d="M13.25 19.5H9.91667C9.68667 19.5 9.5 19.3134 9.5 19.0834C9.5 18.8534 9.68667 18.6667 9.91667 18.6667H13.25C13.9392 18.6667 14.5 18.1059 14.5 17.4167V13.25C14.5 13.02 14.6867 12.8334 14.9167 12.8334C15.1467 12.8334 15.3333 13.02 15.3333 13.25V17.4167C15.3333 18.565 14.3992 19.5 13.25 19.5ZM21.5833 11.1667H13.25C13.02 11.1667 12.8333 10.98 12.8333 10.75C12.8333 10.52 13.02 10.3334 13.25 10.3334H21.5833C21.8133 10.3334 22 10.52 22 10.75C22 10.98 21.8133 11.1667 21.5833 11.1667Z" fill="#FC563D"/>
<path d="M8.66667 22C8.48333 22 8.30417 21.9692 8.135 21.9092L3.14333 20.245C2.46 20.0175 2 19.3825 2 18.6667V3.66667C2 2.7475 2.7475 2 3.66667 2C3.85167 2 4.03167 2.03083 4.19917 2.09167L9.19 3.755C9.87333 3.98167 10.3333 4.61667 10.3333 5.33333V20.3333C10.3333 21.2525 9.58583 22 8.66667 22ZM3.66667 2.83333C3.20667 2.83333 2.83333 3.2075 2.83333 3.66667V18.6667C2.83333 19.0233 3.06333 19.34 3.40667 19.455L8.40667 21.1217C8.95333 21.3158 9.5 20.8783 9.5 20.3333V5.33333C9.5 4.97583 9.27 4.65917 8.92667 4.54583L3.92667 2.87917C3.84083 2.84833 3.75333 2.83333 3.66667 2.83333Z" fill="#FC563D"/>
<path d="M14.9167 8.66667C14.6867 8.66667 14.5 8.48 14.5 8.25V4.08333C14.5 3.39417 13.9392 2.83333 13.25 2.83333H3.66667C3.43667 2.83333 3.25 2.64667 3.25 2.41667C3.25 2.18667 3.43667 2 3.66667 2H13.25C14.3992 2 15.3333 2.935 15.3333 4.08333V8.25C15.3333 8.48 15.1467 8.66667 14.9167 8.66667ZM18.25 14.5C18.1433 14.5 18.0367 14.4592 17.955 14.3783C17.7925 14.2158 17.7925 13.9517 17.955 13.7892L20.9933 10.7508L17.955 7.7125C17.7925 7.55 17.7925 7.28583 17.955 7.12333C18.1175 6.96083 18.3817 6.96083 18.5442 7.12333L21.8775 10.4567C22.04 10.6192 22.04 10.8833 21.8775 11.0458L18.5442 14.3792C18.4633 14.4592 18.3567 14.5 18.25 14.5Z" fill="#FC563D"/>
</svg>
