<svg width="24" height="24" viewBox="0 0 24 24" fill="none" xmlns="http://www.w3.org/2000/svg">
<path d="M10.9688 10.3875C10.8 10.2938 10.575 10.2938 10.4062 10.3875C10.2375 10.4813 10.125 10.6688 10.125 10.875V15C10.125 15.2063 10.2375 15.3938 10.4062 15.4875C10.5 15.5438 10.5938 15.5625 10.6875 15.5625C10.7812 15.5625 10.875 15.5438 10.9688 15.4875L14.5312 13.425C14.7 13.3313 14.8125 13.1438 14.8125 12.9375C14.8125 12.7313 14.7 12.5438 14.5312 12.45L10.9688 10.3875Z" fill="#161617"/>
<path d="M18 6H19.875C20.1938 6 20.4375 5.75625 20.4375 5.4375C20.4375 3.05625 18.5063 1.125 16.125 1.125H6C4.65 1.125 3.5625 2.2125 3.5625 3.5625V20.4375C3.5625 21.7875 4.65 22.875 6 22.875H18C19.35 22.875 20.4375 21.7875 20.4375 20.4375V8.0625C20.4375 7.74375 20.1938 7.5 19.875 7.5C19.5562 7.5 19.3125 7.74375 19.3125 8.0625V20.4375C19.3125 21.1688 18.7312 21.75 18 21.75H6C5.26875 21.75 4.6875 21.1688 4.6875 20.4375V3.5625C4.6875 2.83125 5.26875 2.25 6 2.25H15.5625V3.5625C15.5625 4.9125 16.65 6 18 6ZM16.6875 2.30625C18 2.53125 19.0312 3.58125 19.2562 4.875H18C17.2688 4.875 16.6875 4.29375 16.6875 3.5625V2.30625Z" fill="#161617"/>
</svg>
