<svg width="30" height="34" viewBox="0 0 30 34" fill="none" xmlns="http://www.w3.org/2000/svg">
<path d="M1 29.9612C5.66667 31.8691 15.9882 34.2131 19.9412 28.3259C24.8824 20.9669 16.6471 22.6022 15 26.6905C13.3529 30.7789 17.4706 38.1379 29 27.5082" stroke="#161617" stroke-linecap="round"/>
<path d="M18.5719 3.90058C20.3625 2.13513 23.2582 2.14266 25.0395 3.91742C26.8209 5.69218 26.8134 8.56208 25.0228 10.3275L19.1713 16.0969C18.9747 16.2908 18.6567 16.29 18.4611 16.0951L12.7186 10.3739C12.523 10.179 12.5238 9.86383 12.7204 9.66995L18.5719 3.90058Z" stroke="#161617"/>
<path d="M25.7145 9.5199C26.7062 10.065 27.5987 12.1364 23.2354 16.0612" stroke="#161617" stroke-linecap="round"/>
<path fill-rule="evenodd" clip-rule="evenodd" d="M11.5817 11.0315C11.1379 11.2567 10.724 11.5591 10.3604 11.9383L2.17514 20.4761C0.605366 22.1135 0.637445 24.6952 2.24743 26.2937C3.84773 27.8826 6.42882 27.925 8.08108 26.3895L16.7486 18.3346C17.1435 17.9676 17.4574 17.5475 17.6897 17.096L16.9321 16.3437C16.7459 16.8088 16.4559 17.2418 16.0628 17.6072L7.39528 25.6621C6.13824 26.8302 4.17455 26.798 2.95705 25.5892C1.73217 24.373 1.70777 22.4088 2.90205 21.1631L11.0873 12.6254C11.4512 12.2458 11.8798 11.9651 12.3394 11.7837L11.5817 11.0315Z" fill="#161617"/>
<path d="M2.64701 25.873L1.341 27.5082" stroke="#161617" stroke-linecap="round"/>
</svg>
