<svg width="10" height="14" viewBox="0 0 10 14" fill="none" xmlns="http://www.w3.org/2000/svg">
<path d="M5 3.18182V5.09091L7.5 2.54545L5 0V1.90909C2.2375 1.90909 0 4.18727 0 7C0 7.99909 0.2875 8.92818 0.775 9.71091L1.6875 8.78182C1.3983 8.23421 1.24792 7.62176 1.25 7C1.25 4.89364 2.93125 3.18182 5 3.18182ZM9.225 4.28909L8.3125 5.21818C8.5875 5.75273 8.75 6.35727 8.75 7C8.75 9.10636 7.06875 10.8182 5 10.8182V8.90909L2.5 11.4545L5 14V12.0909C7.7625 12.0909 10 9.81273 10 7C10 6.00091 9.7125 5.07182 9.225 4.28909Z" fill="#F7F8FF"/>
</svg>
