<svg width="24" height="24" viewBox="0 0 24 24" fill="none" xmlns="http://www.w3.org/2000/svg">
<path d="M15.2943 20.3374H8.50564C7.93135 20.3379 7.37908 20.1164 6.96428 19.7193C6.54947 19.3221 6.30424 18.78 6.27983 18.2062L5.77903 6.50124C5.77407 6.35005 5.82907 6.20304 5.93205 6.09224C5.98433 6.03815 6.04704 5.99523 6.11638 5.96606C6.18572 5.93688 6.26025 5.92208 6.33548 5.92253H17.4645C17.5395 5.92247 17.6137 5.93756 17.6827 5.96691C17.7517 5.99625 17.8141 6.03924 17.8661 6.0933C17.918 6.14735 17.9585 6.21135 17.9852 6.28145C18.0118 6.35155 18.024 6.42631 18.021 6.50124L17.5201 18.2117C17.4943 18.7845 17.2485 19.3253 16.8338 19.7213C16.4192 20.1173 15.8677 20.338 15.2943 20.3374ZM6.9114 7.03543L7.39273 18.1645C7.40494 18.4513 7.52756 18.7224 7.73496 18.921C7.94236 19.1196 8.21849 19.2303 8.50564 19.2301H15.2943C15.5815 19.2303 15.8576 19.1196 16.065 18.921C16.2724 18.7224 16.395 18.4513 16.4072 18.1645L16.8886 7.03543H6.9114Z" fill="#222222"/>
<path d="M18.2435 7.03545H5.55645C5.40887 7.03545 5.26734 6.97682 5.16298 6.87247C5.05863 6.76811 5 6.62658 5 6.479C5 6.33142 5.05863 6.18988 5.16298 6.08553C5.26734 5.98117 5.40887 5.92255 5.55645 5.92255H18.2435C18.3911 5.92255 18.5327 5.98117 18.637 6.08553C18.7414 6.18988 18.8 6.33142 18.8 6.479C18.8 6.62658 18.7414 6.76811 18.637 6.87247C18.5327 6.97682 18.3911 7.03545 18.2435 7.03545Z" fill="#222222"/>
<path d="M13.9783 7.03544C13.8307 7.03544 13.6892 6.97682 13.5849 6.87246C13.4805 6.76811 13.4219 6.62657 13.4219 6.47899V5.1129H10.3781V6.47899C10.3781 6.62657 10.3195 6.76811 10.2151 6.87246C10.1107 6.97682 9.96921 7.03544 9.82163 7.03544C9.67405 7.03544 9.53252 6.97682 9.42816 6.87246C9.32381 6.76811 9.26518 6.62657 9.26518 6.47899V4.55645C9.26518 4.40887 9.32381 4.26734 9.42816 4.16298C9.53252 4.05863 9.67405 4 9.82163 4H13.9783C14.1259 4 14.2674 4.05863 14.3718 4.16298C14.4761 4.26734 14.5348 4.40887 14.5348 4.55645V6.47899C14.5348 6.62657 14.4761 6.76811 14.3718 6.87246C14.2674 6.97682 14.1259 7.03544 13.9783 7.03544ZM9.9524 17.3381C9.80813 17.3382 9.66947 17.2823 9.56566 17.1821C9.46184 17.0819 9.401 16.9453 9.39595 16.8012L9.15111 9.50052C9.14724 9.35616 9.19965 9.21595 9.29725 9.10952C9.39486 9.00309 9.53002 8.93877 9.67417 8.93016C9.74749 8.92756 9.82059 8.93948 9.88927 8.96524C9.95796 8.991 10.0209 9.03008 10.0744 9.08025C10.1279 9.13041 10.171 9.19066 10.2012 9.25754C10.2313 9.32441 10.2479 9.39659 10.2501 9.46991L10.5088 16.7622C10.5115 16.8369 10.499 16.9114 10.4722 16.9811C10.4454 17.0509 10.4049 17.1146 10.3529 17.1683C10.301 17.2221 10.2388 17.2648 10.1699 17.294C10.1011 17.3232 10.0271 17.3382 9.9524 17.3381ZM13.8476 17.3381C13.7728 17.3382 13.6988 17.3232 13.63 17.294C13.5612 17.2648 13.499 17.2221 13.447 17.1683C13.3951 17.1146 13.3545 17.0509 13.3277 16.9811C13.3009 16.9114 13.2885 16.8369 13.2911 16.7622L13.5359 9.46435C13.5383 9.39128 13.5551 9.31938 13.5852 9.25278C13.6154 9.18618 13.6584 9.12617 13.7117 9.07618C13.7651 9.02618 13.8277 8.98719 13.8962 8.96142C13.9646 8.93565 14.0374 8.92361 14.1105 8.92598C14.1836 8.92836 14.2554 8.9451 14.322 8.97526C14.3886 9.00542 14.4487 9.0484 14.4987 9.10175C14.5486 9.1551 14.5876 9.21778 14.6134 9.2862C14.6392 9.35462 14.6512 9.42744 14.6488 9.50052L14.404 16.8012C14.399 16.9453 14.3381 17.0819 14.2343 17.1821C14.1305 17.2823 13.9918 17.3382 13.8476 17.3381Z" fill="#222222"/>
</svg>
