<svg width="14" height="14" viewBox="0 0 14 14" fill="none" xmlns="http://www.w3.org/2000/svg">
<path fill-rule="evenodd" clip-rule="evenodd" d="M9.1816 7.98937C10.5894 6.01396 10.4072 3.25378 8.63494 1.48152C6.65958 -0.49384 3.45688 -0.49384 1.48152 1.48152C-0.49384 3.45688 -0.49384 6.65958 1.48152 8.63494C3.25378 10.4072 6.01396 10.5894 7.98937 9.1816L12.8078 14L14 12.8078L9.1816 7.98937ZM7.4427 2.67376C8.75961 3.99066 8.75961 6.12579 7.4427 7.4427C6.12579 8.75961 3.99066 8.75961 2.67376 7.4427C1.35685 6.12579 1.35685 3.99066 2.67376 2.67376C3.99066 1.35685 6.12579 1.35685 7.4427 2.67376Z" fill="#20303C"/>
</svg>
