<svg width="25" height="25" viewBox="0 0 25 25" fill="none" xmlns="http://www.w3.org/2000/svg">
<path d="M7.5 2.5C6.83696 2.5 6.20107 2.76339 5.73223 3.23223C5.26339 3.70107 5 4.33696 5 5V20C5 20.663 5.26339 21.2989 5.73223 21.7678C6.20107 22.2366 6.83696 22.5 7.5 22.5H17.5C18.163 22.5 18.7989 22.2366 19.2678 21.7678C19.7366 21.2989 20 20.663 20 20V9.2675C19.9996 8.77039 19.8017 8.29379 19.45 7.9425L14.5575 3.04875C14.206 2.69748 13.7294 2.50011 13.2325 2.5H7.5ZM6.25 5C6.25 4.66848 6.3817 4.35054 6.61612 4.11612C6.85054 3.8817 7.16848 3.75 7.5 3.75H12.5V8.125C12.5 8.62228 12.6975 9.09919 13.0492 9.45083C13.4008 9.80246 13.8777 10 14.375 10H18.75V20C18.75 20.3315 18.6183 20.6495 18.3839 20.8839C18.1495 21.1183 17.8315 21.25 17.5 21.25H7.5C7.16848 21.25 6.85054 21.1183 6.61612 20.8839C6.3817 20.6495 6.25 20.3315 6.25 20V5ZM18.4913 8.75H14.375C14.2092 8.75 14.0503 8.68415 13.9331 8.56694C13.8158 8.44973 13.75 8.29076 13.75 8.125V4.00875L18.4913 8.75Z" fill="black"/>
</svg>
