<svg width="24" height="24" viewBox="0 0 24 24" fill="none" xmlns="http://www.w3.org/2000/svg">
<g style="mix-blend-mode:screen" opacity="0.8">
<path d="M8.88898 6.04477C6.06106 8.97065 6.67816 13.8263 9.9175 15.9772C10.0242 16.0481 10.1662 16.0341 10.2579 15.9445C10.9399 15.2782 11.5168 14.6327 12.022 13.8119C12.0992 13.6863 12.0512 13.5233 11.9215 13.4531C11.4274 13.1854 10.9358 12.6835 10.659 12.1533L10.6586 12.1534C10.3271 11.4932 10.2142 10.7532 10.3897 9.98886C10.3899 9.98891 10.3901 9.98895 10.3903 9.98895C10.5923 9.01042 11.6428 8.10017 12.4451 7.25834C12.4435 7.25778 12.4418 7.25717 12.4401 7.25661L15.4463 4.18839C16.6443 2.96567 18.6149 2.95559 19.8253 4.16602C21.048 5.36398 21.0682 7.34449 19.8702 8.56716L18.0494 10.4396C17.9651 10.5263 17.9377 10.6527 17.9772 10.767C18.3964 11.9828 18.4996 13.6971 18.2186 14.9922C18.2107 15.0285 18.2555 15.0522 18.2814 15.0257L22.1568 11.0703C24.6325 8.54357 24.6115 4.42967 22.1101 1.92833C19.5574 -0.624357 15.4018 -0.603113 12.8753 1.97546L8.9045 6.02817C8.89925 6.0337 8.89428 6.03933 8.88898 6.04477Z" fill="white"/>
<path d="M16.134 16.5344C16.1339 16.5345 16.1338 16.5347 16.1338 16.5348C16.1363 16.5338 16.1386 16.5328 16.1411 16.5317C16.932 15.0855 17.0877 13.4268 16.717 11.8099L16.7153 11.8116L16.7135 11.8108C16.3615 10.3707 15.3958 8.94065 14.0842 8.06018C13.9714 7.98444 13.7912 7.99321 13.6855 8.07866C13.0211 8.61585 12.3708 9.30471 11.9417 10.1838C11.8743 10.3218 11.9248 10.4876 12.0576 10.5647C12.5556 10.8538 13.0053 11.2771 13.3064 11.839L13.3069 11.8387C13.5416 12.2357 13.7728 12.9889 13.623 13.7982C13.6229 13.7982 13.6228 13.7982 13.6227 13.7982C13.483 14.8713 12.3994 15.8555 11.538 16.7424L11.5384 16.7428C10.8827 17.4133 9.21589 19.1126 8.54846 19.7944C7.3505 21.0171 5.36999 21.0373 4.14732 19.8394C2.92465 18.6414 2.90444 16.6609 4.10239 15.4382L5.92866 13.5601C6.01144 13.475 6.03957 13.3513 6.00276 13.2384C5.59725 11.9942 5.48615 10.3186 5.74211 9.02488C5.74924 8.98882 5.70488 8.96579 5.67913 8.99205L1.86203 12.8879C-0.639023 15.4406 -0.617826 19.5967 1.90921 22.1237C4.46176 24.6247 8.59644 24.5824 11.0974 22.0299C11.9662 21.058 15.6855 17.6145 16.134 16.5344Z" fill="white"/>
</g>
</svg>
