<svg width="16" height="16" viewBox="0 0 16 16" fill="none" xmlns="http://www.w3.org/2000/svg">
<path d="M16 12.9443C16 13.1296 15.8484 13.2812 15.6632 13.2812H0.336844C0.151563 13.2811 0 13.1296 0 12.9443V3.05584C0 2.87059 0.151563 2.71899 0.336844 2.71899H15.6632C15.8484 2.71899 16 2.87059 16 3.05584V12.9443Z" fill="#FFF7EE"/>
<path d="M15.6633 2.71899H6.54297V3.73487H16.0001V3.05581C16.0001 2.87056 15.8485 2.71899 15.6633 2.71899Z" fill="#E02424"/>
<path d="M6.54277 6.5376V7.17144C6.54277 7.38157 6.37193 7.55347 6.16309 7.55347H15.9999V6.53763H6.54277V6.5376Z" fill="#E02424"/>
<path d="M16 8.44678H0V9.46262H16V8.44678Z" fill="#E02424"/>
<path opacity="0.1" d="M1.02737 8.44678H0V9.46262H1.02737V8.44678Z" fill="black"/>
<path d="M16 10.3557H0V11.3716H16V10.3557Z" fill="#E02424"/>
<path d="M16 12.9442V12.2651H0V12.9442C0 13.1294 0.151563 13.281 0.336844 13.281H15.6632C15.8484 13.281 16 13.1294 16 12.9442Z" fill="#E02424"/>
<path d="M15.9994 4.62817H6.54248V5.64402H15.9994V4.62817Z" fill="#E02424"/>
<path d="M0.336844 2.71899C0.151563 2.71899 0 2.87056 0 3.05581V7.55334H6.52238C6.73122 7.55334 6.90206 7.38143 6.90206 7.17131V2.71899H0.336844Z" fill="#0853A4"/>
<path opacity="0.1" d="M1.39787 2.71899H0.336844C0.151563 2.71899 0 2.87056 0 3.05581V7.55334H1.06106V3.05581C1.06106 2.87056 1.21262 2.71899 1.39787 2.71899Z" fill="black"/>
<path d="M1.49141 4.06508C1.48382 4.06508 1.47607 4.0633 1.46897 4.05943L1.37716 4.00996L1.28532 4.05943C1.27825 4.06327 1.27057 4.06508 1.26291 4.06508C1.25291 4.06508 1.24294 4.06196 1.2345 4.05568C1.21969 4.04464 1.21222 4.02593 1.21538 4.00743L1.23288 3.90258L1.1586 3.82843C1.14547 3.81527 1.14072 3.79564 1.14641 3.77777C1.15207 3.75986 1.16716 3.74683 1.18538 3.74414L1.288 3.72886L1.33397 3.63352C1.3421 3.61664 1.35885 3.60596 1.37719 3.60596C1.39554 3.60596 1.41232 3.61664 1.42041 3.63352L1.46635 3.72886L1.569 3.74414C1.58719 3.74686 1.60225 3.75986 1.60794 3.77777C1.61363 3.79564 1.60888 3.81527 1.59569 3.82843L1.52144 3.90258L1.53894 4.00743C1.5421 4.02593 1.53463 4.04464 1.51985 4.05568C1.51144 4.06193 1.50144 4.06508 1.49141 4.06508Z" fill="white"/>
<path d="M1.49141 4.92195C1.48382 4.92195 1.47607 4.9202 1.46897 4.9163L1.37716 4.8668L1.28532 4.9163C1.27825 4.92017 1.27057 4.92195 1.26291 4.92195C1.25291 4.92195 1.24294 4.91883 1.2345 4.91255C1.21969 4.90152 1.21222 4.8828 1.21538 4.86423L1.23288 4.75945L1.1586 4.68527C1.14547 4.6722 1.14072 4.65248 1.14641 4.63464C1.15207 4.61677 1.16716 4.60377 1.18538 4.60098L1.288 4.58573L1.33397 4.49039C1.3421 4.47355 1.35885 4.46289 1.37719 4.46289C1.39554 4.46289 1.41232 4.47355 1.42041 4.49039L1.46635 4.58573L1.569 4.60098C1.58719 4.60377 1.60225 4.61677 1.60794 4.63464C1.61363 4.65248 1.60888 4.6722 1.59569 4.68527L1.52144 4.75945L1.53894 4.86423C1.5421 4.88283 1.53463 4.90148 1.51985 4.91255C1.51144 4.91886 1.50144 4.92195 1.49141 4.92195Z" fill="white"/>
<path d="M1.49141 5.77886C1.48382 5.77886 1.47607 5.77701 1.46897 5.7732L1.37716 5.72376L1.28532 5.7732C1.27825 5.77704 1.27057 5.77886 1.26291 5.77886C1.25291 5.77886 1.24294 5.7757 1.2345 5.76945C1.21969 5.75839 1.21222 5.73967 1.21538 5.7212L1.23288 5.61639L1.1586 5.54226C1.14547 5.52907 1.14072 5.50939 1.14641 5.49154C1.15207 5.47367 1.16716 5.46061 1.18538 5.45789L1.288 5.44264L1.33397 5.34729C1.3421 5.33048 1.35885 5.31982 1.37719 5.31982C1.39554 5.31982 1.41232 5.33048 1.42041 5.34729L1.46635 5.44264L1.569 5.45789C1.58719 5.46064 1.60225 5.4737 1.60794 5.49154C1.61363 5.50939 1.60888 5.52907 1.59569 5.54226L1.52144 5.61639L1.53894 5.7212C1.5421 5.73967 1.53463 5.75839 1.51985 5.76945C1.51144 5.7757 1.50144 5.77886 1.49141 5.77886Z" fill="white"/>
<path d="M1.49141 6.63561C1.48382 6.63561 1.47607 6.63376 1.46897 6.62995L1.37716 6.58045L1.28532 6.62995C1.27825 6.6338 1.27057 6.63561 1.26291 6.63561C1.25291 6.63561 1.24294 6.63248 1.2345 6.62617C1.21969 6.61514 1.21222 6.59639 1.21538 6.57789L1.23288 6.47314L1.1586 6.39895C1.14547 6.38583 1.14072 6.36614 1.14641 6.34826C1.15207 6.33039 1.16716 6.31733 1.18538 6.31461L1.288 6.29936L1.33397 6.20401C1.3421 6.1872 1.35885 6.17651 1.37719 6.17651C1.39554 6.17651 1.41232 6.18723 1.42041 6.20401L1.46635 6.29936L1.569 6.31461C1.58719 6.31736 1.60225 6.33042 1.60794 6.34826C1.61363 6.36614 1.60888 6.38583 1.59569 6.39895L1.52144 6.47314L1.53894 6.57789C1.5421 6.59639 1.53463 6.61514 1.51985 6.62617C1.51144 6.63248 1.50144 6.63561 1.49141 6.63561Z" fill="white"/>
<path d="M0.948473 3.63665C0.940879 3.63665 0.933129 3.63487 0.926035 3.63096L0.834192 3.58152L0.742379 3.63096C0.735286 3.63483 0.727598 3.63665 0.719911 3.63665C0.709911 3.63665 0.699973 3.63349 0.691536 3.62721C0.676692 3.61621 0.669223 3.59743 0.672411 3.57893L0.689879 3.47412L0.61563 3.39996C0.602505 3.3868 0.597755 3.36715 0.603442 3.34927C0.609098 3.33137 0.62413 3.31833 0.642411 3.31562L0.745036 3.30037L0.790973 3.20499C0.799067 3.18815 0.815817 3.17749 0.834192 3.17749C0.852567 3.17749 0.869317 3.18818 0.877379 3.20499L0.923348 3.30037L1.026 3.31562C1.04419 3.31837 1.05928 3.33137 1.06494 3.34927C1.07063 3.36715 1.06591 3.3868 1.05275 3.39996L0.978472 3.47412L0.996004 3.57893C0.999129 3.59743 0.991691 3.61618 0.976847 3.62721C0.968441 3.63346 0.958504 3.63665 0.948473 3.63665Z" fill="white"/>
<path d="M0.948473 4.49355C0.940879 4.49355 0.933129 4.49167 0.926035 4.48789L0.834192 4.43842L0.742379 4.48789C0.735286 4.49171 0.727598 4.49355 0.719911 4.49355C0.709911 4.49355 0.699973 4.49036 0.691536 4.48414C0.676692 4.47305 0.669223 4.45436 0.672411 4.43586L0.689879 4.33105L0.61563 4.25686C0.602505 4.24374 0.597755 4.22408 0.603442 4.20617C0.609098 4.1883 0.62413 4.1753 0.642411 4.17258L0.745036 4.1573L0.790973 4.06195C0.799067 4.04511 0.815817 4.03442 0.834192 4.03442C0.852567 4.03442 0.869317 4.04514 0.877379 4.06195L0.923348 4.1573L1.026 4.17258C1.04419 4.1753 1.05928 4.18833 1.06494 4.20617C1.07063 4.22408 1.06591 4.24374 1.05275 4.25686L0.978472 4.33105L0.996004 4.43586C0.999129 4.45436 0.991691 4.47305 0.976847 4.48414C0.968441 4.49036 0.958504 4.49355 0.948473 4.49355Z" fill="white"/>
<path d="M0.948473 5.35045C0.940879 5.35045 0.933129 5.34861 0.926035 5.34483L0.834192 5.29533L0.742379 5.34483C0.735286 5.34861 0.727598 5.35045 0.719911 5.35045C0.709911 5.35045 0.699973 5.34726 0.691536 5.34104C0.676692 5.33001 0.669223 5.31126 0.672411 5.29273L0.689879 5.18795L0.61563 5.11376C0.602505 5.10064 0.597755 5.08098 0.603442 5.06311C0.609098 5.0452 0.62413 5.03217 0.642411 5.02948L0.745036 5.01423L0.790973 4.91883C0.799067 4.90201 0.815817 4.89136 0.834192 4.89136C0.852567 4.89136 0.869317 4.90201 0.877379 4.91883L0.923348 5.01423L1.026 5.02948C1.04419 5.03223 1.05928 5.04523 1.06494 5.06311C1.07063 5.08098 1.06591 5.10064 1.05275 5.11376L0.978472 5.18795L0.996004 5.29273C0.999129 5.31126 0.991691 5.33001 0.976847 5.34104C0.968441 5.34726 0.958504 5.35045 0.948473 5.35045Z" fill="white"/>
<path d="M0.948473 6.20717C0.940879 6.20717 0.933129 6.20539 0.926035 6.20152L0.834192 6.15205L0.742379 6.20152C0.735286 6.20536 0.727598 6.20717 0.719911 6.20717C0.709911 6.20717 0.699973 6.20405 0.691536 6.19777C0.676692 6.18673 0.669223 6.16795 0.672411 6.14948L0.689879 6.04467L0.61563 5.97052C0.602505 5.95742 0.597755 5.93773 0.603442 5.9198C0.609098 5.90192 0.62413 5.88892 0.642411 5.8862L0.745036 5.87098L0.790973 5.77561C0.799067 5.75877 0.815817 5.74805 0.834192 5.74805C0.852567 5.74805 0.869317 5.75877 0.877379 5.77561L0.923348 5.87098L1.026 5.8862C1.04419 5.88895 1.05928 5.90195 1.06494 5.9198C1.07063 5.9377 1.06591 5.95739 1.05275 5.97052L0.978472 6.04467L0.996004 6.14948C0.999129 6.16795 0.991691 6.1867 0.976847 6.19777C0.968441 6.20405 0.958504 6.20717 0.948473 6.20717Z" fill="white"/>
<path d="M0.948473 7.06404C0.940879 7.06404 0.933129 7.0622 0.926035 7.05839L0.834192 7.00895L0.742379 7.05839C0.735286 7.0622 0.727598 7.06404 0.719911 7.06404C0.709911 7.06404 0.699973 7.06092 0.691536 7.05464C0.676692 7.04364 0.669223 7.02486 0.672411 7.00636L0.689879 6.90157L0.61563 6.82745C0.602505 6.81429 0.597755 6.79461 0.603442 6.77673C0.609098 6.75882 0.62413 6.74579 0.642411 6.74307L0.745036 6.72782L0.790973 6.63251C0.799067 6.61567 0.815817 6.60498 0.834192 6.60498C0.852567 6.60498 0.869317 6.61567 0.877379 6.63251L0.923348 6.72782L1.026 6.74307C1.04419 6.74579 1.05928 6.75882 1.06494 6.77673C1.07063 6.79461 1.06591 6.81429 1.05275 6.82745L0.978472 6.90157L0.996004 7.00636C0.999129 7.02486 0.991691 7.04364 0.976847 7.05464C0.968441 7.06095 0.958504 7.06404 0.948473 7.06404Z" fill="white"/>
<path d="M2.54469 4.06508C2.53704 4.06508 2.52932 4.0633 2.52222 4.05943L2.43041 4.00996L2.3386 4.05943C2.33154 4.06327 2.32382 4.06508 2.31616 4.06508C2.30613 4.06508 2.29623 4.06196 2.28776 4.05568C2.27294 4.04464 2.26544 4.02593 2.26863 4.00743L2.28613 3.90258L2.21185 3.82843C2.1987 3.81527 2.19395 3.79564 2.19963 3.77777C2.20532 3.75986 2.22041 3.74683 2.2386 3.74414L2.34129 3.72886L2.38719 3.63352C2.39529 3.61664 2.41207 3.60596 2.43041 3.60596C2.44876 3.60596 2.46554 3.61664 2.47363 3.63352L2.51957 3.72886L2.62222 3.74414C2.64041 3.74686 2.6555 3.75986 2.66116 3.77777C2.66688 3.79564 2.6621 3.81527 2.64894 3.82843L2.57466 3.90258L2.59219 4.00743C2.59532 4.02593 2.58785 4.04464 2.57304 4.05568C2.56463 4.06193 2.55469 4.06508 2.54469 4.06508Z" fill="white"/>
<path d="M2.54469 4.92195C2.53704 4.92195 2.52932 4.9202 2.52222 4.9163L2.43041 4.8668L2.3386 4.9163C2.33154 4.92017 2.32382 4.92195 2.31616 4.92195C2.30613 4.92195 2.29623 4.91883 2.28776 4.91255C2.27294 4.90152 2.26544 4.8828 2.26863 4.86423L2.28613 4.75945L2.21185 4.68527C2.1987 4.6722 2.19395 4.65248 2.19963 4.63464C2.20532 4.61677 2.22041 4.60377 2.2386 4.60098L2.34129 4.58573L2.38719 4.49039C2.39529 4.47355 2.41207 4.46289 2.43041 4.46289C2.44876 4.46289 2.46554 4.47355 2.47363 4.49039L2.51957 4.58573L2.62222 4.60098C2.64041 4.60377 2.6555 4.61677 2.66116 4.63464C2.66688 4.65248 2.6621 4.6722 2.64894 4.68527L2.57466 4.75945L2.59219 4.86423C2.59532 4.88283 2.58785 4.90148 2.57304 4.91255C2.56463 4.91886 2.55469 4.92195 2.54469 4.92195Z" fill="white"/>
<path d="M2.54469 5.77886C2.53704 5.77886 2.52932 5.77701 2.52222 5.7732L2.43041 5.72376L2.3386 5.7732C2.33154 5.77704 2.32382 5.77886 2.31616 5.77886C2.30613 5.77886 2.29623 5.7757 2.28776 5.76945C2.27294 5.75839 2.26544 5.73967 2.26863 5.7212L2.28613 5.61639L2.21185 5.54226C2.1987 5.52907 2.19395 5.50939 2.19963 5.49154C2.20532 5.47367 2.22041 5.46061 2.2386 5.45789L2.34129 5.44264L2.38719 5.34729C2.39529 5.33048 2.41207 5.31982 2.43041 5.31982C2.44876 5.31982 2.46554 5.33048 2.47363 5.34729L2.51957 5.44264L2.62222 5.45789C2.64041 5.46064 2.6555 5.4737 2.66116 5.49154C2.66688 5.50939 2.6621 5.52907 2.64894 5.54226L2.57466 5.61639L2.59219 5.7212C2.59532 5.73967 2.58785 5.75839 2.57304 5.76945C2.56463 5.7757 2.55469 5.77886 2.54469 5.77886Z" fill="white"/>
<path d="M2.54469 6.63561C2.53704 6.63561 2.52932 6.63376 2.52222 6.62995L2.43041 6.58045L2.3386 6.62995C2.33154 6.6338 2.32382 6.63561 2.31616 6.63561C2.30613 6.63561 2.29623 6.63248 2.28776 6.62617C2.27294 6.61514 2.26544 6.59639 2.26863 6.57789L2.28613 6.47314L2.21185 6.39895C2.1987 6.38583 2.19395 6.36614 2.19963 6.34826C2.20532 6.33039 2.22041 6.31733 2.2386 6.31461L2.34129 6.29936L2.38719 6.20401C2.39529 6.1872 2.41207 6.17651 2.43041 6.17651C2.44876 6.17651 2.46554 6.18723 2.47363 6.20401L2.51957 6.29936L2.62222 6.31461C2.64041 6.31736 2.6555 6.33042 2.66116 6.34826C2.66688 6.36614 2.6621 6.38583 2.64894 6.39895L2.57466 6.47314L2.59219 6.57789C2.59532 6.59639 2.58785 6.61514 2.57304 6.62617C2.56463 6.63248 2.55469 6.63561 2.54469 6.63561Z" fill="white"/>
<path d="M2.00217 3.63665C1.99451 3.63665 1.98683 3.63487 1.97973 3.63096L1.88789 3.58152L1.79608 3.63096C1.78898 3.63483 1.78133 3.63665 1.77364 3.63665C1.76361 3.63665 1.7537 3.63349 1.74526 3.62721C1.73045 3.61621 1.72295 3.59743 1.72611 3.57893L1.74361 3.47412L1.66936 3.39996C1.6562 3.3868 1.65148 3.36715 1.65714 3.34927C1.66279 3.33137 1.67789 3.31833 1.69611 3.31562L1.79876 3.30037L1.84467 3.20499C1.8528 3.18815 1.86955 3.17749 1.88792 3.17749C1.90626 3.17749 1.92305 3.18818 1.93114 3.20499L1.97708 3.30037L2.07973 3.31562C2.09795 3.31837 2.11301 3.33137 2.11867 3.34927C2.12436 3.36715 2.11961 3.3868 2.10642 3.39996L2.03217 3.47412L2.04973 3.57893C2.05286 3.59743 2.04539 3.61618 2.03055 3.62721C2.02211 3.63346 2.01214 3.63665 2.00217 3.63665Z" fill="white"/>
<path d="M2.00217 4.49355C1.99451 4.49355 1.98683 4.49167 1.97973 4.48789L1.88789 4.43842L1.79608 4.48789C1.78898 4.49171 1.78133 4.49355 1.77364 4.49355C1.76361 4.49355 1.7537 4.49036 1.74526 4.48414C1.73045 4.47305 1.72295 4.45436 1.72611 4.43586L1.74361 4.33105L1.66936 4.25686C1.6562 4.24374 1.65148 4.22408 1.65714 4.20617C1.66279 4.1883 1.67789 4.1753 1.69611 4.17258L1.79876 4.1573L1.84467 4.06195C1.8528 4.04511 1.86955 4.03442 1.88792 4.03442C1.90626 4.03442 1.92305 4.04514 1.93114 4.06195L1.97708 4.1573L2.07973 4.17258C2.09795 4.1753 2.11301 4.18833 2.11867 4.20617C2.12436 4.22408 2.11961 4.24374 2.10642 4.25686L2.03217 4.33105L2.04973 4.43586C2.05286 4.45436 2.04539 4.47305 2.03055 4.48414C2.02211 4.49036 2.01214 4.49355 2.00217 4.49355Z" fill="white"/>
<path d="M2.00217 5.35045C1.99451 5.35045 1.98683 5.34861 1.97973 5.34483L1.88789 5.29533L1.79608 5.34483C1.78898 5.34861 1.78133 5.35045 1.77364 5.35045C1.76361 5.35045 1.7537 5.34726 1.74526 5.34104C1.73045 5.33001 1.72295 5.31126 1.72611 5.29273L1.74361 5.18795L1.66936 5.11376C1.6562 5.10064 1.65148 5.08098 1.65714 5.06311C1.66279 5.0452 1.67789 5.03217 1.69611 5.02948L1.79876 5.01423L1.84467 4.91883C1.8528 4.90201 1.86955 4.89136 1.88792 4.89136C1.90626 4.89136 1.92305 4.90201 1.93114 4.91883L1.97708 5.01423L2.07973 5.02948C2.09795 5.03223 2.11301 5.04523 2.11867 5.06311C2.12436 5.08098 2.11961 5.10064 2.10642 5.11376L2.03217 5.18795L2.04973 5.29273C2.05286 5.31126 2.04539 5.33001 2.03055 5.34104C2.02211 5.34726 2.01214 5.35045 2.00217 5.35045Z" fill="white"/>
<path d="M2.00217 6.20717C1.99451 6.20717 1.98683 6.20539 1.97973 6.20152L1.88789 6.15205L1.79608 6.20152C1.78898 6.20536 1.78133 6.20717 1.77364 6.20717C1.76361 6.20717 1.7537 6.20405 1.74526 6.19777C1.73045 6.18673 1.72295 6.16795 1.72611 6.14948L1.74361 6.04467L1.66936 5.97052C1.6562 5.95742 1.65148 5.93773 1.65714 5.9198C1.66279 5.90192 1.67789 5.88892 1.69611 5.8862L1.79876 5.87098L1.84467 5.77561C1.8528 5.75877 1.86955 5.74805 1.88792 5.74805C1.90626 5.74805 1.92305 5.75877 1.93114 5.77561L1.97708 5.87098L2.07973 5.8862C2.09795 5.88895 2.11301 5.90195 2.11867 5.9198C2.12436 5.9377 2.11961 5.95739 2.10642 5.97052L2.03217 6.04467L2.04973 6.14948C2.05286 6.16795 2.04539 6.1867 2.03055 6.19777C2.02211 6.20405 2.01214 6.20717 2.00217 6.20717Z" fill="white"/>
<path d="M2.00217 7.06404C1.99451 7.06404 1.98683 7.0622 1.97973 7.05839L1.88789 7.00895L1.79608 7.05839C1.78898 7.0622 1.78133 7.06404 1.77364 7.06404C1.76361 7.06404 1.7537 7.06092 1.74526 7.05464C1.73045 7.04364 1.72295 7.02486 1.72611 7.00636L1.74361 6.90157L1.66936 6.82745C1.6562 6.81429 1.65148 6.79461 1.65714 6.77673C1.66279 6.75882 1.67789 6.74579 1.69611 6.74307L1.79876 6.72782L1.84467 6.63251C1.8528 6.61567 1.86955 6.60498 1.88792 6.60498C1.90626 6.60498 1.92305 6.61567 1.93114 6.63251L1.97708 6.72782L2.07973 6.74307C2.09795 6.74579 2.11301 6.75882 2.11867 6.77673C2.12436 6.79461 2.11961 6.81429 2.10642 6.82745L2.03217 6.90157L2.04973 7.00636C2.05286 7.02486 2.04539 7.04364 2.03055 7.05464C2.02211 7.06095 2.01214 7.06404 2.00217 7.06404Z" fill="white"/>
<path d="M3.59835 4.06508C3.59075 4.06508 3.583 4.0633 3.57591 4.05943L3.48407 4.00996L3.39226 4.05943C3.38516 4.06327 3.37751 4.06508 3.36982 4.06508C3.35982 4.06508 3.34988 4.06196 3.34144 4.05568C3.32663 4.04464 3.31916 4.02593 3.32232 4.00743L3.33979 3.90258L3.26554 3.82843C3.25238 3.81527 3.24766 3.79564 3.25335 3.77777C3.25904 3.75986 3.27404 3.74683 3.29232 3.74414L3.39497 3.72886L3.44091 3.63352C3.44897 3.61664 3.46575 3.60596 3.4841 3.60596C3.50247 3.60596 3.51922 3.61664 3.52732 3.63352L3.57325 3.72886L3.67594 3.74414C3.69413 3.74686 3.70922 3.75986 3.71488 3.77777C3.72057 3.79564 3.71582 3.81527 3.70266 3.82843L3.62838 3.90258L3.64594 4.00743C3.64903 4.02593 3.6416 4.04464 3.62675 4.05568C3.61832 4.06193 3.60835 4.06508 3.59835 4.06508Z" fill="white"/>
<path d="M3.59835 4.92195C3.59075 4.92195 3.583 4.9202 3.57591 4.9163L3.48407 4.8668L3.39226 4.9163C3.38516 4.92017 3.37751 4.92195 3.36982 4.92195C3.35982 4.92195 3.34988 4.91883 3.34144 4.91255C3.32663 4.90152 3.31916 4.8828 3.32232 4.86423L3.33979 4.75945L3.26554 4.68527C3.25238 4.6722 3.24766 4.65248 3.25335 4.63464C3.25904 4.61677 3.27404 4.60377 3.29232 4.60098L3.39497 4.58573L3.44091 4.49039C3.44897 4.47355 3.46575 4.46289 3.4841 4.46289C3.50247 4.46289 3.51922 4.47355 3.52732 4.49039L3.57325 4.58573L3.67594 4.60098C3.69413 4.60377 3.70922 4.61677 3.71488 4.63464C3.72057 4.65248 3.71582 4.6722 3.70266 4.68527L3.62838 4.75945L3.64594 4.86423C3.64903 4.88283 3.6416 4.90148 3.62675 4.91255C3.61832 4.91886 3.60835 4.92195 3.59835 4.92195Z" fill="white"/>
<path d="M3.59835 5.77886C3.59075 5.77886 3.583 5.77701 3.57591 5.7732L3.48407 5.72376L3.39226 5.7732C3.38516 5.77704 3.37751 5.77886 3.36982 5.77886C3.35982 5.77886 3.34988 5.7757 3.34144 5.76945C3.32663 5.75839 3.31916 5.73967 3.32232 5.7212L3.33979 5.61639L3.26554 5.54226C3.25238 5.52907 3.24766 5.50939 3.25335 5.49154C3.25904 5.47367 3.27404 5.46061 3.29232 5.45789L3.39497 5.44264L3.44091 5.34729C3.44897 5.33048 3.46575 5.31982 3.4841 5.31982C3.50247 5.31982 3.51922 5.33048 3.52732 5.34729L3.57325 5.44264L3.67594 5.45789C3.69413 5.46064 3.70922 5.4737 3.71488 5.49154C3.72057 5.50939 3.71582 5.52907 3.70266 5.54226L3.62838 5.61639L3.64594 5.7212C3.64903 5.73967 3.6416 5.75839 3.62675 5.76945C3.61832 5.7757 3.60835 5.77886 3.59835 5.77886Z" fill="white"/>
<path d="M3.59835 6.63561C3.59075 6.63561 3.583 6.63376 3.57591 6.62995L3.48407 6.58045L3.39226 6.62995C3.38516 6.6338 3.37751 6.63561 3.36982 6.63561C3.35982 6.63561 3.34988 6.63248 3.34144 6.62617C3.32663 6.61514 3.31916 6.59639 3.32232 6.57789L3.33979 6.47314L3.26554 6.39895C3.25238 6.38583 3.24766 6.36614 3.25335 6.34826C3.25904 6.33039 3.27404 6.31733 3.29232 6.31461L3.39497 6.29936L3.44091 6.20401C3.44897 6.1872 3.46575 6.17651 3.4841 6.17651C3.50247 6.17651 3.51922 6.18723 3.52732 6.20401L3.57325 6.29936L3.67594 6.31461C3.69413 6.31736 3.70922 6.33042 3.71488 6.34826C3.72057 6.36614 3.71582 6.38583 3.70266 6.39895L3.62838 6.47314L3.64594 6.57789C3.64903 6.59639 3.6416 6.61514 3.62675 6.62617C3.61832 6.63248 3.60835 6.63561 3.59835 6.63561Z" fill="white"/>
<path d="M3.05589 3.63665C3.04824 3.63665 3.04055 3.63487 3.03345 3.63096L2.94164 3.58152L2.8498 3.63096C2.84274 3.63483 2.83505 3.63665 2.82736 3.63665C2.81736 3.63665 2.80739 3.63349 2.79899 3.62721C2.78418 3.61621 2.77668 3.59743 2.77983 3.57893L2.79733 3.47412L2.72308 3.39996C2.70993 3.3868 2.70518 3.36715 2.71086 3.34927C2.71652 3.33137 2.73161 3.31833 2.74983 3.31562L2.85252 3.30037L2.89839 3.20499C2.90655 3.18815 2.92327 3.17749 2.94164 3.17749C2.95995 3.17749 2.97677 3.18818 2.98483 3.20499L3.03077 3.30037L3.13345 3.31562C3.15167 3.31837 3.1667 3.33137 3.17233 3.34927C3.17802 3.36715 3.17327 3.3868 3.16011 3.39996L3.08586 3.47412L3.10339 3.57893C3.10652 3.59743 3.09905 3.61618 3.08423 3.62721C3.07589 3.63346 3.06589 3.63665 3.05589 3.63665Z" fill="white"/>
<path d="M3.05589 4.49355C3.04824 4.49355 3.04055 4.49167 3.03345 4.48789L2.94164 4.43842L2.8498 4.48789C2.84274 4.49171 2.83505 4.49355 2.82736 4.49355C2.81736 4.49355 2.80739 4.49036 2.79899 4.48414C2.78418 4.47305 2.77668 4.45436 2.77983 4.43586L2.79733 4.33105L2.72308 4.25686C2.70993 4.24374 2.70518 4.22408 2.71086 4.20617C2.71652 4.1883 2.73161 4.1753 2.74983 4.17258L2.85252 4.1573L2.89839 4.06195C2.90655 4.04511 2.92327 4.03442 2.94164 4.03442C2.95995 4.03442 2.97677 4.04514 2.98483 4.06195L3.03077 4.1573L3.13345 4.17258C3.15167 4.1753 3.1667 4.18833 3.17233 4.20617C3.17802 4.22408 3.17327 4.24374 3.16011 4.25686L3.08586 4.33105L3.10339 4.43586C3.10652 4.45436 3.09905 4.47305 3.08423 4.48414C3.07589 4.49036 3.06589 4.49355 3.05589 4.49355Z" fill="white"/>
<path d="M3.05589 5.35045C3.04824 5.35045 3.04055 5.34861 3.03345 5.34483L2.94164 5.29533L2.8498 5.34483C2.84274 5.34861 2.83505 5.35045 2.82736 5.35045C2.81736 5.35045 2.80739 5.34726 2.79899 5.34104C2.78418 5.33001 2.77668 5.31126 2.77983 5.29273L2.79733 5.18795L2.72308 5.11376C2.70993 5.10064 2.70518 5.08098 2.71086 5.06311C2.71652 5.0452 2.73161 5.03217 2.74983 5.02948L2.85252 5.01423L2.89839 4.91883C2.90655 4.90201 2.92327 4.89136 2.94164 4.89136C2.95995 4.89136 2.97677 4.90201 2.98483 4.91883L3.03077 5.01423L3.13345 5.02948C3.15167 5.03223 3.1667 5.04523 3.17233 5.06311C3.17802 5.08098 3.17327 5.10064 3.16011 5.11376L3.08586 5.18795L3.10339 5.29273C3.10652 5.31126 3.09905 5.33001 3.08423 5.34104C3.07589 5.34726 3.06589 5.35045 3.05589 5.35045Z" fill="white"/>
<path d="M3.05589 6.20717C3.04824 6.20717 3.04055 6.20539 3.03345 6.20152L2.94164 6.15205L2.8498 6.20152C2.84274 6.20536 2.83505 6.20717 2.82736 6.20717C2.81736 6.20717 2.80739 6.20405 2.79899 6.19777C2.78418 6.18673 2.77668 6.16795 2.77983 6.14948L2.79733 6.04467L2.72308 5.97052C2.70993 5.95742 2.70518 5.93773 2.71086 5.9198C2.71652 5.90192 2.73161 5.88892 2.74983 5.8862L2.85252 5.87098L2.89839 5.77561C2.90655 5.75877 2.92327 5.74805 2.94164 5.74805C2.95995 5.74805 2.97677 5.75877 2.98483 5.77561L3.03077 5.87098L3.13345 5.8862C3.15167 5.88895 3.1667 5.90195 3.17233 5.9198C3.17802 5.9377 3.17327 5.95739 3.16011 5.97052L3.08586 6.04467L3.10339 6.14948C3.10652 6.16795 3.09905 6.1867 3.08423 6.19777C3.07589 6.20405 3.06589 6.20717 3.05589 6.20717Z" fill="white"/>
<path d="M3.05589 7.06404C3.04824 7.06404 3.04055 7.0622 3.03345 7.05839L2.94164 7.00895L2.8498 7.05839C2.84274 7.0622 2.83505 7.06404 2.82736 7.06404C2.81736 7.06404 2.80739 7.06092 2.79899 7.05464C2.78418 7.04364 2.77668 7.02486 2.77983 7.00636L2.79733 6.90157L2.72308 6.82745C2.70993 6.81429 2.70518 6.79461 2.71086 6.77673C2.71652 6.75882 2.73161 6.74579 2.74983 6.74307L2.85252 6.72782L2.89839 6.63251C2.90655 6.61567 2.92327 6.60498 2.94164 6.60498C2.95995 6.60498 2.97677 6.61567 2.98483 6.63251L3.03077 6.72782L3.13345 6.74307C3.15167 6.74579 3.1667 6.75882 3.17233 6.77673C3.17802 6.79461 3.17327 6.81429 3.16011 6.82745L3.08586 6.90157L3.10339 7.00636C3.10652 7.02486 3.09905 7.04364 3.08423 7.05464C3.07589 7.06095 3.06589 7.06404 3.05589 7.06404Z" fill="white"/>
<path d="M4.65213 4.06508C4.64451 4.06508 4.63676 4.0633 4.62966 4.05943L4.53785 4.00996L4.44604 4.05943C4.43894 4.06327 4.43126 4.06508 4.42357 4.06508C4.41357 4.06508 4.40363 4.06196 4.39519 4.05568C4.38038 4.04464 4.37288 4.02593 4.37607 4.00743L4.39357 3.90258L4.31929 3.82843C4.30613 3.81527 4.30135 3.79564 4.30707 3.77777C4.31272 3.75986 4.32779 3.74683 4.34601 3.74414L4.44866 3.72886L4.4946 3.63352C4.50273 3.61664 4.51948 3.60596 4.53782 3.60596C4.55616 3.60596 4.57294 3.61664 4.58104 3.63352L4.62701 3.72886L4.72963 3.74414C4.74782 3.74686 4.76288 3.75986 4.76851 3.77777C4.77423 3.79564 4.76948 3.81527 4.75629 3.82843L4.68201 3.90258L4.69957 4.00743C4.70266 4.02593 4.69523 4.04464 4.68038 4.05568C4.6721 4.06193 4.66213 4.06508 4.65213 4.06508Z" fill="white"/>
<path d="M4.65213 4.92195C4.64451 4.92195 4.63676 4.9202 4.62966 4.9163L4.53785 4.8668L4.44604 4.9163C4.43894 4.92017 4.43126 4.92195 4.42357 4.92195C4.41357 4.92195 4.40363 4.91883 4.39519 4.91255C4.38038 4.90152 4.37288 4.8828 4.37607 4.86423L4.39357 4.75945L4.31929 4.68527C4.30613 4.6722 4.30135 4.65248 4.30707 4.63464C4.31272 4.61677 4.32779 4.60377 4.34601 4.60098L4.44866 4.58573L4.4946 4.49039C4.50273 4.47355 4.51948 4.46289 4.53782 4.46289C4.55616 4.46289 4.57294 4.47355 4.58104 4.49039L4.62701 4.58573L4.72963 4.60098C4.74782 4.60377 4.76288 4.61677 4.76851 4.63464C4.77423 4.65248 4.76948 4.6722 4.75629 4.68527L4.68201 4.75945L4.69957 4.86423C4.70266 4.88283 4.69523 4.90148 4.68038 4.91255C4.6721 4.91886 4.66213 4.92195 4.65213 4.92195Z" fill="white"/>
<path d="M4.65213 5.77886C4.64451 5.77886 4.63676 5.77701 4.62966 5.7732L4.53785 5.72376L4.44604 5.7732C4.43894 5.77704 4.43126 5.77886 4.42357 5.77886C4.41357 5.77886 4.40363 5.7757 4.39519 5.76945C4.38038 5.75839 4.37288 5.73967 4.37607 5.7212L4.39357 5.61639L4.31929 5.54226C4.30613 5.52907 4.30135 5.50939 4.30707 5.49154C4.31272 5.47367 4.32779 5.46061 4.34601 5.45789L4.44866 5.44264L4.4946 5.34729C4.50273 5.33048 4.51948 5.31982 4.53782 5.31982C4.55616 5.31982 4.57294 5.33048 4.58104 5.34729L4.62701 5.44264L4.72963 5.45789C4.74782 5.46064 4.76288 5.4737 4.76851 5.49154C4.77423 5.50939 4.76948 5.52907 4.75629 5.54226L4.68201 5.61639L4.69957 5.7212C4.70266 5.73967 4.69523 5.75839 4.68038 5.76945C4.6721 5.7757 4.66213 5.77886 4.65213 5.77886Z" fill="white"/>
<path d="M4.65213 6.63561C4.64451 6.63561 4.63676 6.63376 4.62966 6.62995L4.53785 6.58045L4.44604 6.62995C4.43894 6.6338 4.43126 6.63561 4.42357 6.63561C4.41357 6.63561 4.40363 6.63248 4.39519 6.62617C4.38038 6.61514 4.37288 6.59639 4.37607 6.57789L4.39357 6.47314L4.31929 6.39895C4.30613 6.38583 4.30135 6.36614 4.30707 6.34826C4.31272 6.33039 4.32779 6.31733 4.34601 6.31461L4.44866 6.29936L4.4946 6.20401C4.50273 6.1872 4.51948 6.17651 4.53782 6.17651C4.55616 6.17651 4.57294 6.18723 4.58104 6.20401L4.62701 6.29936L4.72963 6.31461C4.74782 6.31736 4.76288 6.33042 4.76851 6.34826C4.77423 6.36614 4.76948 6.38583 4.75629 6.39895L4.68201 6.47314L4.69957 6.57789C4.70266 6.59639 4.69523 6.61514 4.68038 6.62617C4.6721 6.63248 4.66213 6.63561 4.65213 6.63561Z" fill="white"/>
<path d="M4.10912 3.63665C4.10152 3.63665 4.09377 3.63487 4.08665 3.63096L3.99484 3.58152L3.90302 3.63096C3.89596 3.63483 3.88821 3.63665 3.88062 3.63665C3.87059 3.63665 3.86065 3.63349 3.85218 3.62721C3.83737 3.61621 3.8299 3.59743 3.83305 3.57893L3.85055 3.47412L3.7763 3.39996C3.76315 3.3868 3.7584 3.36715 3.76409 3.34927C3.76977 3.33137 3.78487 3.31833 3.80305 3.31562L3.90574 3.30037L3.95165 3.20499C3.95977 3.18815 3.97655 3.17749 3.99487 3.17749C4.01324 3.17749 4.02999 3.18818 4.03809 3.20499L4.08402 3.30037L4.18668 3.31562C4.20487 3.31837 4.21999 3.33137 4.22562 3.34927C4.23134 3.36715 4.22659 3.3868 4.2134 3.39996L4.13912 3.47412L4.15665 3.57893C4.15977 3.59743 4.1523 3.61618 4.13749 3.62721C4.12912 3.63346 4.11915 3.63665 4.10912 3.63665Z" fill="white"/>
<path d="M4.10912 4.49355C4.10152 4.49355 4.09377 4.49167 4.08665 4.48789L3.99484 4.43842L3.90302 4.48789C3.89596 4.49171 3.88821 4.49355 3.88062 4.49355C3.87059 4.49355 3.86065 4.49036 3.85218 4.48414C3.83737 4.47305 3.8299 4.45436 3.83305 4.43586L3.85055 4.33105L3.7763 4.25686C3.76315 4.24374 3.7584 4.22408 3.76409 4.20617C3.76977 4.1883 3.78487 4.1753 3.80305 4.17258L3.90574 4.1573L3.95165 4.06195C3.95977 4.04511 3.97655 4.03442 3.99487 4.03442C4.01324 4.03442 4.02999 4.04514 4.03809 4.06195L4.08402 4.1573L4.18668 4.17258C4.20487 4.1753 4.21999 4.18833 4.22562 4.20617C4.23134 4.22408 4.22659 4.24374 4.2134 4.25686L4.13912 4.33105L4.15665 4.43586C4.15977 4.45436 4.1523 4.47305 4.13749 4.48414C4.12912 4.49036 4.11915 4.49355 4.10912 4.49355Z" fill="white"/>
<path d="M4.10912 5.35045C4.10152 5.35045 4.09377 5.34861 4.08665 5.34483L3.99484 5.29533L3.90302 5.34483C3.89596 5.34861 3.88821 5.35045 3.88062 5.35045C3.87059 5.35045 3.86065 5.34726 3.85218 5.34104C3.83737 5.33001 3.8299 5.31126 3.83305 5.29273L3.85055 5.18795L3.7763 5.11376C3.76315 5.10064 3.7584 5.08098 3.76409 5.06311C3.76977 5.0452 3.78487 5.03217 3.80305 5.02948L3.90574 5.01423L3.95165 4.91883C3.95977 4.90201 3.97655 4.89136 3.99487 4.89136C4.01324 4.89136 4.02999 4.90201 4.03809 4.91883L4.08402 5.01423L4.18668 5.02948C4.20487 5.03223 4.21999 5.04523 4.22562 5.06311C4.23134 5.08098 4.22659 5.10064 4.2134 5.11376L4.13912 5.18795L4.15665 5.29273C4.15977 5.31126 4.1523 5.33001 4.13749 5.34104C4.12912 5.34726 4.11915 5.35045 4.10912 5.35045Z" fill="white"/>
<path d="M4.10912 6.20717C4.10152 6.20717 4.09377 6.20539 4.08665 6.20152L3.99484 6.15205L3.90302 6.20152C3.89596 6.20536 3.88821 6.20717 3.88062 6.20717C3.87059 6.20717 3.86065 6.20405 3.85218 6.19777C3.83737 6.18673 3.8299 6.16795 3.83305 6.14948L3.85055 6.04467L3.7763 5.97052C3.76315 5.95742 3.7584 5.93773 3.76409 5.9198C3.76977 5.90192 3.78487 5.88892 3.80305 5.8862L3.90574 5.87098L3.95165 5.77561C3.95977 5.75877 3.97655 5.74805 3.99487 5.74805C4.01324 5.74805 4.02999 5.75877 4.03809 5.77561L4.08402 5.87098L4.18668 5.8862C4.20487 5.88895 4.21999 5.90195 4.22562 5.9198C4.23134 5.9377 4.22659 5.95739 4.2134 5.97052L4.13912 6.04467L4.15665 6.14948C4.15977 6.16795 4.1523 6.1867 4.13749 6.19777C4.12912 6.20405 4.11915 6.20717 4.10912 6.20717Z" fill="white"/>
<path d="M4.10912 7.06404C4.10152 7.06404 4.09377 7.0622 4.08665 7.05839L3.99484 7.00895L3.90302 7.05839C3.89596 7.0622 3.88821 7.06404 3.88062 7.06404C3.87059 7.06404 3.86065 7.06092 3.85218 7.05464C3.83737 7.04364 3.8299 7.02486 3.83305 7.00636L3.85055 6.90157L3.7763 6.82745C3.76315 6.81429 3.7584 6.79461 3.76409 6.77673C3.76977 6.75882 3.78487 6.74579 3.80305 6.74307L3.90574 6.72782L3.95165 6.63251C3.95977 6.61567 3.97655 6.60498 3.99487 6.60498C4.01324 6.60498 4.02999 6.61567 4.03809 6.63251L4.08402 6.72782L4.18668 6.74307C4.20487 6.74579 4.21999 6.75882 4.22562 6.77673C4.23134 6.79461 4.22659 6.81429 4.2134 6.82745L4.13912 6.90157L4.15665 7.00636C4.15977 7.02486 4.1523 7.04364 4.13749 7.05464C4.12912 7.06095 4.11915 7.06404 4.10912 7.06404Z" fill="white"/>
<path d="M5.70579 4.06508C5.69813 4.06508 5.69045 4.0633 5.68332 4.05943L5.59148 4.00996L5.49967 4.05943C5.49257 4.06327 5.48488 4.06508 5.47726 4.06508C5.46723 4.06508 5.45729 4.06196 5.44892 4.05568C5.43404 4.04464 5.42651 4.02593 5.42976 4.00743L5.44723 3.90258L5.37298 3.82843C5.35985 3.81527 5.35507 3.79564 5.36076 3.77777C5.36645 3.75986 5.38154 3.74683 5.39973 3.74414L5.50238 3.72886L5.54832 3.63352C5.55641 3.61664 5.57316 3.60596 5.59151 3.60596C5.60991 3.60596 5.6267 3.61664 5.63476 3.63352L5.6807 3.72886L5.78338 3.74414C5.80154 3.74686 5.81663 3.75986 5.82222 3.77777C5.82791 3.79564 5.82319 3.81527 5.81001 3.82843L5.73576 3.90258L5.75329 4.00743C5.75641 4.02593 5.74898 4.04464 5.73416 4.05568C5.72579 4.06193 5.71582 4.06508 5.70579 4.06508Z" fill="white"/>
<path d="M5.70579 4.92195C5.69813 4.92195 5.69045 4.9202 5.68332 4.9163L5.59148 4.8668L5.49967 4.9163C5.49257 4.92017 5.48488 4.92195 5.47726 4.92195C5.46723 4.92195 5.45729 4.91883 5.44892 4.91255C5.43404 4.90152 5.42651 4.8828 5.42976 4.86423L5.44723 4.75945L5.37298 4.68527C5.35985 4.6722 5.35507 4.65248 5.36076 4.63464C5.36645 4.61677 5.38154 4.60377 5.39973 4.60098L5.50238 4.58573L5.54832 4.49039C5.55641 4.47355 5.57316 4.46289 5.59151 4.46289C5.60991 4.46289 5.6267 4.47355 5.63476 4.49039L5.6807 4.58573L5.78338 4.60098C5.80154 4.60377 5.81663 4.61677 5.82222 4.63464C5.82791 4.65248 5.82319 4.6722 5.81001 4.68527L5.73576 4.75945L5.75329 4.86423C5.75641 4.88283 5.74898 4.90148 5.73416 4.91255C5.72579 4.91886 5.71582 4.92195 5.70579 4.92195Z" fill="white"/>
<path d="M5.70579 5.77886C5.69813 5.77886 5.69045 5.77701 5.68332 5.7732L5.59148 5.72376L5.49967 5.7732C5.49257 5.77704 5.48488 5.77886 5.47726 5.77886C5.46723 5.77886 5.45729 5.7757 5.44892 5.76945C5.43404 5.75839 5.42651 5.73967 5.42976 5.7212L5.44723 5.61639L5.37298 5.54226C5.35985 5.52907 5.35507 5.50939 5.36076 5.49154C5.36645 5.47367 5.38154 5.46061 5.39973 5.45789L5.50238 5.44264L5.54832 5.34729C5.55641 5.33048 5.57316 5.31982 5.59151 5.31982C5.60991 5.31982 5.6267 5.33048 5.63476 5.34729L5.6807 5.44264L5.78338 5.45789C5.80154 5.46064 5.81663 5.4737 5.82222 5.49154C5.82791 5.50939 5.82319 5.52907 5.81001 5.54226L5.73576 5.61639L5.75329 5.7212C5.75641 5.73967 5.74898 5.75839 5.73416 5.76945C5.72579 5.7757 5.71582 5.77886 5.70579 5.77886Z" fill="white"/>
<path d="M5.70579 6.63561C5.69813 6.63561 5.69045 6.63376 5.68332 6.62995L5.59148 6.58045L5.49967 6.62995C5.49257 6.6338 5.48488 6.63561 5.47726 6.63561C5.46723 6.63561 5.45729 6.63248 5.44892 6.62617C5.43404 6.61514 5.42651 6.59639 5.42976 6.57789L5.44723 6.47314L5.37298 6.39895C5.35985 6.38583 5.35507 6.36614 5.36076 6.34826C5.36645 6.33039 5.38154 6.31733 5.39973 6.31461L5.50238 6.29936L5.54832 6.20401C5.55641 6.1872 5.57316 6.17651 5.59151 6.17651C5.60991 6.17651 5.6267 6.18723 5.63476 6.20401L5.6807 6.29936L5.78338 6.31461C5.80154 6.31736 5.81663 6.33042 5.82222 6.34826C5.82791 6.36614 5.82319 6.38583 5.81001 6.39895L5.73576 6.47314L5.75329 6.57789C5.75641 6.59639 5.74898 6.61514 5.73416 6.62617C5.72579 6.63248 5.71582 6.63561 5.70579 6.63561Z" fill="white"/>
<path d="M5.16278 3.63665C5.15518 3.63665 5.14743 3.63487 5.14037 3.63096L5.04853 3.58152L4.95672 3.63096C4.94966 3.63483 4.94194 3.63665 4.93428 3.63665C4.92428 3.63665 4.91431 3.63349 4.90591 3.62721C4.89109 3.61621 4.88359 3.59743 4.88675 3.57893L4.90425 3.47412L4.83003 3.39996C4.81685 3.3868 4.81213 3.36715 4.81778 3.34927C4.82347 3.33137 4.83847 3.31833 4.85675 3.31562L4.95941 3.30037L5.00534 3.20499C5.01347 3.18815 5.03022 3.17749 5.04856 3.17749C5.06694 3.17749 5.08369 3.18818 5.09178 3.20499L5.13772 3.30037L5.2404 3.31562C5.25856 3.31837 5.27365 3.33137 5.27928 3.34927C5.28496 3.36715 5.28021 3.3868 5.26706 3.39996L5.19278 3.47412L5.21034 3.57893C5.21347 3.59743 5.206 3.61618 5.19118 3.62721C5.18275 3.63346 5.17281 3.63665 5.16278 3.63665Z" fill="white"/>
<path d="M5.16278 4.49355C5.15518 4.49355 5.14743 4.49167 5.14037 4.48789L5.04853 4.43842L4.95672 4.48789C4.94966 4.49171 4.94194 4.49355 4.93428 4.49355C4.92428 4.49355 4.91431 4.49036 4.90591 4.48414C4.89109 4.47305 4.88359 4.45436 4.88675 4.43586L4.90425 4.33105L4.83003 4.25686C4.81685 4.24374 4.81213 4.22408 4.81778 4.20617C4.82347 4.1883 4.83847 4.1753 4.85675 4.17258L4.95941 4.1573L5.00534 4.06195C5.01347 4.04511 5.03022 4.03442 5.04856 4.03442C5.06694 4.03442 5.08369 4.04514 5.09178 4.06195L5.13772 4.1573L5.2404 4.17258C5.25856 4.1753 5.27365 4.18833 5.27928 4.20617C5.28496 4.22408 5.28021 4.24374 5.26706 4.25686L5.19278 4.33105L5.21034 4.43586C5.21347 4.45436 5.206 4.47305 5.19118 4.48414C5.18275 4.49036 5.17281 4.49355 5.16278 4.49355Z" fill="white"/>
<path d="M5.16278 5.35045C5.15518 5.35045 5.14743 5.34861 5.14037 5.34483L5.04853 5.29533L4.95672 5.34483C4.94966 5.34861 4.94194 5.35045 4.93428 5.35045C4.92428 5.35045 4.91431 5.34726 4.90591 5.34104C4.89109 5.33001 4.88359 5.31126 4.88675 5.29273L4.90425 5.18795L4.83003 5.11376C4.81685 5.10064 4.81213 5.08098 4.81778 5.06311C4.82347 5.0452 4.83847 5.03217 4.85675 5.02948L4.95941 5.01423L5.00534 4.91883C5.01347 4.90201 5.03022 4.89136 5.04856 4.89136C5.06694 4.89136 5.08369 4.90201 5.09178 4.91883L5.13772 5.01423L5.2404 5.02948C5.25856 5.03223 5.27365 5.04523 5.27928 5.06311C5.28496 5.08098 5.28021 5.10064 5.26706 5.11376L5.19278 5.18795L5.21034 5.29273C5.21347 5.31126 5.206 5.33001 5.19118 5.34104C5.18275 5.34726 5.17281 5.35045 5.16278 5.35045Z" fill="white"/>
<path d="M5.16278 6.20717C5.15518 6.20717 5.14743 6.20539 5.14037 6.20152L5.04853 6.15205L4.95672 6.20152C4.94966 6.20536 4.94194 6.20717 4.93428 6.20717C4.92428 6.20717 4.91431 6.20405 4.90591 6.19777C4.89109 6.18673 4.88359 6.16795 4.88675 6.14948L4.90425 6.04467L4.83003 5.97052C4.81685 5.95742 4.81213 5.93773 4.81778 5.9198C4.82347 5.90192 4.83847 5.88892 4.85675 5.8862L4.95941 5.87098L5.00534 5.77561C5.01347 5.75877 5.03022 5.74805 5.04856 5.74805C5.06694 5.74805 5.08369 5.75877 5.09178 5.77561L5.13772 5.87098L5.2404 5.8862C5.25856 5.88895 5.27365 5.90195 5.27928 5.9198C5.28496 5.9377 5.28021 5.95739 5.26706 5.97052L5.19278 6.04467L5.21034 6.14948C5.21347 6.16795 5.206 6.1867 5.19118 6.19777C5.18275 6.20405 5.17281 6.20717 5.16278 6.20717Z" fill="white"/>
<path d="M5.16278 7.06404C5.15518 7.06404 5.14743 7.0622 5.14037 7.05839L5.04853 7.00895L4.95672 7.05839C4.94966 7.0622 4.94194 7.06404 4.93428 7.06404C4.92428 7.06404 4.91431 7.06092 4.90591 7.05464C4.89109 7.04364 4.88359 7.02486 4.88675 7.00636L4.90425 6.90157L4.83003 6.82745C4.81685 6.81429 4.81213 6.79461 4.81778 6.77673C4.82347 6.75882 4.83847 6.74579 4.85675 6.74307L4.95941 6.72782L5.00534 6.63251C5.01347 6.61567 5.03022 6.60498 5.04856 6.60498C5.06694 6.60498 5.08369 6.61567 5.09178 6.63251L5.13772 6.72782L5.2404 6.74307C5.25856 6.74579 5.27365 6.75882 5.27928 6.77673C5.28496 6.79461 5.28021 6.81429 5.26706 6.82745L5.19278 6.90157L5.21034 7.00636C5.21347 7.02486 5.206 7.04364 5.19118 7.05464C5.18275 7.06095 5.17281 7.06404 5.16278 7.06404Z" fill="white"/>
<path d="M6.2166 3.63665C6.20892 3.63665 6.2012 3.63487 6.19413 3.63096L6.10232 3.58152L6.01048 3.63096C6.00339 3.63483 5.99567 3.63665 5.98807 3.63665C5.97804 3.63665 5.96811 3.63349 5.95964 3.62721C5.94483 3.61621 5.93733 3.59743 5.94048 3.57893L5.95801 3.47412L5.8837 3.39996C5.87055 3.3868 5.86583 3.36715 5.87151 3.34927C5.87717 3.33137 5.89229 3.31833 5.91045 3.31562L6.01311 3.30037L6.05901 3.20499C6.06714 3.18815 6.08392 3.17749 6.10226 3.17749C6.1206 3.17749 6.13735 3.18818 6.14545 3.20499L6.19145 3.30037L6.29407 3.31562C6.31226 3.31837 6.32732 3.33137 6.33301 3.34927C6.33873 3.36715 6.33401 3.3868 6.32082 3.39996L6.24648 3.47412L6.26407 3.57893C6.26716 3.59743 6.25966 3.61618 6.24485 3.62721C6.23651 3.63346 6.22654 3.63665 6.2166 3.63665Z" fill="white"/>
<path d="M6.2166 4.49355C6.20892 4.49355 6.2012 4.49167 6.19413 4.48789L6.10232 4.43842L6.01048 4.48789C6.00339 4.49171 5.99567 4.49355 5.98807 4.49355C5.97804 4.49355 5.96811 4.49036 5.95964 4.48414C5.94483 4.47305 5.93733 4.45436 5.94048 4.43586L5.95801 4.33105L5.8837 4.25686C5.87055 4.24374 5.86583 4.22408 5.87151 4.20617C5.87717 4.1883 5.89229 4.1753 5.91045 4.17258L6.01311 4.1573L6.05901 4.06195C6.06714 4.04511 6.08392 4.03442 6.10226 4.03442C6.1206 4.03442 6.13735 4.04514 6.14545 4.06195L6.19145 4.1573L6.29407 4.17258C6.31226 4.1753 6.32732 4.18833 6.33301 4.20617C6.33873 4.22408 6.33401 4.24374 6.32082 4.25686L6.24648 4.33105L6.26407 4.43586C6.26716 4.45436 6.25966 4.47305 6.24485 4.48414C6.23651 4.49036 6.22654 4.49355 6.2166 4.49355Z" fill="white"/>
<path d="M6.2166 5.35045C6.20892 5.35045 6.2012 5.34861 6.19413 5.34483L6.10232 5.29533L6.01048 5.34483C6.00339 5.34861 5.99567 5.35045 5.98807 5.35045C5.97804 5.35045 5.96811 5.34726 5.95964 5.34104C5.94483 5.33001 5.93733 5.31126 5.94048 5.29273L5.95801 5.18795L5.8837 5.11376C5.87055 5.10064 5.86583 5.08098 5.87151 5.06311C5.87717 5.0452 5.89229 5.03217 5.91045 5.02948L6.01311 5.01423L6.05901 4.91883C6.06714 4.90201 6.08392 4.89136 6.10226 4.89136C6.1206 4.89136 6.13735 4.90201 6.14545 4.91883L6.19145 5.01423L6.29407 5.02948C6.31226 5.03223 6.32732 5.04523 6.33301 5.06311C6.33873 5.08098 6.33401 5.10064 6.32082 5.11376L6.24648 5.18795L6.26407 5.29273C6.26716 5.31126 6.25966 5.33001 6.24485 5.34104C6.23651 5.34726 6.22654 5.35045 6.2166 5.35045Z" fill="white"/>
<path d="M6.2166 6.20717C6.20892 6.20717 6.2012 6.20539 6.19413 6.20152L6.10232 6.15205L6.01048 6.20152C6.00339 6.20536 5.99567 6.20717 5.98807 6.20717C5.97804 6.20717 5.96811 6.20405 5.95964 6.19777C5.94483 6.18673 5.93733 6.16795 5.94048 6.14948L5.95801 6.04467L5.8837 5.97052C5.87055 5.95742 5.86583 5.93773 5.87151 5.9198C5.87717 5.90192 5.89229 5.88892 5.91045 5.8862L6.01311 5.87098L6.05901 5.77561C6.06714 5.75877 6.08392 5.74805 6.10226 5.74805C6.1206 5.74805 6.13735 5.75877 6.14545 5.77561L6.19145 5.87098L6.29407 5.8862C6.31226 5.88895 6.32732 5.90195 6.33301 5.9198C6.33873 5.9377 6.33401 5.95739 6.32082 5.97052L6.24648 6.04467L6.26407 6.14948C6.26716 6.16795 6.25966 6.1867 6.24485 6.19777C6.23651 6.20405 6.22654 6.20717 6.2166 6.20717Z" fill="white"/>
<path d="M6.2166 7.06404C6.20892 7.06404 6.2012 7.0622 6.19413 7.05839L6.10232 7.00895L6.01048 7.05839C6.00339 7.0622 5.99567 7.06404 5.98807 7.06404C5.97804 7.06404 5.96811 7.06092 5.95964 7.05464C5.94483 7.04364 5.93733 7.02486 5.94048 7.00636L5.95801 6.90157L5.8837 6.82745C5.87055 6.81429 5.86583 6.79461 5.87151 6.77673C5.87717 6.75882 5.89229 6.74579 5.91045 6.74307L6.01311 6.72782L6.05901 6.63251C6.06714 6.61567 6.08392 6.60498 6.10226 6.60498C6.1206 6.60498 6.13735 6.61567 6.14545 6.63251L6.19145 6.72782L6.29407 6.74307C6.31226 6.74579 6.32732 6.75882 6.33301 6.77673C6.33873 6.79461 6.33401 6.81429 6.32082 6.82745L6.24648 6.90157L6.26407 7.00636C6.26716 7.02486 6.25966 7.04364 6.24485 7.05464C6.23651 7.06095 6.22654 7.06404 6.2166 7.06404Z" fill="white"/>
<path opacity="0.1" d="M1.02737 10.356H0V11.3718H1.02737V10.356Z" fill="black"/>
<path opacity="0.1" d="M1.02737 12.9442V12.2651H0V12.9442C0 13.1294 0.151563 13.281 0.336844 13.281H1.36422C1.17894 13.281 1.02737 13.1294 1.02737 12.9442Z" fill="black"/>
</svg>
