<svg width="30" height="30" viewBox="0 0 30 30" fill="none" xmlns="http://www.w3.org/2000/svg">
<g clip-path="url(#clip0)">
<path d="M28.4378 12.2669L18.3921 2.21013C16.5567 0.374772 13.5543 0.374772 11.7218 2.20725L1.56286 12.2666C1.09254 12.7369 0.833496 13.3622 0.833496 14.0274V26.6763C0.833496 28.0496 1.95294 29.1666 3.32373 29.1666H26.6766C28.0495 29.1666 29.1668 28.0474 29.1668 26.6763V14.0274C29.1668 13.3622 28.9078 12.7369 28.4378 12.2669ZM12.8928 3.38403C13.4891 2.7877 14.2724 2.48959 15.0556 2.48959C15.8387 2.48959 16.6219 2.7877 17.2179 3.38369L27.1629 13.3397L20.8565 19.6461L17.9903 16.7663C17.2063 15.9823 16.1641 15.5506 15.0555 15.5506C13.9469 15.5506 12.9046 15.9823 12.1224 16.7646L9.23505 19.6354L2.84162 13.3367L12.8928 3.38403ZM2.49365 26.3379V15.3244L8.05761 20.806L2.49365 26.3379ZM3.67297 27.5064C4.6445 26.5404 12.2617 18.9671 13.2946 17.9402C13.765 17.4698 14.3903 17.2109 15.0555 17.2109C15.7207 17.2109 16.346 17.4699 16.8149 17.9388L26.3371 27.5064H3.67297ZM27.5067 26.328L22.0275 20.8229L27.5067 15.3437V26.328Z" fill="#161617"/>
</g>
<defs>
<clipPath id="clip0">
<rect width="28.3333" height="28.3333" fill="white" transform="translate(0.833496 0.833252)"/>
</clipPath>
</defs>
</svg>
