<svg width="30" height="30" viewBox="0 0 30 30" fill="none" xmlns="http://www.w3.org/2000/svg">
<g clip-path="url(#clip0)">
<path d="M27.8125 30H20.9375C19.7313 30 18.75 29.0188 18.75 27.8125V23.4375C18.75 22.2313 19.7313 21.25 20.9375 21.25H27.8125C29.0188 21.25 30 22.2313 30 23.4375V27.8125C30 29.0188 29.0188 30 27.8125 30ZM20.9375 23.125C20.765 23.125 20.625 23.265 20.625 23.4375V27.8125C20.625 27.985 20.765 28.125 20.9375 28.125H27.8125C27.985 28.125 28.125 27.985 28.125 27.8125V23.4375C28.125 23.265 27.985 23.125 27.8125 23.125H20.9375Z" fill="black"/>
<path d="M26.5625 23.125H22.1875C21.67 23.125 21.25 22.705 21.25 22.1875V19.375C21.25 17.6525 22.6512 16.25 24.375 16.25C26.0987 16.25 27.5 17.6525 27.5 19.375V22.1875C27.5 22.705 27.08 23.125 26.5625 23.125ZM23.125 21.25H25.625V19.375C25.625 18.6862 25.065 18.125 24.375 18.125C23.685 18.125 23.125 18.6862 23.125 19.375V21.25Z" fill="black"/>
<path d="M10.625 26.25C10.565 26.25 10.505 26.245 10.4463 26.2325C10.3413 26.2125 0 24.0763 0 12.4125V4.68754C0 4.30004 0.2375 3.95379 0.59875 3.81379L10.2863 0.0637891C10.5038 -0.0199609 10.745 -0.0199609 10.9625 0.0637891L20.65 3.81379C21.0125 3.95379 21.25 4.30004 21.25 4.68754V12.4125C21.25 13.1238 21.2113 13.7913 21.13 14.45C21.0675 14.9638 20.61 15.3238 20.0863 15.2675C19.5725 15.205 19.2063 14.7375 19.27 14.2238C19.3413 13.64 19.375 13.0475 19.375 12.4113V5.33004L10.625 1.94379L1.875 5.33004V12.4125C1.875 21.8563 9.31 24.04 10.6188 24.3513C11.175 24.2125 12.975 23.685 14.7775 22.3463C15.1963 22.0363 15.7813 22.1238 16.09 22.54C16.3975 22.9563 16.3113 23.5438 15.8963 23.8513C13.3788 25.72 10.9063 26.2125 10.8025 26.2313C10.7438 26.245 10.685 26.25 10.625 26.25Z" fill="black"/>
</g>
<defs>
<clipPath id="clip0">
<rect width="30" height="30" fill="white"/>
</clipPath>
</defs>
</svg>
